<svg width="32" height="32" viewBox="0 0 32 32" fill="none" xmlns="http://www.w3.org/2000/svg">
<path d="M11.5869 30.9331C11.4707 30.8169 11.3095 30.75 11.145 30.75C10.9806 30.75 10.8194 30.8169 10.7032 30.9331C10.587 31.0494 10.52 31.2106 10.52 31.375C10.52 31.5394 10.5869 31.7006 10.7032 31.8169C10.8194 31.9331 10.9806 32 11.145 32C11.3095 32 11.4707 31.9331 11.5869 31.8169C11.7031 31.7006 11.77 31.5394 11.77 31.375C11.77 31.2106 11.7032 31.0494 11.5869 30.9331Z" fill="black"/>
<path d="M22.1824 25.9482C21.8373 25.9482 21.5574 26.2281 21.5574 26.5732C21.5574 27.7362 20.6112 28.6825 19.4482 28.6825C19.1031 28.6825 18.8232 28.9623 18.8232 29.3075C18.8232 29.6527 19.1031 29.9325 19.4482 29.9325C21.3005 29.9325 22.8074 28.4256 22.8074 26.5732C22.8074 26.2281 22.5276 25.9482 22.1824 25.9482Z" fill="black"/>
<path d="M26.75 0C23.8552 0 21.5 2.35512 21.5 5.25V12.75C21.5 15.4333 23.5239 17.6514 26.125 17.9615V23.4375H23.8754C22.8912 22.0519 21.2736 21.1462 19.4484 21.1462C18.9706 21.1462 18.5069 21.2086 18.0651 21.3251L15.9805 16H18.5222C18.669 16 18.7981 16.0938 18.8436 16.2334C18.8899 16.3759 18.8334 16.4844 18.7956 16.5364C18.7578 16.5885 18.672 16.6758 18.5222 16.6758H17.8833C17.5382 16.6758 17.2583 16.9556 17.2583 17.3008C17.2583 17.6459 17.5382 17.9258 17.8833 17.9258H18.5222C19.0364 17.9258 19.5047 17.6871 19.8069 17.2711C20.1091 16.8551 20.1912 16.3359 20.0323 15.847C19.819 15.1909 19.2122 14.75 18.5221 14.75H15.0646C14.8579 14.75 14.6648 14.8521 14.5483 15.0227C14.4318 15.1933 14.4072 15.4105 14.4826 15.6028L15.6564 18.6012H10.4622L9.99181 17.5252L9.81413 17.0724C9.72025 16.8331 9.48944 16.6758 9.23231 16.6758H6.51469C5.98931 16.6758 5.49888 16.9349 5.20294 17.369C4.90694 17.8031 4.84481 18.3543 5.03675 18.8434C5.277 19.4556 5.85713 19.8512 6.51469 19.8512H8.58606L7.58075 21.5924C6.92006 21.3056 6.19175 21.1462 5.42681 21.1462C2.4345 21.1462 0 23.5808 0 26.5731C0 28.2513 0.765687 29.7537 1.966 30.75H0.625C0.279875 30.75 0 31.0298 0 31.375C0 31.7202 0.279875 32 0.625 32H5.42688C8.20788 32 10.5066 29.8972 10.8176 27.1981H13.2652C13.4761 27.1981 13.6727 27.0917 13.7882 26.9153C13.9037 26.7388 13.9223 26.516 13.8379 26.3228L11.0087 19.8512H16.1458L16.9017 21.7822C15.1895 22.696 14.0215 24.5006 14.0215 26.5731C14.0215 28.2513 14.7872 29.7537 15.9875 30.75H13.77C13.4249 30.75 13.145 31.0298 13.145 31.375C13.145 31.7202 13.4249 32 13.77 32H19.4484C22.4408 32 24.8752 29.5655 24.8752 26.5731C24.8752 25.9104 24.7556 25.2751 24.5372 24.6876H29.0208C29.3659 24.6876 29.6458 24.4078 29.6458 24.0626C29.6458 23.7174 29.3659 23.4376 29.0208 23.4376H27.375V17.9616C29.9761 17.6514 32 15.4333 32 12.7501V5.25C32 2.35512 29.6448 0 26.75 0ZM6.51469 18.6012C6.37481 18.6012 6.25144 18.5171 6.20031 18.3869C6.14363 18.2423 6.19813 18.1283 6.23569 18.0732C6.27325 18.0182 6.35938 17.9258 6.51469 17.9258H8.80619L9.07125 18.6012H6.51469ZM5.42688 30.75C3.12369 30.75 1.25 28.8763 1.25 26.5731C1.25 24.27 3.12369 22.3962 5.42688 22.3962C5.96425 22.3962 6.47769 22.4994 6.95 22.6851L4.88562 26.2606C4.774 26.454 4.774 26.6923 4.88562 26.8856C4.99725 27.079 5.20363 27.1981 5.42688 27.1981H7.44156C7.17456 28.0569 6.37238 28.6824 5.42688 28.6824C5.08175 28.6824 4.80188 28.9622 4.80188 29.3074C4.80188 29.6526 5.08175 29.9324 5.42688 29.9324C7.06556 29.9324 8.43306 28.7527 8.72694 27.1981H9.55688C9.25431 29.2058 7.51762 30.75 5.42688 30.75ZM6.50938 25.9481L8.03169 23.3115C8.83475 23.9541 9.39675 24.8859 9.55688 25.9481H6.50938ZM12.3098 25.9481H10.8176C10.6421 24.4249 9.83369 23.0916 8.66244 22.2189L9.81031 20.2307L12.3098 25.9481ZM19.4484 30.75C17.1452 30.75 15.2715 28.8763 15.2715 26.5731C15.2715 25.0298 16.1136 23.6803 17.3617 22.9572L18.8664 26.801C18.9629 27.0476 19.1988 27.1983 19.4486 27.1983C19.5243 27.1983 19.6014 27.1844 19.6763 27.1551C19.9977 27.0292 20.1562 26.6667 20.0304 26.3452L18.5252 22.5003C18.8224 22.4329 19.1311 22.3962 19.4484 22.3962C21.7516 22.3962 23.6253 24.2699 23.6253 26.5731C23.6253 28.8762 21.7516 30.75 19.4484 30.75ZM30.75 12.75C30.75 14.743 29.2847 16.3999 27.375 16.7009V14.1019L29.0404 12.3238C29.2764 12.0719 29.2634 11.6764 29.0115 11.4404C28.7597 11.2045 28.3641 11.2174 28.1281 11.4693L27.375 12.2732V10.2625L29.0404 8.48444C29.2764 8.2325 29.2634 7.837 29.0115 7.601C28.7597 7.36506 28.3641 7.378 28.1281 7.62988L27.375 8.43394V7.34375C27.375 6.99856 27.0951 6.71875 26.75 6.71875C26.4049 6.71875 26.125 6.99856 26.125 7.34375V10.158L25.4816 9.47106C25.2456 9.21912 24.8501 9.20625 24.5981 9.44219C24.3462 9.67812 24.3333 10.0737 24.5692 10.3256L26.125 11.9866V16.7008C24.2153 16.3998 22.75 14.7429 22.75 12.7499V5.25C22.75 3.04437 24.5444 1.25 26.75 1.25C28.9556 1.25 30.75 3.04437 30.75 5.25V12.75Z" fill="black"/>
<path d="M31.3749 23.4375H31.3667C31.0216 23.4375 30.7417 23.7173 30.7417 24.0625C30.7417 24.4077 31.0216 24.6875 31.3667 24.6875H31.3749C31.72 24.6875 31.9999 24.4077 31.9999 24.0625C31.9999 23.7173 31.72 23.4375 31.3749 23.4375Z" fill="black"/>
<path d="M14.9271 8.66662H13.8901C14.1361 8.16675 14.2685 7.61231 14.2685 7.04569C14.2685 5.02162 12.6218 3.375 10.5978 3.375C9.09056 3.375 7.77112 4.29419 7.21219 5.62725C6.85369 5.45481 6.45744 5.36225 6.05206 5.36225C4.57594 5.36219 3.375 6.56312 3.375 8.03925C3.375 8.63606 3.56769 9.20112 3.93213 9.67343C4.0505 9.82675 4.23319 9.91662 4.42694 9.91662H14.9271C15.2722 9.91662 15.5521 9.63681 15.5521 9.29162C15.5521 8.94643 15.2722 8.66662 14.9271 8.66662ZM12.3951 8.66656H4.76987C4.67456 8.47293 4.625 8.26018 4.625 8.03925C4.625 7.25237 5.26519 6.61219 6.05206 6.61219C6.45537 6.61219 6.84187 6.78425 7.11237 7.08431C7.27619 7.266 7.53081 7.33544 7.76419 7.26194C7.9975 7.1885 8.16656 6.98575 8.19681 6.743C8.34706 5.5355 9.37925 4.62494 10.5977 4.62494C11.9325 4.62494 13.0184 5.71087 13.0184 7.04562C13.0184 7.645 12.7936 8.224 12.3951 8.66656Z" fill="black"/>
</svg>
