<svg width="32" height="32" fill="none" xmlns="http://www.w3.org/2000/svg"><path d="M11.587 30.933a.63.63 0 00-.442-.183.63.63 0 00-.625.625.63.63 0 00.625.625.63.63 0 00.442-.183.63.63 0 00.183-.442.63.63 0 00-.183-.442zm10.595-4.985a.625.625 0 00-.625.625c0 1.163-.946 2.11-2.109 2.11a.625.625 0 000 1.25 3.363 3.363 0 003.36-3.36.625.625 0 00-.626-.625z" fill="#000"/><path d="M26.75 0a5.256 5.256 0 00-5.25 5.25v7.5a5.257 5.257 0 004.625 5.212v5.476h-2.25a5.424 5.424 0 00-5.81-2.113L15.98 16h2.542a.337.337 0 01.274.536.331.331 0 01-.274.14h-.639a.625.625 0 000 1.25h.64c.513 0 .982-.239 1.284-.655.302-.416.384-.935.225-1.424a1.584 1.584 0 00-1.51-1.097h-3.457a.625.625 0 00-.582.853l1.173 2.998h-5.194l-.47-1.076-.178-.453a.625.625 0 00-.582-.396H6.515a1.586 1.586 0 00-1.478 2.167c.24.613.82 1.008 1.478 1.008h2.071l-1.005 1.741a5.396 5.396 0 00-2.154-.446A5.433 5.433 0 000 26.573a5.42 5.42 0 001.966 4.177H.625a.625.625 0 000 1.25h4.802a5.435 5.435 0 005.39-4.802h2.448a.625.625 0 00.573-.875l-2.83-6.472h5.138l.756 1.931a5.432 5.432 0 00-2.88 4.791c0 1.678.765 3.18 1.966 4.177H13.77a.625.625 0 000 1.25h5.678a5.433 5.433 0 005.09-7.312h4.483a.625.625 0 000-1.25h-1.646v-5.476A5.257 5.257 0 0032 12.75v-7.5A5.256 5.256 0 0026.75 0zM6.515 18.601a.336.336 0 01-.315-.214.33.33 0 01.036-.314.33.33 0 01.279-.147h2.291l.265.675H6.515zM5.427 30.75a4.182 4.182 0 01-4.177-4.177 4.182 4.182 0 014.177-4.177c.537 0 1.05.103 1.523.29L4.886 26.26a.625.625 0 00.54.937h2.016a2.113 2.113 0 01-2.015 1.484.625.625 0 000 1.25 3.364 3.364 0 003.3-2.734h.83a4.183 4.183 0 01-4.13 3.552zm1.082-4.802l1.523-2.637a4.177 4.177 0 011.525 2.637H6.509zm5.8 0h-1.491a5.429 5.429 0 00-2.156-3.73l1.148-1.987 2.5 5.717zm7.14 4.802a4.182 4.182 0 01-4.178-4.177c0-1.543.843-2.893 2.09-3.616l1.505 3.844a.625.625 0 101.164-.456L18.525 22.5a4.182 4.182 0 015.1 4.073 4.182 4.182 0 01-4.177 4.177zm11.301-18a4.006 4.006 0 01-3.375 3.95v-2.598l1.665-1.778a.625.625 0 10-.912-.855l-.753.804v-2.01l1.665-1.779a.625.625 0 00-.912-.854l-.753.804v-1.09a.625.625 0 00-1.25 0v2.814l-.643-.687a.625.625 0 00-.913.855l1.556 1.66v4.715a4.006 4.006 0 01-3.375-3.951v-7.5c0-2.206 1.794-4 4-4s4 1.794 4 4v7.5zm.625 10.688h-.008a.625.625 0 000 1.25h.008a.625.625 0 000-1.25z" fill="#000"/><path d="M14.927 8.667H13.89c.246-.5.378-1.055.378-1.621a3.675 3.675 0 00-3.67-3.671 3.68 3.68 0 00-3.386 2.252 2.677 2.677 0 00-3.28 4.046.625.625 0 00.495.244h10.5a.625.625 0 000-1.25zm-2.532 0H4.77a1.429 1.429 0 012.343-1.582.625.625 0 001.084-.342 2.422 2.422 0 012.4-2.118 2.423 2.423 0 012.421 2.42c0 .6-.224 1.179-.623 1.622z" fill="#000"/></svg>