<svg width="40" height="40" fill="none" xmlns="http://www.w3.org/2000/svg"><path d="M34.49 18.56h-29a.6.6 0 00-.6.6V35a.6.6 0 00.6.6h29a.6.6 0 00.6-.6V19.16a.6.6 0 00-.6-.6zm-.6 15.84H6.11V19.76h27.78V34.4z" fill="#000"/><path d="M20 32.26c2.38 0 4.32-2.32 4.32-5.17s-1.95-5.17-4.32-5.17-4.32 2.32-4.32 5.17 1.92 5.17 4.32 5.17zm0-9.14c1.72 0 3.12 1.78 3.12 4 0 2.22-1.4 4-3.12 4-1.72 0-3.12-1.78-3.12-4 0-2.22 1.38-3.99 3.12-3.99v-.01zM8.81 30.31a1.38 1.38 0 011.38 1.38.6.6 0 00.6.6h3.42a.6.6 0 000-1.2h-2.88a2.59 2.59 0 00-1.91-1.91V25a2.59 2.59 0 001.91-1.91h2.89a.6.6 0 000-1.2H10.8a.6.6 0 00-.6.6 1.38 1.38 0 01-1.38 1.38.6.6 0 00-.6.6v5.23a.6.6 0 00.59.61zm19.8.75h-2.89a.6.6 0 100 1.2h3.42a.6.6 0 00.6-.6 1.38 1.38 0 011.38-1.38.601.601 0 00.6-.6v-5.2a.599.599 0 00-.6-.6 1.38 1.38 0 01-1.38-1.38.6.6 0 00-.6-.6h-3.42a.6.6 0 100 1.2h2.89a2.59 2.59 0 001.92 1.9v4.14a2.59 2.59 0 00-1.92 1.92zM32.75 4.4H7.25A2.82 2.82 0 004.4 7.26v4.87A2.86 2.86 0 007.25 15h1.41a.6.6 0 100-1.2H7.25a1.66 1.66 0 01-1.65-1.68V7.26A1.64 1.64 0 017.25 5.6h25.5a1.66 1.66 0 011.65 1.66v4.9a1.66 1.66 0 01-1.65 1.65h-1.41a.6.6 0 000 1.2h1.41a2.86 2.86 0 002.85-2.85v-4.9a2.86 2.86 0 00-2.85-2.86z" fill="#000"/><path d="M12.6 15.82v-3.27a.6.6 0 10-1.2 0v3.28a.6.6 0 101.2 0v-.01zm3.99 0v-5.11a.6.6 0 10-1.2 0v5.11a.6.6 0 101.2 0zm3.99 0V9.06a.6.6 0 10-1.2 0v6.76a.6.6 0 101.2 0zm4 0v-5.11a.6.6 0 10-1.2 0v5.11a.6.6 0 101.2 0zm3.99 0v-3.27a.6.6 0 10-1.2 0v3.28a.6.6 0 101.2 0v-.01z" fill="#000"/></svg>