<svg width="40" height="40" fill="none" xmlns="http://www.w3.org/2000/svg"><path d="M17.16 15.92l-.66-.52a1.788 1.788 0 01-.79-1.16V6.5a1.34 1.34 0 00-1.34-1.34h-2.58a1.34 1.34 0 00-1.34 1.34v7.76a1.812 1.812 0 01-.8 1.17l-.42.31-.23.18C7.62 17 6.63 17.74 6.63 20.69v11.42a2.73 2.73 0 002.73 2.73h7.48a2.73 2.73 0 002.73-2.73V20.69c-.03-2.95-1.03-3.69-2.41-4.77zm-2.58-8h-3V6.5a.19.19 0 01.18-.18h2.6a.19.19 0 01.18.18l.04 1.42zm-3 6.34v-5.2h2.95v5.2a2.73 2.73 0 001.22 2s.47.35.66.52c1.31 1 1.91 1.48 1.91 3.85v11.51a1.57 1.57 0 01-1.57 1.57h-7.4a1.57 1.57 0 01-1.57-1.57V20.69c0-2.38.6-2.84 1.92-3.86l.66-.52a2.73 2.73 0 001.25-2.05h-.03z" fill="#000"/><path d="M9.65 20.88v7.53a.57.57 0 00.57.57h5.72a.568.568 0 00.57-.57v-7.53a.56.56 0 00-.57-.57h-5.72a.57.57 0 00-.57.57zm1.16 6.94v-6.37h4.56v6.37h-4.56zm22.57-6.59a31.002 31.002 0 00-1.2-7 .56.56 0 00-.57-.44h-8.44a.61.61 0 00-.56.43 30.888 30.888 0 00-1.2 7 5.92 5.92 0 005.39 6.12v6.33h-2.41a.57.57 0 100 1.14h6a.57.57 0 100-1.14H28v-6.32a5.93 5.93 0 005.38-6.12zm-4.25-3.47a.57.57 0 00-.57-.57h-5.47c.17-.78.35-1.59.53-2.24h7.55c.58 2.057.916 4.175 1 6.31a4.83 4.83 0 11-9.65 0c.024-.973.12-1.942.29-2.9h5.71a.57.57 0 00.61-.6z" fill="#000"/></svg>