<svg width="40" height="40" fill="none" xmlns="http://www.w3.org/2000/svg"><path d="M35.17 4.43a.6.6 0 00-.75.4c-.12.41-.59 2.09-1 3.57l-.32 1.16c-.4 1.41-.65 1.47-1.58 1.71l-.92.24a2.27 2.27 0 00-1.39-1.17 2.2 2.2 0 00-1.69.18 2.278 2.278 0 00-1.1 1.38l-2.83 10.17h-5.72a6.13 6.13 0 00-4.93-2.46 6.25 6.25 0 00-1.27.13l-1.4-5h3.89a.6.6 0 00.6-.6V13a2.19 2.19 0 00-1.45-2 38.736 38.736 0 00-6.06-1.54 2.86 2.86 0 00-2.85 2.86v1.84a.6.6 0 00.6.6h4l1.5 5.34a6.17 6.17 0 00-3.37 7.84c-.83 2.33-1.75 4.86-1.76 4.86a.6.6 0 000 .21A2.6 2.6 0 008 35.6h22.16a2.6 2.6 0 002.59-2.6.6.6 0 000-.2s-2.43-6.77-3-8.32a3.369 3.369 0 00-1.57-2.13l2.59-9.21c.042-.147.069-.298.08-.45l1-.25c1.17-.3 1.86-.57 2.42-2.55l.32-1.17c.41-1.47.87-3.14 1-3.55a.601.601 0 00-.42-.74zM5.6 12.32a1.66 1.66 0 011.65-1.66c1.927.325 3.826.8 5.68 1.42a1 1 0 01.63.91v.57h-8l.04-1.24zm23.54 14h-3.48a.6.6 0 000 1.2h3.91l.85 2.48h-7a.6.6 0 000 1.2h7.48l.69 1.94a1.4 1.4 0 01-1.39 1.3H8a1.4 1.4 0 01-1.39-1.3l1.35-3.72c.194.284.411.552.65.8A6.2 6.2 0 0012.94 32a6.1 6.1 0 001.44-.17.602.602 0 10-.28-1.17 4.94 4.94 0 01-5.73-2.87.58.58 0 00-.08-.18 5 5 0 011.12-5.33A5 5 0 0117.77 27a.6.6 0 00.445.725.602.602 0 00.725-.445 6.19 6.19 0 00-.36-4h8.27c.17-.012.34-.012.51 0 .46.11.85.45 1.22 1.55l.56 1.49zm.47-13.55L27 22.08h-2.16l2.74-9.85a1.08 1.08 0 01.52-.65.999.999 0 01.78-.08 1.06 1.06 0 01.73 1.3v-.03z" fill="#000"/><path d="M13.4 25.36a.602.602 0 00-1.021.16.6.6 0 00.171.68l3.93 4a.6.6 0 10.85-.84l-3.93-4z" fill="#000"/></svg>