<svg width="40" height="40" fill="none" xmlns="http://www.w3.org/2000/svg"><path d="M35.52 13.1l-5.45-8.43a.6.6 0 00-.5-.27h-19.1a.6.6 0 00-.5.27L4.52 13.1a.58.58 0 00-.07.23V15a.57.57 0 000 .12 4.16 4.16 0 007 2.23 4.17 4.17 0 005.73 0 4.17 4.17 0 005.73 0 4.17 4.17 0 005.73 0 4.171 4.171 0 007-2.24 10.23 10.23 0 00-.12-2.01zM10.8 5.6h18.44l4.67 7.22H6.12L10.8 5.6zm23.54 9.3a3 3 0 01-2.9 2.35A2.921 2.921 0 0129.06 16a.669.669 0 00-.49-.25.6.6 0 00-.48.24 2.999 2.999 0 01-2.38 1.2A2.92 2.92 0 0123.33 16a.6.6 0 00-1 0A2.998 2.998 0 0120 17.25 2.919 2.919 0 0117.6 16a.599.599 0 00-.48-.25.578.578 0 00-.49.24 2.999 2.999 0 01-2.38 1.2A2.92 2.92 0 0111.87 16a.599.599 0 00-.48-.25.56.56 0 00-.49.24 3 3 0 01-5.29-1.15V14h28.73v.9z" fill="#000"/><path d="M13.27 7.61a.6.6 0 00-.77.39l-.81 2a.603.603 0 00.34.787.6.6 0 00.78-.357l.81-2.08a.6.6 0 00-.35-.74zM27.54 8a.6.6 0 00-1.12.43l.81 2.08a.615.615 0 101.12-.51l-.81-2zm-9.76-.42a.6.6 0 00-.67.51l-.28 2.08a.6.6 0 00.52.67h.08a.6.6 0 00.59-.52l.28-2.08a.6.6 0 00-.52-.66zm4.48 0a.6.6 0 00-.52.67l.26 2.08a.6.6 0 00.59.52h.08a.6.6 0 00.52-.67l-.28-2.08a.6.6 0 00-.65-.52zM32.42 29.7V21a.6.6 0 10-1.2 0v9a.6.6 0 00.16.41L33 32.06v2.34H7.07v-2.33l1.59-1.72a.6.6 0 00.16-.41v-9a.6.6 0 00-1.2 0v8.72L6 31.42a.6.6 0 00-.16.41V35a.6.6 0 00.6.6h27.11a.6.6 0 00.6-.59v-3.17a.6.6 0 00-.16-.41l-1.57-1.73z" fill="#000"/><path d="M28.68 31.82a.6.6 0 00.6-.6V21a.6.6 0 00-.6-.6h-5.87a.6.6 0 00-.6.6v10.22a.6.6 0 00.6.6h5.87zm-.6-10.23v9h-4.67V26.7h1a.6.6 0 100-1.2h-1v-3.91h4.67zm-8.43 6.53a.6.6 0 00.6-.6V21a.6.6 0 00-.6-.6h-8.29a.6.6 0 00-.6.6v6.53a.6.6 0 00.6.6l8.29-.01zM12 21.59h7v5.33h-7v-5.33z" fill="#000"/></svg>