<svg width="40" height="40" fill="none" xmlns="http://www.w3.org/2000/svg"><path d="M35.58 33.85H34V19.58a.571.571 0 00-.57-.58h-3.8V9.77a.571.571 0 00-.57-.58h-4.41a4.68 4.68 0 00-9.31 0h-4.43a.57.57 0 00-.57.58V19h-3.8a.57.57 0 00-.57.58v14.27H4.41a.58.58 0 000 1.15h31.18a.58.58 0 000-1.15h-.01zM20 6.15a3.62 3.62 0 11-3.56 3.62A3.589 3.589 0 0120 6.15zm-8.53 4.2h3.88a4.68 4.68 0 009.31 0h3.88V19h-1.7v-6.14a.57.57 0 00-1.14 0V19h-5.13v-2.14a.57.57 0 00-1.14 0V19H14.3v-6.14a.57.57 0 00-1.14 0V19h-1.7l.01-8.65zm8 23.49h-3v-7.3h3v7.3zm4.18 0h-3v-7.3h3v7.3zm6.45-6h-1.85a.58.58 0 100 1.16h1.81v1.7h-1.81a.58.58 0 100 1.16h1.81v2h-5.32V26a.571.571 0 00-.57-.58h-8.35a.57.57 0 00-.57.58v7.88H9.94v-2h1.81a.58.58 0 000-1.16H9.94V29h1.81a.58.58 0 000-1.16H9.94V23h20.12l.04 4.84zm2.83 6h-1.7V22.46a.571.571 0 00-.57-.58H9.37a.57.57 0 00-.57.58v11.39H7.11v-13.7h25.78l.04 13.69z" fill="#000"/><path d="M18.41 10.35h1v1a.57.57 0 101.14 0v-1h1a.58.58 0 000-1.16h-1v-1a.57.57 0 00-1.14 0v1h-1a.58.58 0 000 1.15v.01z" fill="#000"/></svg>