<svg width="40" height="40" fill="none" xmlns="http://www.w3.org/2000/svg"><path d="M18.85 26.21H5.6V22.5h6.69a.6.6 0 00.6-.6v-.48a3.709 3.709 0 00-3.7-3.72H5.62A2.8 2.8 0 018.45 15h23.07a2.85 2.85 0 012.8 2.38.603.603 0 001.19-.19 4.06 4.06 0 00-3.24-3.32 2.56 2.56 0 012.36-2 .6.6 0 000-1.2 3.48 3.48 0 00-3.11 1.93l-2.85-7.81a.6.6 0 00-.56-.39H11.87a.6.6 0 00-.56.39l-2.86 7.85a3.48 3.48 0 00-3.11-1.93.6.6 0 100 1.2 2.56 2.56 0 012.36 2A3.93 3.93 0 005.61 15a4 4 0 00-1.21 2.87v12.41a1.8 1.8 0 001.8 1.8H10a1.8 1.8 0 001.8-1.8v-2.87h7a.6.6 0 000-1.2h.05zM12.29 5.6h15.4l3 8.22H9.3l2.99-8.22zm-.6 15.7H5.6v-2.4h3.59a2.51 2.51 0 012.5 2.4zm-1.08 9a.61.61 0 01-.6.6H6.2a.61.61 0 01-.6-.6v-2.89h5l.01 2.89z" fill="#000"/><path d="M18.85 21.27h-2.34l-1-1.59a.601.601 0 00-1.157.131.6.6 0 00.157.49l1.14 1.88a.6.6 0 00.51.29h2.68a.6.6 0 100-1.2h.01zm16.69.32c-.31-2-3.78-3-7.07-3-3.44 0-7.1 1.15-7.1 3.28a1.763 1.763 0 000 .26v10.19c0 2.13 3.66 3.28 7.1 3.28 3.44 0 7.1-1.15 7.1-3.28V21.84a.59.59 0 00-.03-.25zm-1.14 7.19v.09c0 .87-2.24 2.08-5.9 2.08s-5.9-1.21-5.9-2.08v-1.6a11.32 11.32 0 005.9 1.4 11.32 11.32 0 005.9-1.4v1.51zm-11.79-3.46v-1.55a11.39 11.39 0 005.87 1.38 11.25 11.25 0 005.92-1.42v1.65c0 .87-2.24 2.08-5.9 2.08s-5.9-1.21-5.9-2.08l.01-.06zm5.87-5.54c3.65 0 5.9 1.21 5.9 2.08 0 .87-2.25 2.14-5.9 2.14-3.65 0-5.72-1.13-5.87-2v-.12c.1-.94 2.3-2.09 5.87-2.09v-.01zm0 14.61c-3.65 0-5.9-1.21-5.9-2.08v-1.57a11.32 11.32 0 005.9 1.4 11.32 11.32 0 005.9-1.4v1.57c.02.88-2.22 2.09-5.88 2.09l-.02-.01z" fill="#000"/></svg>