<svg width="16" height="16" fill="none" xmlns="http://www.w3.org/2000/svg"><path d="M5.652 8.827c0-.2-.162-.363-.363-.363H4.022c-.2 0-.363.163-.363.363v1.267c0 .201.162.363.363.363h1.267c.2 0 .363-.162.363-.363V8.827zm3.168 0c0-.2-.163-.363-.364-.363H7.19c-.2 0-.363.163-.363.363v1.267c0 .201.163.363.363.363h1.267c.2 0 .363-.162.363-.363V8.827zm3.167 0c0-.2-.163-.363-.363-.363h-1.268c-.2 0-.363.163-.363.363v1.267c0 .201.163.363.363.363h1.268c.2 0 .363-.162.363-.363V8.827zm-6.335 3.168a.362.362 0 00-.363-.363H4.022c-.2 0-.363.162-.363.363v1.267c0 .2.162.362.363.362h1.267c.2 0 .363-.162.363-.363v-1.266zm3.168 0a.363.363 0 00-.364-.363H7.19c-.2 0-.363.162-.363.363v1.267c0 .2.163.362.363.362h1.267c.2 0 .363-.162.363-.363v-1.266zm3.167 0a.363.363 0 00-.363-.363h-1.268c-.2 0-.363.162-.363.363v1.267c0 .2.163.362.363.362h1.268c.2 0 .363-.162.363-.363v-1.266z" fill="#fff"/><path d="M14.253 1.782v1.935c0 .875-.71 1.58-1.585 1.58h-1a1.589 1.589 0 01-1.593-1.58V1.775H5.57v1.942c0 .875-.719 1.58-1.593 1.58h-1a1.58 1.58 0 01-1.584-1.58V1.782A1.44 1.44 0 000 3.215v11.342C0 15.35.642 16 1.434 16h12.777c.791 0 1.434-.652 1.434-1.443V3.215a1.44 1.44 0 00-1.392-1.433zm-.464 12.07a.62.62 0 01-.62.62H2.448a.62.62 0 01-.62-.62v-5.86a.62.62 0 01.62-.62h10.72a.62.62 0 01.62.62v5.86z" fill="#fff"/><path d="M2.973 4.26h.989c.3 0 .543-.244.543-.544V.543c0-.3-.243-.543-.543-.543h-.989c-.3 0-.543.243-.543.543v3.173c0 .3.243.543.543.543zm8.683 0h.989c.3 0 .543-.244.543-.544V.543c0-.3-.243-.543-.543-.543h-.989c-.3 0-.543.243-.543.543v3.173c0 .3.243.543.543.543z" fill="#fff"/></svg>