<svg width="21" height="13" fill="none" xmlns="http://www.w3.org/2000/svg"><path d="M10.5 0C6.488 0 2.85 2.195.164 5.76a.833.833 0 000 .993c2.685 3.57 6.324 5.765 10.336 5.765 4.012 0 7.65-2.195 10.336-5.76a.833.833 0 000-.993C18.15 2.195 14.512 0 10.5 0zm.288 10.666a4.42 4.42 0 01-4.695-4.695 4.427 4.427 0 014.12-4.12 4.42 4.42 0 014.695 4.696 4.44 4.44 0 01-4.12 4.12zm-.133-2.036a2.374 2.374 0 01-2.526-2.526 2.388 2.388 0 012.22-2.22 2.374 2.374 0 012.527 2.525 2.388 2.388 0 01-2.221 2.221z" fill="#fff"/></svg>