<svg width="320" height="74" fill="none" xmlns="http://www.w3.org/2000/svg"><path d="M55.27 41.725l.837-11.002-9.513-4.184 8.676 15.186zM27.342 26.464l-9.588 4.259.753 11.253 8.835-15.512zm.712 32.63l8.76 6.208 8.768-6.208H28.054zm8.76-36.813l9.822 4.3-9.672-17.018-9.622 16.9 9.471-4.182zm17.57 30.58l-8.802 6.233H65.16l-9.89-17.37-.886 11.137zm-35.14 0l-.737-10.877-9.739 17.11h19.244l-8.769-6.233zM36.813 0S.986 21.452 0 63.72c10.785 9.07 33.65 9.347 36.813 9.296 3.163-.05 26.03-.242 36.814-9.295C72.631 21.452 36.814 0 36.814 0zM54.5 70.423l-17.688-5.12-17.695 5.12-10.35-11.329L3.94 44.176l13.813-13.453L21.47 13.47l15.495-3.907L52.15 13.47l3.999 17.253 13.537 13.453-4.534 14.918L54.5 70.423zm48.275-47.065h2.429c1.301.03 2.602-.06 3.886-.268a5.382 5.382 0 001.928-.866 5.112 5.112 0 001.518-1.792 5.89 5.89 0 00.607-2.807 5.61 5.61 0 00-1.062-3.554 4.846 4.846 0 00-2.672-1.777 22.345 22.345 0 00-4.372-.194H99.04v18.187h3.735v-6.928zm0-8.257h1.806a19.92 19.92 0 012.687.12 2.56 2.56 0 011.518.806c.402.454.614 1.04.592 1.642a2.398 2.398 0 01-.425 1.494 2.375 2.375 0 01-1.169.88 9.514 9.514 0 01-2.945.3h-2.064V15.1zm10.535 28.141h-12.782v1.927a68.688 68.688 0 01-.41 7.734 16.582 16.582 0 01-1.518 5.42h-1.518v7.019h3.112V61.37h11.644v3.972h3.036v-7.018h-1.564V43.242zm-3.719 15.082h-7.029c1.012-2.539 1.518-6.57 1.518-12.095h5.511v12.095zm65.384-27.798a8.77 8.77 0 003.524-.57 8.654 8.654 0 002.988-1.924 11.05 11.05 0 002.437-6.913 11.05 11.05 0 00-2.437-6.914 8.747 8.747 0 00-3.005-1.922 8.865 8.865 0 00-3.538-.571 10.382 10.382 0 00-3.992.716 7.329 7.329 0 00-2.384 1.643 8.592 8.592 0 00-1.745 2.508 11.382 11.382 0 00-.851 4.66 9.26 9.26 0 00.538 3.646 9.356 9.356 0 001.922 3.162 8.692 8.692 0 003.006 1.918 8.814 8.814 0 003.537.56zm-3.735-14.11a5.146 5.146 0 011.695-1.151 5.215 5.215 0 015.729 1.15 6.805 6.805 0 011.396 4.674 6.872 6.872 0 01-1.427 4.748 4.974 4.974 0 01-1.666 1.176 5.052 5.052 0 01-4.015 0 4.974 4.974 0 01-1.666-1.176 8.394 8.394 0 01-1.435-4.688c0-1.668.499-3.299 1.435-4.69l-.046-.044zM301.279 12.1h-3.735v18.187h3.735V12.1zm-46.317 17.65a4.869 4.869 0 002.201-1.763 5.235 5.235 0 00.957-3.165 5.356 5.356 0 00-.364-2.098 5.424 5.424 0 00-1.154-1.8 6.852 6.852 0 00-2.388-1.33 6.925 6.925 0 00-2.728-.297h-5.01V12.1h-3.795v18.187h8.744a10.386 10.386 0 003.537-.538zm-8.547-2.584v-4.823h3.811a6.162 6.162 0 013.112.582c.305.2.551.474.714.796.162.323.236.682.212 1.041a2.05 2.05 0 01-.547 1.493 2.264 2.264 0 01-1.214.762c-.805.149-1.625.209-2.444.179l-3.644-.03zm18.521-4.912h7.317v7.958h3.735V12.1h-3.735v7.152h-7.317V12.1h-3.734v18.187h3.734v-8.033zm47.713-11.155a3.88 3.88 0 002.733-.955 3.898 3.898 0 001.214-2.658h-1.73a1.931 1.931 0 01-.638 1.344 2.411 2.411 0 01-1.518.448 2.441 2.441 0 01-1.518-.448 1.984 1.984 0 01-.622-1.344h-1.731a3.943 3.943 0 001.199 2.658 3.926 3.926 0 002.611.955zM130.48 27.151h-10.475v-4.957h9.291v-3.061h-9.291v-4.047h9.989V12.1h-13.663v18.187h14.073l.076-3.136zm60.237-4.897h7.317v7.958h3.735V12.1h-3.871v7.152h-7.317V12.1h-3.735v18.187h3.735l.136-8.033zm-31.151-3.913v11.871h3.492V12.1h-3.856l-7.469 12.035V12.1h-3.492v18.187h3.735l7.59-11.946zm-22.133-3.255h8.804V12.1h-12.539v18.187h3.735v-15.2zm80.685 15.141h4.069L214.779 12.1h-3.947l-7.211 18.187h3.962l1.518-4.136h7.408l1.609 4.076zm-7.863-7.197l2.505-6.75 2.55 6.75h-5.055zm84.177 4.987a5.71 5.71 0 00.955-3.158 5.712 5.712 0 00-.955-3.158 4.96 4.96 0 00-2.368-1.881 9.525 9.525 0 00-3.385-.523h-4.995V12.1h-3.734v18.187h8.729c1.19.053 2.381-.094 3.522-.433a4.882 4.882 0 002.231-1.837zm-3.415-1.791a2.361 2.361 0 01-1.23.761c-.8.15-1.615.21-2.429.18h-3.643v-4.824h3.795a5.879 5.879 0 013.157.612c.293.205.527.48.681.799.154.319.223.67.2 1.023a2.116 2.116 0 01-.562 1.448h.031zm-8.304 24.11h-7.317v-7.094h-3.735v18.203h3.735v-7.96h7.317v7.96h3.734V43.242h-3.734v7.093zm-24.441 2.986h9.29v-2.987h-9.29V46.23h9.989v-2.987h-13.663v18.203h14.027v-2.987h-10.338l-.015-5.136zm-137.189 0h9.291v-2.987h-9.321V46.23h9.988v-2.987h-13.662v18.203h14.012v-2.987h-10.338l.03-5.136zm129.446-10.08h-3.734v15.082h-7.241V43.242h-3.735v18.203h13.147v3.971h3.036v-7.018h-1.518l.045-15.156zm65.885-24.826v11.87h3.492V12.1h-3.72l-7.499 12.11V12.1h-3.492v18.187h3.735l7.484-11.871zm-27.583 27.813h5.48v15.11h3.734V46.23h5.496v-2.987h-14.695l-.015 2.987zm30.073-1.03a4.846 4.846 0 00-2.672-1.777 21.831 21.831 0 00-4.433-.284h-5.996V61.34h3.81v-6.87h2.444a21.317 21.317 0 003.871-.254 5.657 5.657 0 001.928-.866 4.959 4.959 0 001.518-1.791 5.896 5.896 0 00.623-2.823 5.585 5.585 0 00-1.093-3.509v-.03zm-3.219 5.032a2.255 2.255 0 01-1.169.895 9.59 9.59 0 01-2.945.284h-1.958v-5.18h1.807c.897-.03 1.796.01 2.687.12a2.564 2.564 0 011.518.806 2.554 2.554 0 01.167 2.986l-.107.09zm-155.071-7.362a10.309 10.309 0 00-3.978.717 7.151 7.151 0 00-2.398 1.642 8.272 8.272 0 00-1.716 2.494 11.398 11.398 0 00-.85 4.659 9.371 9.371 0 002.429 6.824 8.73 8.73 0 003.021 1.921 8.845 8.845 0 003.552.557 8.765 8.765 0 003.524-.57 8.649 8.649 0 002.989-1.923 11.027 11.027 0 002.445-6.914c0-2.51-.862-4.946-2.445-6.913a8.64 8.64 0 00-3.016-1.938 8.752 8.752 0 00-3.557-.556zm3.704 14.08a4.661 4.661 0 01-1.648 1.198 4.731 4.731 0 01-2.011.386 4.818 4.818 0 01-2.023-.389 4.756 4.756 0 01-1.666-1.194 6.72 6.72 0 01-1.518-4.689 6.838 6.838 0 011.412-4.703c.472-.5 1.05-.893 1.692-1.151a4.836 4.836 0 012.027-.342 4.779 4.779 0 012.022.34 4.7 4.7 0 011.682 1.153 8.515 8.515 0 011.421 4.703c0 1.67-.494 3.305-1.421 4.704l.031-.015zm20.084-5.24a4.326 4.326 0 001.898-1.613 4.136 4.136 0 00.698-2.344 4.04 4.04 0 00-.562-2.12 4.509 4.509 0 00-1.427-1.494 4.598 4.598 0 00-1.928-.746 19.452 19.452 0 00-3.264-.15h-7.408v18.203h6.3c2.384 0 3.886 0 4.554-.12a5.586 5.586 0 002.505-.866 4.64 4.64 0 001.518-1.882 5.25 5.25 0 00.592-2.404 4.307 4.307 0 00-.911-2.747 4.827 4.827 0 00-2.565-1.717zm-8.258-5.48h5.343a2.215 2.215 0 011.412.642c.327.383.495.874.471 1.374a1.902 1.902 0 01-.547 1.418c-.414.384-.95.616-1.518.657h-5.161v-4.09zm7.377 11.273a2.28 2.28 0 01-1.351.717c-.85.105-1.708.145-2.565.12h-3.461V53.47h3.036a13.406 13.406 0 013.309.254c.469.15.878.443 1.169.836.282.409.426.895.41 1.389a2.246 2.246 0 01-.547 1.523v.03zm-47.773-3.912v3.091c0 .806-.137 1.314-.395 1.493a2.786 2.786 0 01-1.518.314H133v2.837c1.154.09 1.943.134 2.383.134a4.227 4.227 0 002.748-.746 3.358 3.358 0 001.093-2.06 31.97 31.97 0 00.228-4.66V46.23h5.571v15.11h3.674V43.243h-12.949V53.59zm81.976-13.125a2.363 2.363 0 01-1.518-.463 1.903 1.903 0 01-.447-.603 1.867 1.867 0 01-.176-.726h-1.821a3.965 3.965 0 001.199 2.658 4.002 4.002 0 002.732.956 3.942 3.942 0 002.733-.956 3.984 3.984 0 001.214-2.658h-1.73a1.896 1.896 0 01-.638 1.33 2.334 2.334 0 01-1.579.432l.031.03zm-3.887 14.857v-12.08h-3.491v18.203h3.734l7.485-11.946v11.945h3.491V43.242h-3.75l-7.469 12.08zM198.505 42.9a10.302 10.302 0 00-3.977.717 7.154 7.154 0 00-2.399 1.642 8.563 8.563 0 00-1.746 2.464 11.398 11.398 0 00-.85 4.659c-.07 1.24.11 2.48.53 3.652a9.39 9.39 0 001.914 3.172 9.81 9.81 0 006.535 2.485 9.81 9.81 0 006.536-2.485 11.027 11.027 0 002.445-6.914c0-2.51-.862-4.945-2.445-6.913a8.634 8.634 0 00-3.014-1.946 8.754 8.754 0 00-3.559-.563l.03.03zm3.704 14.08a4.652 4.652 0 01-1.648 1.198 4.731 4.731 0 01-2.011.386 4.82 4.82 0 01-2.023-.389 4.742 4.742 0 01-1.665-1.194 8.45 8.45 0 01-1.428-4.696 8.45 8.45 0 011.428-4.696 4.769 4.769 0 011.691-1.151 4.842 4.842 0 012.028-.343 4.774 4.774 0 012.021.34 4.704 4.704 0 011.683 1.154 8.513 8.513 0 011.42 4.703c0 1.67-.493 3.304-1.42 4.704l-.076-.015zm36.586-26.737V12.1H225.8v13.439c0 .806-.137 1.304-.41 1.493-.463.25-.992.36-1.518.313h-.789v2.837c1.153.09 1.943.135 2.383.135a4.227 4.227 0 002.748-.747 3.358 3.358 0 001.093-2.06c.189-1.546.265-3.103.227-4.66v-7.764h5.572v15.111l3.689.045z" fill="#FFC700"/></svg>