<svg width="36" height="37" fill="none" xmlns="http://www.w3.org/2000/svg"><path d="M30.608 34.882L16.44 27.38a1.136 1.136 0 00-1.169.067L4.44 34.949a1.125 1.125 0 00.639 2.05h25c.515 0 .968-.35 1.091-.855a1.12 1.12 0 00-.563-1.262zm4.742-2.138l-3.332-15a1.125 1.125 0 00-1.74-.682l-10.835 7.501a1.121 1.121 0 00-.482.99c.023.395.25.746.597.928l14.164 7.501a1.11 1.11 0 001.209-.1c.35-.265.513-.708.419-1.138zm-7.84-17.466a1.128 1.128 0 00-1.076-.79H16.159c-1.868 3.383-4.633 6.618-5.77 7.884a3.385 3.385 0 01-2.512 1.12c-.957 0-1.873-.41-2.512-1.12a55.143 55.143 0 01-1.898-2.238L.743 32.394a1.13 1.13 0 001.099 1.369c.225 0 .448-.066.641-.2l24.59-17.027c.407-.277.58-.788.437-1.258z" fill="#FFC700"/><path d="M7.88.981C3.533.981 0 4.516 0 8.861c0 4.043 6.321 11.204 7.042 12.008.214.236.518.373.837.373.32 0 .624-.137.838-.373.72-.804 7.041-7.965 7.041-12.008 0-4.345-3.534-7.88-7.879-7.88zm0 11.256a3.378 3.378 0 010-6.753 3.378 3.378 0 010 6.754z" fill="#000"/></svg>