<svg width="111" height="124" fill="none" xmlns="http://www.w3.org/2000/svg"><rect x="1" y="1" width="18" height="29" rx="9" stroke="#fff" stroke-width="2"/><rect x="8" y="8" width="4" height="7" rx="2" fill="#FFC700"/><path d="M40.184 20v-9.056H36.12V20h-2.192V8.976h8.48V20h-2.224zm10.776-2.816c0 .49-.102.917-.304 1.28a2.688 2.688 0 01-.784.912c-.32.235-.688.41-1.104.528a4.694 4.694 0 01-1.28.176c-.448 0-.88-.059-1.296-.176a3.61 3.61 0 01-1.12-.528 2.763 2.763 0 01-.768-.912c-.192-.363-.288-.79-.288-1.28v-2.288c0-.49.096-.917.288-1.28.202-.363.464-.661.784-.896.33-.245.704-.427 1.12-.544a4.487 4.487 0 011.296-.192c.47 0 .912.064 1.328.192.426.117.794.299 1.104.544.32.245.57.555.752.928.181.363.272.79.272 1.28v2.256zm-2.032-1.936c0-.256-.043-.47-.128-.64a1.183 1.183 0 00-.336-.416 1.14 1.14 0 00-.464-.24 1.56 1.56 0 00-.496-.08c-.17 0-.347.027-.528.08-.17.043-.326.123-.464.24a1.18 1.18 0 00-.336.416c-.086.17-.128.384-.128.64v1.568c0 .256.037.475.112.656.085.17.197.315.336.432.138.107.293.187.464.24.17.043.352.064.544.064.17 0 .336-.021.496-.064.17-.053.325-.133.464-.24a1.36 1.36 0 00.336-.432c.085-.181.128-.4.128-.656v-1.568zm6.505-1.488l-.096 1.552a19.328 19.328 0 01-.16 1.6c-.075.523-.219.97-.432 1.344h3.072V13.76h-2.384zm-3.616 4.512h.304c.106 0 .208-.005.304-.016.288-.213.506-.539.656-.976.16-.448.277-.955.352-1.52.074-.576.122-1.179.144-1.808l.096-1.872h6.112v6.176h.752v3.808h-1.808V20h-5.104v2.064h-1.808v-3.792zm16.88-1.04c0 .864-.234 1.563-.704 2.096-.47.523-1.162.784-2.08.784-.277 0-.608-.027-.992-.08a3.492 3.492 0 01-1.136-.384v3.52h-2.032V12.096h1.872l.16.72c.448-.277.87-.48 1.264-.608.395-.128.73-.192 1.008-.192.853 0 1.504.235 1.952.704.459.47.688 1.2.688 2.192v2.32zm-2.064-2.144c0-.459-.096-.768-.288-.928a1.022 1.022 0 00-.704-.256 1.68 1.68 0 00-.432.064c-.15.032-.31.08-.48.144a4.25 4.25 0 00-.496.224c-.16.075-.31.16-.448.256v3.152c.363.17.678.288.944.352.267.053.523.08.768.08.31.01.576-.075.8-.256.224-.181.336-.496.336-.944v-1.888zm10.342 2.096c0 .49-.101.917-.304 1.28a2.688 2.688 0 01-.784.912c-.32.235-.688.41-1.104.528a4.694 4.694 0 01-1.28.176c-.448 0-.88-.059-1.296-.176a3.61 3.61 0 01-1.12-.528 2.763 2.763 0 01-.768-.912c-.192-.363-.288-.79-.288-1.28v-2.288c0-.49.096-.917.288-1.28.203-.363.464-.661.784-.896a3.422 3.422 0 011.12-.544 4.487 4.487 0 011.296-.192c.47 0 .912.064 1.328.192.427.117.795.299 1.104.544.32.245.571.555.752.928.182.363.272.79.272 1.28v2.256zm-2.032-1.936c0-.256-.042-.47-.128-.64a1.183 1.183 0 00-.336-.416 1.14 1.14 0 00-.464-.24 1.56 1.56 0 00-.496-.08c-.17 0-.346.027-.528.08-.17.043-.325.123-.464.24a1.18 1.18 0 00-.336.416c-.085.17-.128.384-.128.64v1.568c0 .256.038.475.112.656.086.17.198.315.336.432.139.107.294.187.464.24.171.043.352.064.544.064a1.9 1.9 0 00.496-.064c.171-.053.326-.133.464-.24.139-.117.251-.261.336-.432.086-.181.128-.4.128-.656v-1.568zm5.61-2.32c.106-.085.229-.16.367-.224.139-.064.283-.117.432-.16.15-.053.299-.09.448-.112.15-.021.288-.032.416-.032.459 0 .875.064 1.248.192.384.117.71.299.976.544.267.245.475.56.624.944.15.384.224.832.224 1.344v1.664c0 .49-.096.923-.288 1.296a2.88 2.88 0 01-.768.944c-.32.245-.693.432-1.12.56a4.492 4.492 0 01-1.328.192c-.512 0-.981-.064-1.408-.192a3.265 3.265 0 01-1.104-.56 2.707 2.707 0 01-.704-.944c-.16-.373-.24-.805-.24-1.296v-1.92c0-.565.022-1.077.064-1.536a8.03 8.03 0 01.208-1.248c.096-.373.224-.71.384-1.008.17-.31.379-.597.624-.864A3.05 3.05 0 0180.2 10a7.53 7.53 0 01.704-.416c.246-.128.496-.245.752-.352.267-.107.528-.208.784-.304.32-.128.608-.24.864-.336.256-.096.539-.219.848-.368l.672 1.632-.528.224c-.15.064-.293.123-.432.176l-.384.16c-.117.043-.245.09-.384.144-.32.128-.63.261-.928.4a3.8 3.8 0 00-.784.464c-.234.17-.432.373-.592.608a2.22 2.22 0 00-.304.848l.064.048zm2.72 2.752c0-.501-.145-.859-.433-1.072a1.554 1.554 0 00-1.008-.336c-.17 0-.346.032-.528.096a1.21 1.21 0 00-.464.272 1.32 1.32 0 00-.336.448 1.53 1.53 0 00-.128.656v1.088c0 .256.038.47.112.64.086.17.192.315.32.432.128.107.278.187.448.24a2.234 2.234 0 001.072 0c.182-.053.342-.133.48-.24.139-.117.25-.261.336-.432.086-.17.128-.384.128-.64V15.68zM91.68 20v-3.168h-2.912V20h-2v-7.92h2v3.04h2.912v-3.04h2.048V20H91.68zm5.602-3.36v.256c0 .235.038.437.112.608.086.17.192.31.32.416.139.107.294.187.464.24.17.053.352.08.544.08.224 0 .502-.032.832-.096.33-.075.683-.261 1.056-.56l1.12 1.392c-.245.235-.49.427-.736.576-.245.139-.49.25-.736.336a3.592 3.592 0 01-.752.144 5.81 5.81 0 01-.752.048c-.47 0-.917-.059-1.344-.176a3.414 3.414 0 01-1.104-.528 2.763 2.763 0 01-.768-.912c-.192-.363-.288-.795-.288-1.296V15.12c0-.49.086-.928.256-1.312.182-.395.427-.725.736-.992.31-.267.667-.47 1.072-.608A4.026 4.026 0 0198.627 12c.49 0 .944.07 1.36.208.416.139.774.341 1.072.608.299.256.534.576.704.96.171.384.256.821.256 1.312v1.552h-4.736zm2.704-1.488c0-.448-.133-.773-.4-.976a1.466 1.466 0 00-.944-.32c-.373 0-.693.117-.96.352-.266.235-.4.57-.4 1.008v.096h2.704v-.16zm5.421 1.488v.256c0 .235.038.437.112.608.086.17.192.31.32.416.139.107.294.187.464.24.171.053.352.08.544.08.224 0 .502-.032.832-.096.331-.075.683-.261 1.056-.56l1.12 1.392c-.245.235-.49.427-.736.576-.245.139-.49.25-.736.336a3.595 3.595 0 01-.752.144 5.805 5.805 0 01-.752.048c-.469 0-.917-.059-1.344-.176a3.414 3.414 0 01-1.104-.528 2.763 2.763 0 01-.768-.912c-.192-.363-.288-.795-.288-1.296V15.12c0-.49.086-.928.256-1.312.182-.395.427-.725.736-.992a3.23 3.23 0 011.072-.608 4.03 4.03 0 011.312-.208c.491 0 .944.07 1.36.208.416.139.774.341 1.072.608.299.256.534.576.704.96.171.384.256.821.256 1.312v1.552h-4.736zm2.704-1.488c0-.448-.133-.773-.4-.976a1.464 1.464 0 00-.944-.32c-.373 0-.693.117-.96.352-.266.235-.4.57-.4 1.008v.096h2.704v-.16z" fill="#fff"/><path d="M33 21.6h77.784v.8H33v-.8zM10 124l5.774-10H4.226L10 124zM9 60v55h2V60H9z" fill="#fff"/></svg>