<svg xmlns="http://www.w3.org/2000/svg" width="35" height="35"><path d="M26.61 23.152c-1.145-1.129-2.57-1.129-3.708 0-.867.86-1.734 1.72-2.586 2.594-.234.238-.43.293-.714.133-.559-.309-1.157-.555-1.696-.89-2.511-1.583-4.617-3.614-6.484-5.9-.922-1.136-1.746-2.35-2.32-3.722-.118-.277-.098-.457.128-.683.868-.84 1.711-1.7 2.567-2.559 1.187-1.191 1.187-2.59-.008-3.793-.68-.684-1.355-1.355-2.031-2.039-.7-.7-1.395-1.406-2.098-2.098-1.144-1.113-2.574-1.113-3.71.008-.872.86-1.712 1.738-2.598 2.586C.527 7.566.113 8.52.023 9.637c-.136 1.812.309 3.523.934 5.191 1.281 3.453 3.234 6.52 5.602 9.332 3.199 3.8 7.015 6.809 11.476 8.977 2.012.976 4.094 1.726 6.36 1.851 1.558.086 2.914-.304 4-1.523.742-.828 1.578-1.586 2.367-2.38 1.164-1.179 1.172-2.608.015-3.773-1.386-1.39-2.777-2.777-4.168-4.16zm-1.391-5.804l2.687-.457a12.021 12.021 0 00-3.36-6.485 11.94 11.94 0 00-6.843-3.414l-.379 2.703a9.25 9.25 0 015.301 2.64 9.275 9.275 0 012.594 5.013zm4.203-11.68A19.825 19.825 0 0018.059 0l-.38 2.703A17.173 17.173 0 0127.5 7.598a17.183 17.183 0 014.813 9.285L35 16.422a19.971 19.971 0 00-5.578-10.754zm0 0" id="surface1" fill="#fff"/></svg>