<svg width="31" height="31" fill="none" xmlns="http://www.w3.org/2000/svg"><path d="M30.483 10.333H27.9V6.717a.517.517 0 00-.517-.517h-1.55V.517A.517.517 0 0025.317 0H5.683a.517.517 0 00-.516.517V6.2h-1.55a.517.517 0 00-.517.517v3.616H.517A.517.517 0 000 10.85v14.467c0 .285.231.516.517.516h4.65v4.65c0 .286.231.517.516.517h19.634a.517.517 0 00.516-.517v-4.65h4.65a.517.517 0 00.517-.516V10.85a.517.517 0 00-.517-.517zm-4.65-3.1h1.034v3.1h-1.034v-3.1zM6.2 1.033h18.6v9.3H6.2v-9.3zm-2.067 6.2h1.034v3.1H4.133v-3.1zm1.034 15.5H4.65v-1.55h.517v1.55zM24.8 29.967H6.2v-8.784h18.6v8.784zm5.167-5.167h-4.134v-1.033h1.034a.517.517 0 00.516-.517v-2.583a.517.517 0 00-.516-.517H4.133a.517.517 0 00-.516.517v2.583c0 .285.231.517.516.517h1.034V24.8H1.033V11.367h28.934V24.8zm-4.134-2.067v-1.55h.517v1.55h-.517z" fill="#000"/><path d="M22.733 22.733H11.366v1.034h11.367v-1.034zm0 2.067H8.267v1.033h14.466V24.8zm-3.1 2.067H8.267V27.9h11.366v-1.033zm-9.3-4.134H8.267v1.034h2.066v-1.034zM6.716 12.4H2.583a.517.517 0 00-.517.517v2.066c0 .286.232.517.517.517h4.133a.517.517 0 00.517-.517v-2.066a.517.517 0 00-.517-.517zM6.2 14.467H3.1v-1.034h3.1v1.034zm7.233 0H8.267V15.5h5.166v-1.033zm2.067 0h-1.033V15.5H15.5v-1.033z" fill="#000"/></svg>