<svg width="89" height="63" fill="none" xmlns="http://www.w3.org/2000/svg"><path d="M9.675 44.56a3.575 3.575 0 00-1.38-.74 5.04 5.04 0 00-1.44-.22c-.307 0-.614.047-.92.14-.307.08-.58.22-.82.42-.24.2-.44.46-.6.78-.147.32-.22.707-.22 1.16v4.02c0 .453.073.84.22 1.16.16.307.36.56.6.76.253.2.526.347.82.44.306.093.613.14.92.14.466 0 .933-.067 1.4-.2.48-.133.96-.387 1.44-.76l1.3 2.12c-.507.427-1.127.76-1.86 1-.734.24-1.507.36-2.32.36a6.69 6.69 0 01-1.92-.28 5.476 5.476 0 01-1.68-.82 4.426 4.426 0 01-1.2-1.38c-.307-.56-.46-1.213-.46-1.96v-5.16c0-.733.146-1.373.44-1.92.306-.56.7-1.027 1.18-1.4a5.233 5.233 0 011.68-.84 6.69 6.69 0 011.92-.28c.8 0 1.566.107 2.3.32a4.923 4.923 0 011.92 1.02l-1.32 2.12z" fill="#000"/><path d="M51.057 6.312c12.56-5.032 26.822 1.07 31.854 13.631 5.033 12.56-1.07 26.822-13.63 31.855-12.561 5.032-26.823-1.071-31.855-13.631s1.07-26.823 13.631-31.855z" stroke="#E4E4E4" stroke-width="8"/><path d="M18.541 44.427l7.315-9.306 4.402 10.988-11.717-1.682z" fill="#000"/></svg>