<svg width="88" height="61" fill="none" xmlns="http://www.w3.org/2000/svg"><g opacity=".4" clip-path="url(#clip0_59_18)" fill="#fff"><path fill-rule="evenodd" clip-rule="evenodd" d="M87.992 21.657s-2.116-2.427-2.116-5.132c0-2.705 1.999-5.546 1.999-5.546-4.17.671-8.414.738-12.602.198a55.5 55.5 0 00.41 3.795c.05.091.089.188.116.288.05.204.037.418-.04.612a1.35 1.35 0 01-.567.622c-.317.18-.658.311-1.013.391a6.414 6.414 0 00-2.25 1.027 140.415 140.415 0 01-.126 3.434c4.734 1.459 15.01 1.063 16.166.31m-87.961.001s2.12-2.25 2.12-4.952c0-2.7-1.999-5.55-1.999-5.55 4.192.675 8.46.739 12.67.189a58.41 58.41 0 01-.41 3.714c-.054.378.23.756.63 1.206.232.292.545.509.9.621a6.43 6.43 0 011.675.67c.027 1.327.072 2.634.135 3.922-4.92 1.3-14.596.91-15.721.18zm71.682-7.081c-.188 19.131-2.173 34.247-26.256 45.64L43.782 61l-1.652-.783C17.912 48.765 16.026 33.784 15.87 14.589c1.17 0 2.345-.058 3.524-.099.14 18.695 1.741 32.29 24.389 42.945 22.656-10.66 24.25-24.259 24.385-42.967 1.179.045 2.353.08 3.524.108z"/><path fill-rule="evenodd" clip-rule="evenodd" d="M15.549 14.598c0 .87 0 1.733.036 2.584a6.805 6.805 0 00-1.589-.607c-.594-.149-1.35-.986-1.264-1.35a.936.936 0 01.405-.451c.285-.117.591-.178.9-.18h1.516l-.004.004zm59.922.653c.117.32.126.95-1.35 1.32a6.75 6.75 0 00-2.147.944c0-.967.036-1.949.05-2.935.337 0 1.732.054 2.056.04a2.29 2.29 0 01.9.177c.214.086.388.25.487.459l.004-.005zm-5.63-3.66c0 .081-.023.126-.05.144a.362.362 0 01-.153 0h-.211a.351.351 0 01-.158-.036c-.027 0-.036-.067-.031-.144l.166-2.565c0-.077 0-.127.05-.14a.36.36 0 01.157 0h.212a.333.333 0 01.148.031c.027 0 .04.068.036.149l-.166 2.561zm-2.786 0a.35.35 0 01-.158-.036c-.027 0-.036-.063-.031-.144l.162-2.566c0-.076 0-.126.054-.14a.36.36 0 01.157 0h.212a.32.32 0 01.149.037c.026 0 .04.063.035.144l-.058.855h.351a1.8 1.8 0 01.522.104.9.9 0 01.338.216c.084.085.145.19.175.306a1.166 1.166 0 01-.04.725.824.824 0 01-.207.301.899.899 0 01-.37.203c-.18.053-.37.07-.558.05l-.733-.055zm.792-1.35h-.301l-.055.828h.284a.617.617 0 00.45-.094.45.45 0 00.149-.333.356.356 0 00-.104-.288.603.603 0 00-.427-.1l.004-.013zm-2.016-.252a.939.939 0 01.27.121.62.62 0 01.256.383.878.878 0 010 .216.784.784 0 01-.373.648 1.062 1.062 0 01-.37.135 1.919 1.919 0 01-.94-.072c-.15-.05-.293-.12-.423-.211l-.027-.023a.072.072 0 01-.027-.036.097.097 0 010-.054.17.17 0 01.027-.076l.117-.212c.027-.05.054-.072.081-.063a.26.26 0 01.094.032c.109.055.222.102.338.14.11.034.223.056.338.062a.611.611 0 00.4-.085.347.347 0 00.144-.261.31.31 0 00-.135-.293.976.976 0 00-.45-.113h-.225c-.076 0-.126 0-.14-.05a.356.356 0 010-.152v-.086a.338.338 0 01.032-.153c0-.027.068-.04.149-.036h.252a.828.828 0 00.247 0 .392.392 0 00.162-.08.315.315 0 00.09-.118.512.512 0 00.032-.144.315.315 0 00-.027-.166.275.275 0 00-.095-.108.374.374 0 00-.144-.059.742.742 0 00-.17-.022c-.116-.01-.231 0-.343.027-.118.025-.234.06-.347.103a.108.108 0 01-.053 0 .086.086 0 01-.05-.031.355.355 0 01-.045-.122.603.603 0 010-.126.355.355 0 01.252-.315 1.56 1.56 0 01.64-.077c.131.01.262.03.39.063.12.028.235.077.338.144a.707.707 0 01.23.248c.058.11.083.236.072.36a.797.797 0 01-.149.414.703.703 0 01-.423.261l.005-.013zm-3.889.121l-.058.397.193-.352 1.139-1.535a.775.775 0 01.121-.121.26.26 0 01.167-.045h.23a.337.337 0 01.152.031c.027 0 .04.068.036.149l-.14 2.561c0 .081 0 .13-.049.144a.36.36 0 01-.157 0h-.212a.366.366 0 01-.148-.031c-.027 0-.04-.068-.036-.149l.085-1.589v-.207c0-.05 0-.099.023-.14.022-.04 0-.067 0-.071l-.18.355-1.202 1.616a.45.45 0 01-.09.09.177.177 0 01-.13.036h-.252a.334.334 0 01-.149-.031c-.031 0-.04-.068-.04-.144l.139-2.566c0-.081.023-.126.054-.14a.261.261 0 01.149 0h.216a.274.274 0 01.153.032c.027 0 .036.063.031.144l-.045 1.566zm-1.8-1.251l-.104 2.156c0 .081 0 .126-.05.144a.353.353 0 01-.152 0h-.212a.288.288 0 01-.153-.031c-.027 0-.04-.063-.036-.144l.1-2.161-.761-.036c-.077 0-.126 0-.14-.05a.333.333 0 010-.148v-.185a.338.338 0 01.032-.153c0-.027.067-.04.144-.036l2.124.1c.081 0 .126 0 .144.049a.361.361 0 010 .157v.18a.333.333 0 01-.032.149c0 .027-.067.04-.148.036l-.756-.027zm-2.7-.698c.19.003.378.036.557.1a.968.968 0 01.356.21.73.73 0 01.19.307c.036.12.053.247.049.374a1.268 1.268 0 01-.086.405.841.841 0 01-.225.32 1.007 1.007 0 01-.392.202 1.83 1.83 0 01-.571.054h-.293l-.031.774c0 .081 0 .13-.05.144a.34.34 0 01-.153 0h-.211a.377.377 0 01-.158-.031c-.027 0-.036-.063-.036-.144l.108-2.566c0-.081 0-.126.05-.144a.423.423 0 01.157 0l.738-.005zm-.154 1.445c.106.007.212-.003.315-.027a.531.531 0 00.203-.099.365.365 0 00.113-.148.523.523 0 00.036-.19.396.396 0 00-.122-.328.716.716 0 00-.45-.13h-.297l-.036.9h.13l.108.022zm-2.7.135v.684l1.139.036c.08 0 .13 0 .144.046a.355.355 0 010 .157v.149a.378.378 0 01-.027.148c-.018.027-.068.04-.149.04l-1.544-.053a.315.315 0 01-.157-.027c-.027 0-.04-.068-.036-.144l.085-2.57c0-.077 0-.127.045-.14a.293.293 0 01.158 0l1.548.05c.077 0 .126 0 .14.044a.355.355 0 010 .158v.148a.311.311 0 01-.027.149c0 .027-.068.04-.144.04l-1.143-.04v.608l.9.027c.08 0 .126 0 .144.05a.336.336 0 010 .157v.144a.347.347 0 01-.027.148c0 .032-.068.04-.149.04l-.9-.049zM53.17 10.75c0 .076 0 .126-.045.144a.424.424 0 01-.153 0h-.216a.297.297 0 01-.153-.027c-.027 0-.036-.068-.036-.144l.05-2.197-1.211-.027-.05 2.192c0 .081 0 .13-.049.144a.296.296 0 01-.149.023h-.211a.363.363 0 01-.158-.032c-.027 0-.04-.063-.04-.144l.063-2.566c0-.08 0-.126.045-.144a.342.342 0 01.157 0l2.026.045a.387.387 0 01.153.027c.027 0 .04.068.04.144l-.063 2.562zm-2.862-2.39a.409.409 0 01-.09.252.086.086 0 01-.113 0 1.925 1.925 0 00-.373-.154 1.291 1.291 0 00-.374-.054 1.143 1.143 0 00-.36.05.855.855 0 00-.292.166.828.828 0 00-.194.297 1.148 1.148 0 00-.077.45c-.007.153.014.306.064.45a.9.9 0 00.189.311.663.663 0 00.274.18.902.902 0 00.329.063c.137.001.274-.01.41-.031a1.62 1.62 0 00.39-.122.162.162 0 01.09 0 .122.122 0 01.077.072l.086.19a.127.127 0 010 .112.207.207 0 01-.077.09 1.56 1.56 0 01-.508.194c-.17.034-.344.05-.518.05a1.747 1.747 0 01-.58-.104 1.25 1.25 0 01-.45-.284 1.273 1.273 0 01-.302-.482 1.801 1.801 0 01-.108-.67c0-.21.039-.417.112-.613a1.35 1.35 0 01.302-.472 1.39 1.39 0 01.482-.302 2.104 2.104 0 01.968-.072c.109.01.216.036.319.077a.67.67 0 01.238.148c.056.06.087.139.086.22V8.36zm-4.393.724h.333l.594-1.04a.297.297 0 01.086-.094.342.342 0 01.157-.027h.28a.17.17 0 01.143.05c0 .03 0 .08-.031.139l-.738 1.21.868 1.315a.13.13 0 010 .13.095.095 0 01-.099.06h-.364a.528.528 0 01-.13 0 .198.198 0 01-.109-.1l-.612-.986a.288.288 0 00-.094-.099.27.27 0 00-.13-.027h-.154v1.05c0 .08 0 .13-.045.143a.328.328 0 01-.153.023h-.211a.372.372 0 01-.153-.023c-.032 0-.045-.067-.045-.144v-2.57c0-.077 0-.126.04-.144a.414.414 0 01.158-.023h.211a.32.32 0 01.153.027c.027 0 .045.063.04.144l.005.986zm-2.925.486c-.077 0-.126 0-.144-.045a.406.406 0 010-.153v-.09a.315.315 0 01.027-.157c0-.027.063-.041.144-.041h1.17a.81.81 0 00-.086-.338.617.617 0 00-.189-.211.732.732 0 00-.256-.113 1.386 1.386 0 00-.306-.031c-.117 0-.233.012-.347.036a1.27 1.27 0 00-.279.099l-.099.04c-.022 0-.045 0-.076-.058a.37.37 0 01-.05-.095.244.244 0 01-.022-.13.287.287 0 01.094-.225.64.64 0 01.23-.13 1.21 1.21 0 01.292-.064h.28a1.85 1.85 0 01.58.09c.168.053.322.144.45.266.126.128.224.282.288.45.071.213.105.437.099.662.005.232-.032.464-.108.684-.068.18-.169.344-.297.486a1.219 1.219 0 01-.45.284c-.17.063-.35.095-.531.094h-.248a1.896 1.896 0 01-.517-.135 1.267 1.267 0 01-.23-.13.18.18 0 01-.067-.082.118.118 0 010-.103l.094-.194c.027-.05.054-.08.077-.085.035 0 .069.01.099.027.113.053.23.097.35.13.128.03.257.045.388.046a.972.972 0 00.279-.041.721.721 0 00.44-.374.901.901 0 00.086-.35L42.99 9.57zm-4.05.113l-.032.396.17-.365 1.036-1.611a.65.65 0 01.112-.13.23.23 0 01.162-.055h.23a.329.329 0 01.157 0c.032 0 .045.063.045.144l.032 2.566c0 .081 0 .126-.04.144a.315.315 0 01-.158.027h-.212c-.049.01-.1.01-.148 0-.032 0-.045-.067-.045-.144V8.71a.543.543 0 010-.067l-.153.365-1.094 1.692a.815.815 0 01-.085.095.174.174 0 01-.13.045h-.253a.358.358 0 01-.148-.023c-.032 0-.046-.063-.05-.144l-.023-2.57c0-.081 0-.13.045-.144a.288.288 0 01.149-.027h.207a.396.396 0 01.158.022c.027 0 .04.063.04.144l.027 1.585zm.643-1.841a1.026 1.026 0 01-.54-.135.82.82 0 01-.18-.135.574.574 0 01-.122-.145.166.166 0 01-.04-.094c0-.032 0-.063.072-.104l.153-.117c.05-.04.09-.05.117-.036a.346.346 0 01.094.081c.06.072.13.134.207.185a.45.45 0 00.45 0 .971.971 0 00.203-.19.257.257 0 01.09-.085.21.21 0 01.121.032l.153.112c.054.04.077.072.077.104a.207.207 0 01-.036.099c-.035.051-.074.1-.117.144a.71.71 0 01-.18.14 1.08 1.08 0 01-.54.148l.018-.004zM34.77 9.48a1.78 1.78 0 01.077-.576 1.35 1.35 0 01.266-.49c.124-.145.278-.261.45-.343.21-.09.437-.137.666-.14a1.72 1.72 0 01.67.109 1.35 1.35 0 01.76.797 1.863 1.863 0 01.028 1.147c-.053.18-.144.348-.266.491a1.351 1.351 0 01-.45.342 1.67 1.67 0 01-.666.14 1.72 1.72 0 01-.67-.108 1.35 1.35 0 01-.739-.797 1.737 1.737 0 01-.126-.572zm2.368-.054a1.309 1.309 0 00-.063-.382.855.855 0 00-.167-.302.657.657 0 00-.274-.203.864.864 0 00-.387-.067.9.9 0 00-.383.085.67.67 0 00-.26.212.823.823 0 00-.154.315c-.034.125-.05.254-.045.383.002.128.023.256.063.378a.9.9 0 00.167.306.685.685 0 00.274.198.85.85 0 00.383.067.899.899 0 00.382-.085.685.685 0 00.266-.212.824.824 0 00.153-.315 1.3 1.3 0 00.045-.378zm-2.885 1.35c0 .082 0 .131-.04.145a.334.334 0 01-.15.031h-.215a.426.426 0 01-.158 0c-.027 0-.04-.063-.045-.144L33.61 9.76l-1.25.045.053 1.045c0 .08 0 .126-.04.144a.366.366 0 01-.149.031h-.211a.32.32 0 01-.162 0c-.027 0-.041-.063-.046-.14l-.09-2.565c0-.081 0-.13.037-.149.05-.02.103-.03.157-.027h.212a.32.32 0 01.148 0c.032 0 .05.063.05.144l.036.982 1.25-.045-.035-.982c0-.08 0-.13.036-.144a.324.324 0 01.153-.031h.216c.049-.01.1-.01.148 0 .032 0 .05.063.05.144l.08 2.566zm-4.24-1.003h-.341l.04.828h.301c.16.01.32-.036.45-.13a.382.382 0 00.117-.325.397.397 0 00-.027-.148.288.288 0 00-.094-.117.477.477 0 00-.167-.072 1.152 1.152 0 00-.279-.032v-.004zm-.387-1.018v.532h.369c.18-.01.36.005.536.045a.98.98 0 01.364.17.684.684 0 01.207.275.9.9 0 01.077.356.955.955 0 01-.212.67 1.01 1.01 0 01-.346.24c-.176.065-.362.1-.55.103l-.773.031a.395.395 0 01-.162 0c-.027 0-.04-.063-.045-.144l-.108-2.566c0-.08 0-.126.036-.144a.364.364 0 01.157-.031l1.57-.068c.082 0 .131 0 .15.036.019.05.028.104.026.158v.144c.01.05.01.102 0 .153 0 .031-.063.045-.144.05l-1.152-.01zm-2.38 1.256l.03.68 1.14-.054c.08 0 .13 0 .143.036.025.047.037.1.037.153v.149a.27.27 0 010 .148c0 .032-.059.05-.14.054l-1.557.077a.36.36 0 01-.158 0c-.031 0-.045-.063-.05-.144l-.13-2.557c0-.081 0-.13.036-.149a.337.337 0 01.153-.031l1.544-.077c.081 0 .13 0 .148.036a.36.36 0 01.032.158v.144a.356.356 0 010 .153c0 .027-.063.045-.144.05l-1.139.053.032.608.9-.045c.08 0 .126 0 .144.036a.29.29 0 01.031.153v.149c.012.049.012.1 0 .148 0 .032-.063.05-.14.054l-.913.018zm-2.935-.985v.517a4.479 4.479 0 01-.04.504 4.112 4.112 0 01-.082.45c-.03.126-.071.248-.126.365l1.121-.058-.099-1.801-.774.023zm-1.21 2.066c0-.081 0-.13.035-.149a.373.373 0 01.153-.031h.135c.07-.122.127-.252.167-.388a3.32 3.32 0 00.108-.49c.027-.199.043-.399.05-.599v-.81a.112.112 0 010-.059.108.108 0 01.058-.036.589.589 0 01.112 0l1.526-.085a.292.292 0 01.157 0c.027 0 .041.063.046.14l.121 2.192h.203a.336.336 0 01.148 0c.032 0 .05.063.054.144l.05.9c0 .077 0 .126-.036.144a.363.363 0 01-.149.031h-.103a.421.421 0 01-.158 0c-.027 0-.045-.063-.05-.139l-.026-.522-2.098.117.027.522c0 .076 0 .126-.031.144a.365.365 0 01-.158.032h-.099a.356.356 0 01-.153 0c-.031 0-.05-.063-.054-.14l-.036-.918zm-.757-.563c-.063.18-.121.333-.171.45a1.8 1.8 0 01-.166.324.717.717 0 01-.207.198.664.664 0 01-.289.077c-.08.009-.162.009-.243 0a.633.633 0 01-.175-.04.371.371 0 01-.09-.055c-.032-.022-.032-.072 0-.14l.054-.21a.303.303 0 01.05-.109h.328a.23.23 0 00.153-.063.607.607 0 00.085-.193l-1.125-1.85a.202.202 0 01-.036-.15c0-.044.05-.071.126-.076l.365-.022a.225.225 0 01.117 0c.04.023.071.057.09.099l.747 1.422.365-1.49a.164.164 0 01.063-.108.238.238 0 01.112-.031h.32a.189.189 0 01.094 0 .099.099 0 01.045.04.111.111 0 010 .068.275.275 0 010 .08l-.612 1.779zM20.4 9.134a.446.446 0 010 .13.355.355 0 01-.059.126c0 .032-.058.036-.112 0a1.84 1.84 0 00-.387-.126 1.449 1.449 0 00-.374-.027 1.11 1.11 0 00-.355.081.747.747 0 00-.275.19.801.801 0 00-.175.31c-.04.146-.053.299-.041.45.004.155.037.308.099.45.049.113.12.214.211.297a.764.764 0 00.284.158c.108.032.22.044.333.036.137-.007.273-.028.405-.063.134-.033.263-.084.383-.153a.175.175 0 01.094 0 .117.117 0 01.077.067l.103.18a.145.145 0 010 .113.207.207 0 01-.072.094 1.584 1.584 0 01-.49.234c-.168.046-.34.075-.513.086a1.77 1.77 0 01-.585-.054 1.246 1.246 0 01-.491-.275 1.291 1.291 0 01-.338-.45 1.833 1.833 0 01-.157-.662c-.017-.209.005-.42.063-.62a1.302 1.302 0 01.715-.829 1.8 1.8 0 01.63-.153h.33c.11.003.218.021.323.054a.67.67 0 01.248.126.332.332 0 01.13.23H20.4zm51.34-4.182a.374.374 0 00.12.333.76.76 0 00.41.126l.293.022.058-.864-.279-.022a1.245 1.245 0 00-.225 0 .59.59 0 00-.184.054.36.36 0 00-.135.126.512.512 0 00-.059.225zm1.295-.9c.05 0 .097.012.14.035.027 0 .036.063.031.144l-.166 2.562c0 .08-.023.126-.05.14a.23.23 0 01-.144 0h-.198c-.05 0-.1-.013-.144-.037-.022 0-.036-.067-.027-.144l.054-.869-.283-.022a.162.162 0 00-.108.022.318.318 0 00-.077.09l-.45.766a.203.203 0 01-.099.09.45.45 0 01-.162 0h-.306a.14.14 0 01-.121-.068c0-.036 0-.094.049-.162l.594-.882a.712.712 0 01-.342-.37 1.18 1.18 0 01-.068-.49.901.901 0 01.131-.45.87.87 0 01.28-.266c.117-.064.245-.106.377-.126.142-.015.286-.015.428 0l.661.036zm-4.298 1.422l-.058.396.184-.351 1.085-1.513a.59.59 0 01.112-.121.212.212 0 01.158-.04h.211c.05 0 .1.013.144.035.027 0 .036.068.032.149l-.162 2.561c0 .081-.023.126-.05.14a.324.324 0 01-.148 0h-.194a.293.293 0 01-.14-.036c-.026 0-.035-.068-.03-.144l.098-1.59v-.207c0-.049 0-.098.023-.139.022-.04 0-.067 0-.067l-.171.35-1.139 1.599-.085.085a.166.166 0 01-.126.036h-.234a.301.301 0 01-.14-.031c-.027 0-.036-.068-.032-.149l.163-2.561c0-.081 0-.126.05-.14a.315.315 0 01.143 0h.198c.05 0 .1.012.144.036 0 0 .032.063.027.144l-.063 1.558zM66.758 3.6c.175.01.349.046.513.108a.971.971 0 01.333.225c.08.089.137.196.166.31.033.123.045.249.037.375a1.268 1.268 0 01-.086.405.801.801 0 01-.22.31.9.9 0 01-.37.194 1.499 1.499 0 01-.53.045h-.136l-.14-.023-.044.775c0 .08-.023.126-.05.14a.288.288 0 01-.14 0h-.197a.337.337 0 01-.144-.037c-.027 0-.036-.067-.032-.148l.153-2.562c0-.08 0-.126.045-.14a.324.324 0 01.149 0l.693.023zm-.18 1.44a.87.87 0 00.297 0 .53.53 0 00.189-.094.352.352 0 00.108-.148.585.585 0 00.04-.185.418.418 0 00-.108-.333.643.643 0 00-.414-.144h-.279l-.054.9.122.023.099-.018zm-4.091-.265a1.99 1.99 0 01.117-.567c.064-.167.16-.32.283-.45.126-.134.28-.239.45-.306.2-.075.414-.103.626-.081.215.007.426.062.616.162.164.087.307.208.42.355.108.15.186.32.229.5a2.052 2.052 0 01-.077 1.13c-.064.167-.16.32-.283.45a1.22 1.22 0 01-.45.302 1.467 1.467 0 01-.63.085 1.413 1.413 0 01-.613-.162 1.306 1.306 0 01-.648-.855 2.073 2.073 0 01-.04-.567v.004zm2.205.14c.01-.129 0-.257-.027-.383a.989.989 0 00-.13-.315.685.685 0 00-.243-.225.873.873 0 00-.716-.045.684.684 0 00-.261.189.934.934 0 00-.167.301c-.04.121-.062.247-.067.374-.01.128 0 .257.027.383a.9.9 0 00.13.32.712.712 0 00.239.224c.11.06.231.093.355.1a.833.833 0 00.36-.055.711.711 0 00.266-.193.856.856 0 00.162-.297c.041-.124.065-.253.072-.383v.005zm-3.119-1.067l-.108 2.156c0 .081 0 .13-.045.144a.32.32 0 01-.144 0h-.194a.333.333 0 01-.148-.031c-.023 0-.036-.068-.031-.149l.108-2.156-.694-.04c-.076 0-.117-.023-.13-.055a.336.336 0 010-.148v-.185a.338.338 0 01.031-.153c0-.027.063-.04.135-.036l1.98.113c.073 0 .118.022.131.054.01.052.01.105 0 .157v.18c0 .051-.01.102-.031.149 0 .027-.063.04-.135.036l-.725-.036zm-1.436 2.08v.126a.153.153 0 01-.13.036h-.288a.238.238 0 01-.113-.032.193.193 0 01-.058-.108l-.13-.55-1.004-.053-.217.504a.194.194 0 01-.067.103.243.243 0 01-.113 0h-.252a.175.175 0 01-.126-.045.152.152 0 010-.13l1.108-2.606a.307.307 0 01.072-.104.149.149 0 01.094-.027h.18a.14.14 0 01.095.036.28.28 0 01.063.108l.886 2.741zm-1.08-1.73l-.094-.45-.13.45-.262.699.684.036-.198-.734zm-2.426-1.183c.177.003.352.035.518.095a.9.9 0 01.337.216.771.771 0 01.176.306c.032.122.046.247.04.373-.003.139-.03.275-.076.405a.846.846 0 01-.212.32c-.106.092-.23.161-.364.203a1.593 1.593 0 01-.531.054h-.135l-.117-.036-.032.778c0 .081 0 .126-.045.144a.36.36 0 01-.14 0h-.197a.333.333 0 01-.149-.031s-.036-.068-.031-.149l.099-2.565c0-.077 0-.127.045-.14a.31.31 0 01.148 0l.666.027zm-.144 1.445a.936.936 0 00.293-.027.472.472 0 00.189-.1.31.31 0 00.103-.148.523.523 0 00.036-.189.406.406 0 00-.112-.328.635.635 0 00-.419-.135h-.279l-.036.9h.122l.103.027zm-4.104-.158c.004-.194.039-.387.103-.571.06-.167.152-.32.27-.45a1.35 1.35 0 01.45-.316 1.44 1.44 0 01.626-.099c.215 0 .428.049.621.144.174.081.328.2.45.347.111.146.192.313.239.49.054.188.077.383.067.577a1.978 1.978 0 01-.099.572 1.396 1.396 0 01-.274.45 1.193 1.193 0 01-.45.315 1.44 1.44 0 01-.626.103 1.498 1.498 0 01-.617-.144 1.305 1.305 0 01-.45-.346 1.349 1.349 0 01-.243-.49 2.053 2.053 0 01-.067-.582zm2.21.077a1.454 1.454 0 00-.041-.378.874.874 0 00-.14-.315.702.702 0 00-.243-.216.796.796 0 00-.355-.09.819.819 0 00-.36.063.76.76 0 00-.261.198c-.07.092-.123.196-.158.306a1.45 1.45 0 00-.058.378c-.005.129.008.257.036.383.029.112.076.218.14.315a.68.68 0 00.247.216c.11.056.232.085.355.085a.77.77 0 00.36-.063.657.657 0 00.257-.198.937.937 0 00.157-.306c.039-.122.06-.25.063-.378zm-3.601 0h-.324v.788h.279a.63.63 0 00.423-.104.45.45 0 00.108-.45.253.253 0 00-.077-.122.487.487 0 00-.153-.08.869.869 0 00-.274-.019l.018-.013zm-.302-1.04v.531h.347a1.6 1.6 0 01.495.077.936.936 0 01.329.193.8.8 0 01.18.288c.035.117.052.239.05.36a1.3 1.3 0 01-.06.352.86.86 0 01-.184.306.9.9 0 01-.333.211 1.35 1.35 0 01-.518.072h-.724a.45.45 0 01-.149-.027c-.022 0-.036-.067-.031-.144l.054-2.57c0-.077 0-.126.04-.14a.297.297 0 01.149 0l1.467.036c.072 0 .117 0 .13.045a.344.344 0 010 .158v.144c0 .052-.01.104-.026.153 0 .027-.059.04-.135.04l-1.08-.085zm-.936 2.174a.14.14 0 010 .126.157.157 0 01-.126.04h-.292a.153.153 0 01-.176-.13l-.166-.517H47.99l-.176.513a.193.193 0 01-.063.103.256.256 0 01-.117.023h-.252c-.063 0-.103-.014-.121-.04V5.5l1.021-2.647a.28.28 0 01.068-.108.149.149 0 01.085-.045h.18a.149.149 0 01.095.027.35.35 0 01.068.112l.976 2.674zM48.616 3.84l-.104-.45-.117.45-.23.707h.685l-.234-.707zm-2.962-.55c0 .415-.045.775-.08 1.076a4.116 4.116 0 01-.15.748 1.035 1.035 0 01-.252.45.522.522 0 01-.377.14h-.131a.342.342 0 01-.113-.028h-.036a.087.087 0 01-.031-.027.126.126 0 01-.023-.05.24.24 0 010-.08l.032-.252c0-.059.027-.095.045-.1a.419.419 0 01.13 0 .225.225 0 00.167-.08.774.774 0 00.135-.32 4.65 4.65 0 00.086-.716c.027-.283.044-.661.053-1.125 0-.077 0-.126.036-.144a.36.36 0 01.15 0h1.444a.26.26 0 01.14.027c.03 0 .044.063.044.144v2.566c0 .08 0 .126-.04.144a.27.27 0 01-.14.022h-.202a.338.338 0 01-.144-.022s-.036-.063-.036-.144V3.29h-.707zm-3.907.45a.366.366 0 00.117.311.756.756 0 00.42.095h.292V3.29h-.261a1.201 1.201 0 00-.225 0 .508.508 0 00-.185.072.356.356 0 00-.122.135.45.45 0 00-.049.238l.014.005zm1.238-.985a.342.342 0 01.14 0c.027 0 .04.067.04.144v2.57c0 .081 0 .126-.04.144a.342.342 0 01-.14.023h-.22a.36.36 0 01-.149-.023s-.036-.063-.036-.144v-.855h-.265a.167.167 0 00-.104.027.325.325 0 00-.072.095l-.396.8a.202.202 0 01-.09.095.48.48 0 01-.166 0h-.302a.135.135 0 01-.126-.054c-.023-.04 0-.094.036-.17l.526-.901a.707.707 0 01-.369-.342 1.13 1.13 0 01-.099-.486.964.964 0 01.1-.45.873.873 0 01.265-.293 1.12 1.12 0 01.346-.14c.148-.032.3-.047.45-.045l.671.005zm-2.02 2.737c0 .058.026.103 0 .126a.206.206 0 01-.127.045h-.288a.234.234 0 01-.112-.023.194.194 0 01-.063-.103l-.18-.513-1.03.018-.163.517a.194.194 0 01-.063.104.216.216 0 01-.112.027h-.252c-.064 0-.104 0-.127-.036a.158.158 0 010-.13l.964-2.675a.277.277 0 01.067-.108.153.153 0 01.108-.04h.18a.148.148 0 01.095.027c.03.03.053.067.067.108l1.035 2.656zm-1.17-1.657l-.118-.45-.108.45-.22.716h.684l-.239-.716zm-1.648 1.697c0 .081 0 .126-.036.144a.27.27 0 01-.14.027h-.202a.279.279 0 01-.144 0c-.027 0-.04-.063-.04-.144V4.511l-1.166.031.022 1.049c0 .076 0 .126-.04.144a.396.396 0 01-.14.027h-.247a.288.288 0 01-.144 0c-.027 0-.04-.063-.04-.14l-.06-2.57c0-.077 0-.126.037-.144a.288.288 0 01.148-.027h.198a.288.288 0 01.14 0c.027 0 .04.063.045.144v.981l1.165-.027v-.981c0-.081 0-.13.032-.144a.31.31 0 01.144-.032h.202a.328.328 0 01.14 0c.027 0 .045.063.045.144l.081 2.566zm-4.586.32a.31.31 0 01-.149 0c-.027 0-.04-.063-.04-.144l-.059-2.602c0-.076 0-.126.036-.144a.27.27 0 01.144-.027h.198a.31.31 0 01.144 0c.027 0 .04.063.045.144l.023.855h.31c.167-.01.334.006.495.05a.823.823 0 01.343.18c.09.076.159.176.197.288.087.237.096.495.028.738a.76.76 0 01-.172.32.9.9 0 01-.328.234c-.166.063-.34.096-.518.099l-.697.009zm.652-1.418h-.135l-.157.027.027.833h.274a.61.61 0 00.419-.13.41.41 0 00.117-.343.369.369 0 00-.126-.288.59.59 0 00-.419-.099zm-2.934-.869c0 .414 0 .774-.04 1.076a3.69 3.69 0 01-.122.76.946.946 0 01-.23.451.554.554 0 01-.373.158h-.13a.328.328 0 01-.113-.023.05.05 0 01-.036 0 .073.073 0 01-.036-.027.104.104 0 010-.045.159.159 0 010-.081v-.257c0-.058.022-.094.04-.103a.419.419 0 01.13 0 .247.247 0 00.163-.09.756.756 0 00.121-.324c.042-.222.067-.446.077-.671v-1.13c0-.076 0-.126.036-.144a.31.31 0 01.144-.031l1.445-.063a.31.31 0 01.144 0c.027 0 .04.063.045.144l.099 2.565c0 .077 0 .126-.036.144a.301.301 0 01-.14.032h-.202a.356.356 0 01-.145 0c-.026 0-.04-.063-.04-.144l-.085-2.192-.716-.005zm-1.062 2.251a.135.135 0 010 .13c0 .027-.059.041-.122.046h-.288a.22.22 0 01-.117 0 .224.224 0 01-.067-.104l-.198-.504-1.004.054-.144.522a.235.235 0 01-.059.108.18.18 0 01-.112.027h-.252a.157.157 0 01-.126-.031v-.131l.873-2.7a.233.233 0 01.059-.109.149.149 0 01.094-.036h.18a.126.126 0 01.095 0 .293.293 0 01.072.104l1.116 2.624zM28.993 4.2l-.135-.45-.09.45-.198.752.693-.054-.27-.698zm-2.516-.927c.18-.018.36-.004.535.04a.923.923 0 01.351.18.76.76 0 01.203.288c.046.116.072.24.076.365.01.14-.003.28-.04.414a.901.901 0 01-.185.338.9.9 0 01-.346.238 1.522 1.522 0 01-.522.113h-.275l.036.779c0 .076 0 .126-.031.144a.301.301 0 01-.14.031h-.198a.261.261 0 01-.148 0c-.027 0-.04-.058-.045-.14l-.127-2.565c0-.081 0-.126.032-.144a.252.252 0 01.144-.032l.68-.05zm0 1.45a.841.841 0 00.288-.055.544.544 0 00.18-.117.33.33 0 00.09-.158.698.698 0 00.022-.193.45.45 0 00-.144-.315.62.62 0 00-.45-.09h-.274l.045.9h.121l.122.027zM24 5.108l.036.68L25.1 5.72c.076 0 .121 0 .134.036.023.048.034.1.032.153v.145a.356.356 0 010 .153c0 .031-.058.05-.13.054l-1.44.09a.324.324 0 01-.15 0c-.026 0-.04-.063-.044-.144l-.144-2.562c0-.08 0-.126.031-.144a.297.297 0 01.144-.036l1.44-.09c.077 0 .122 0 .136.032a.37.37 0 01.031.157v.144a.356.356 0 010 .153c0 .027-.059.045-.13.05l-1.063.067.032.608.783-.085c.076 0 .121 0 .135.031.022.05.033.103.031.158v.144a.356.356 0 010 .153c0 .031-.058.045-.13.054L24 5.109zm-2.754-.963v.518c0 .175 0 .342-.032.504a4.18 4.18 0 01-.076.45 2.07 2.07 0 01-.113.369l1.035-.068-.099-1.823-.715.05zM20.135 6.22c0-.08 0-.13.036-.148a.28.28 0 01.135-.032h.13c.065-.125.116-.256.154-.392a3.39 3.39 0 00.094-.49 5.61 5.61 0 00.027-.608v-.809a.095.095 0 010-.063.08.08 0 01.05-.032.45.45 0 01.108 0l1.422-.099a.288.288 0 01.144 0c.027 0 .04.063.045.14l.13 2.192h.19a.301.301 0 01.14 0c.026 0 .044.063.049.144l.054.9c0 .077 0 .126-.032.144a.31.31 0 01-.14.036h-.094a.324.324 0 01-.148 0c-.027 0-.04-.063-.05-.14l-.027-.521-1.953.135.027.517c0 .081 0 .13-.027.149a.388.388 0 01-.144.036h-.095a.315.315 0 01-.144 0c-.027 0-.045-.063-.05-.144l-.03-.914zm-1.382-.752l.041.68 1.062-.076c.072 0 .117 0 .135.031.023.048.033.1.032.153v.149a.46.46 0 010 .148c0 .033-.045.051-.135.054l-1.427.104a.234.234 0 01-.149 0c-.027 0-.045-.059-.05-.14l-.161-2.561c0-.081 0-.126.031-.144a.297.297 0 01.144-.036l1.44-.104c.073 0 .118 0 .136.032.022.048.033.1.031.153v.144a.356.356 0 010 .153c0 .031-.054.05-.13.054l-1.058.076.023.613.828-.059c.072 0 .117 0 .135.032a.37.37 0 01.031.157v.144a.356.356 0 010 .153c0 .027-.054.045-.13.054l-.829.036zm-3.443-.067a.806.806 0 00.185.5.63.63 0 00.495.184l-.099-1.467a.725.725 0 00-.297.094.652.652 0 00-.184.185.684.684 0 00-.086.238.87.87 0 00-.014.266zm1.189.644a.743.743 0 00.297-.1.59.59 0 00.274-.414c.01-.088.01-.177 0-.265a.805.805 0 00-.189-.504.612.612 0 00-.49-.185l.108 1.468zm.067.688c0 .077 0 .126-.031.144a.293.293 0 01-.14.036h-.184a.324.324 0 01-.149 0c-.027 0-.045-.058-.05-.14v-.202a1.32 1.32 0 01-.53-.058 1.045 1.045 0 01-.621-.617 1.555 1.555 0 01-.104-.45 1.44 1.44 0 01.045-.495 1.058 1.058 0 01.558-.689 1.25 1.25 0 01.49-.13v-.15c0-.08 0-.125.028-.148a.31.31 0 01.144-.031h.184a.26.26 0 01.144 0c.027 0 .045.058.05.14v.148c.176-.018.355.004.522.063a1.03 1.03 0 01.63.612c.06.143.094.295.103.45.013.165-.002.331-.045.49a1.085 1.085 0 01-.558.689c-.153.077-.32.121-.49.131l.004.207zM13.06 1.32C23.016.608 33.453-.06 44.052 0 54.65-.063 65.088.603 75.039 1.314c.22 0 .45.149.405.325a41.156 41.156 0 00-.112 13.054.968.968 0 00-.288-.212 2.658 2.658 0 00-.986-.193c-.315 0-1.71-.032-2.048-.04h-.31l-1.756-.05-1.764-.059h-.329c-7.592-.292-15.446-.841-23.8-.873-8.55.031-16.575.608-24.339.9h-.324l-1.764.059-1.463.036h-.617c-.54 0-1.282.036-1.503.022a2.66 2.66 0 00-.985.198.9.9 0 00-.297.216 41.59 41.59 0 00-.1-13.076c-.026-.154.185-.27.401-.302zM35.563 37.7h16.428l-8.187-3.178-8.24 3.178zm1.945 13.563c0 .248.148.45.324.45h11.89c.392 0 .514-.9-.134-.9H37.97a.45.45 0 00-.45.419m2.486-1.036c0 .338.148.509.553.509h6.432c.797 0 .67-.9.094-.9H40.47a.45.45 0 00-.45.414m1.394-11.605v10.322a.544.544 0 00-.369.554h1.616c-.059-.27-.104-.486-.37-.554V38.614c.303-.162.289-.194.37-.558h-1.634a.568.568 0 00.387.558zm1.926 0v10.322a.553.553 0 00-.373.554h1.62c-.063-.27-.103-.486-.369-.554V38.614c.302-.162.288-.194.37-.558h-1.62a.572.572 0 00.373.558zm1.94 0v10.322a.554.554 0 00-.369.554h1.62c-.062-.27-.103-.486-.368-.554V38.614c.301-.162.283-.194.369-.558h-1.62a.572.572 0 00.369.558z"/><path fill-rule="evenodd" clip-rule="evenodd" d="M40.064 45.141h-2.93V37.94l2.93 7.202zm-2.7-7.495l3.047 7.482.04.031c.635 1.144-2.92 1.558-3.348 1.558-.734 0-3.677-.342-3.452-1.44a.198.198 0 01.153-.158l3.038-7.473h.522zm-.392.27l-.058 7.203H34.05l2.921-7.203zm16.549 7.225h-2.907V37.94l2.907 7.202zm-2.723-7.495l3.047 7.482.04.031c.636 1.144-2.92 1.558-3.348 1.558-.733 0-3.677-.342-3.447-1.44a.184.184 0 01.153-.158l3.033-7.473h.522zm-.391.27l-.059 7.203h-2.817l2.876-7.203z"/><path d="M62.473 30.408h-4.784v-2.701h4.05a.955.955 0 00.68-.239.842.842 0 00.252-.639v-1.62h-4.95v-2.607h4.95v-1.589a.99.99 0 00-1.12-1.12h-5.672l2.03-2.612h4.388c1.306 0 2.255.3 2.85.9.589.586.9 1.522.9 2.819v5.892c0 1.206-.289 2.098-.86 2.665-.572.567-1.472.85-2.7.85"/><path d="M51.131 30.408c-1.22 0-2.121-.284-2.7-.851-.576-.567-.86-1.459-.86-2.665v-5.915c0-1.296.297-2.25.9-2.818.604-.567 1.54-.9 2.845-.9h6.107l-2.007 2.61h-3.353a.99.99 0 00-1.12 1.117v5.793a.9.9 0 00.256.68.9.9 0 00.68.252h6.048v2.665h-6.796m-10.68-2.916a3.008 3.008 0 01-.837 2.097 2.515 2.515 0 01-1.917.774h-8.313l1.998-2.52h5.149a.805.805 0 00.608-.199 1.51 1.51 0 00.252-.833l.072-9.516h9.667v13.055h-3.362v-10.44h-3.223l-.094 7.581z"/><path d="M24.897 23.8a.99.99 0 001.12 1.12h1.68v-5.023h-1.68a.99.99 0 00-1.12 1.12V23.8zm8.587-2.782a.99.99 0 00-1.12-1.121h-1.68v5.023h1.68a.99.99 0 001.12-1.12v-2.782zm3.358 2.781c0 1.306-.293 2.251-.9 2.85-.608.599-1.54.9-2.845.9h-2.25v.275l-2.008 2.525h-1.35v-2.813h-2.25c-1.31 0-2.25-.297-2.85-.9-.598-.604-.9-1.54-.9-2.85v-2.768c0-1.306.3-2.256.9-2.85.595-.59 1.54-.9 2.85-.9h2.25v-.297h3.362v.297h2.25c1.306 0 2.254.3 2.845.9.594.594.9 1.544.9 2.85l-.004 2.781z"/></g><defs><clipPath id="clip0_59_18"><path fill="#fff" d="M0 0h88v61H0z"/></clipPath></defs></svg>