<svg width="61" height="61" fill="none" xmlns="http://www.w3.org/2000/svg"><g opacity=".4" clip-path="url(#clip0_59_37)" fill="#fff"><path d="M3.813 36.644l4.062-1.455.34.956-3.45 1.242 1.46 4.06 3.453-1.237.342.957L5.752 42.7l-2.156-5.977.217-.079zm51.374.341l-.993 2.9c-.103.226-.15.474-.135.723.03.12.138.21.352.281a.484.484 0 00.469 0 1.5 1.5 0 00.375-.694l.979-2.846-1.05-.375.003.011zm-2.343-1.046l.255-.75 4.275 1.478-1.257 3.648a2.926 2.926 0 01-.817 1.38 1.264 1.264 0 01-1.279.143 1.124 1.124 0 01-.866-.881 3.33 3.33 0 01.262-1.56l.927-2.697-1.594-.547.075-.214h.019zm4.188-3.112l.098-2.355a1.85 1.85 0 00-.131-.975.66.66 0 00-.6-.259l-1.302-.056c-.307 0-.498.045-.603.195a1.89 1.89 0 00-.207.979l-.093 2.355a1.87 1.87 0 00.112.99c.09.138.278.187.593.198l1.308.056c.323 0 .518-.033.627-.172a1.79 1.79 0 00.198-.956zm-3.712-.143l.101-2.358a3 3 0 01.413-1.658 1.413 1.413 0 011.29-.502l1.27.052a1.5 1.5 0 011.283.574c.248.375.345.911.312 1.725l-.098 2.351a2.9 2.9 0 01-.375 1.575c-.277.375-.709.551-1.387.525l-1.268-.053c-.667-.026-1.069-.202-1.305-.592-.236-.39-.266-.881-.236-1.639zM57.644 27l-.62.15-.633-2.55-3.559.882-.243-.987 3.558-.87-.626-2.534.844-.21 1.5 6.074-.225.057.004-.012zm-4.8-7.274l.948-1.842-2.043-.206 1.125 2.048h-.03zm-3.522-3.282l5.052.522.52.963-2.508 4.875-.596-1.053.574-1.096-1.688-3.108-1.23-.12-.555-1.035.431.045v.007zm-1.5-4.65l2.085 2.25c.153.2.352.359.582.462.116.03.247-.027.412-.18.165-.154.236-.282.218-.417a1.474 1.474 0 00-.431-.656l-2.056-2.209-.81.75zm-2.028 1.572l-.536-.578 3.322-3.09 2.625 2.824c.405.362.7.831.851 1.354a1.257 1.257 0 01-.476 1.196 1.126 1.126 0 01-1.189.352 3.323 3.323 0 01-1.267-.952L47.2 12.375l-1.234 1.147-.157-.169-.015.012zm-.776-5.171l-2.03-1.2a1.875 1.875 0 00-.922-.345c-.195 0-.375.135-.513.405l-.664 1.125a.663.663 0 00-.113.626c.192.274.45.495.75.641l2.033 1.196c.27.204.59.333.926.375.165 0 .296-.161.458-.431l.66-1.125c.165-.281.217-.476.146-.634-.071-.157-.326-.375-.75-.626l.019-.007zm-1.875 3.198l-2.03-1.192a3 3 0 01-1.27-1.151 1.423 1.423 0 01.176-1.388l.641-1.091a1.5 1.5 0 011.125-.859c.439-.049.968.128 1.665.54l2.029 1.193c.497.237.915.614 1.204 1.083.202.424.153.889-.192 1.47l-.645 1.095c-.337.574-.678.844-1.125.87-.446.027-.907-.184-1.56-.57h-.018zm-7.59-4.5l1.38.267c.323.095.665.105.993.03.173-.068.27-.24.33-.544l.105-.529a.675.675 0 00-.12-.645 1.845 1.845 0 00-.914-.352l-1.38-.267-.376 2.04h-.018zm-.608-2.25l-1.372-.266a1.916 1.916 0 00-.99-.019c-.18.075-.289.252-.349.555l-.101.53c-.06.303-.03.502.105.63.277.197.602.317.941.348l1.373.266.374-2.044h.02zm1.193-.795l-.026.135 1.372.263c.799.157 1.309.375 1.601.75a1.5 1.5 0 01.267 1.346l-.094.495a1.41 1.41 0 01-.788 1.155c-.556.173-1.15.18-1.71.019l-1.376-.263-.075.375-.997-.191.075-.375-1.373-.266a3 3 0 01-1.582-.66 1.415 1.415 0 01-.285-1.38l.093-.495a1.5 1.5 0 01.75-1.181c.41-.2.964-.2 1.76-.053l1.371.266.072-.356.997.195-.041.221h-.011zM25.312 5.52l3.04-.398c.25-.008.494-.078.71-.202.093-.079.123-.214.093-.439s-.09-.356-.21-.416a1.47 1.47 0 00-.787-.034l-3 .375.142 1.099.012.015zm.105 2.565l-.78.101-.589-4.5 3.825-.499a2.884 2.884 0 011.601.117 1.256 1.256 0 01.694 1.083 1.125 1.125 0 01-.401 1.17 3.353 3.353 0 01-1.5.454l-2.843.364.218 1.672-.225.03v.008zm-7.59-2.018l4.62-1.912.33.806-3.889 1.609.338.821 3.79-1.564.335.803-3.795 1.567.397.957 3.893-1.61.33.807-4.83 1.991-1.722-4.188.21-.087h-.007zm-1.5 1.002l2.655 3.397-.803.623L15.93 8.2l-3.408 2.674 2.25 2.89-.803.627-2.786-3.592 5.006-3.911.139.18zM6.123 17.876l4.125-.375L8.835 13.5l.832-1.29 3.81 2.452-.547.855L9.813 13.5l1.564 4.417-.274.458-4.68.375 3.124 2.013L9 21.63l-3.822-2.452.822-1.29h.112l.011-.011zm-1.248 5.396l-.533 2.295a1.875 1.875 0 00-.052.982c.067.184.236.3.54.375l1.27.297c.3.07.496.048.63-.083.206-.267.336-.584.376-.919l.536-2.298c.114-.317.14-.66.075-.99-.064-.154-.24-.236-.551-.308l-1.271-.296c-.315-.071-.518-.064-.65.052a1.839 1.839 0 00-.374.9l.004-.007zm3.618.833l-.536 2.294a2.977 2.977 0 01-.716 1.557 1.41 1.41 0 01-1.373.247l-1.233-.285a1.499 1.499 0 01-1.155-.806c-.18-.405-.169-.96 0-1.748l.532-2.298a2.86 2.86 0 01.675-1.47c.341-.319.799-.413 1.459-.259l1.237.289c.65.15 1.01.397 1.17.821.162.424.094.919-.078 1.658h.018zm-3.27 9.813l-.183-3.064a1.5 1.5 0 00-.165-.72c-.072-.1-.207-.138-.432-.123-.225.015-.375.063-.435.18a1.5 1.5 0 00-.086.783l.18 3 1.125-.063-.004.007zm2.565.075l.045.784-4.53.27-.228-3.851a2.888 2.888 0 01.228-1.572 1.268 1.268 0 011.125-.618 1.126 1.126 0 011.125.487c.238.479.357 1.007.35 1.541l.168 2.843 1.702-.128v.233l.015.011zm22.714 17.58a21.056 21.056 0 0018.146-10.399H12.375a21.049 21.049 0 0018.146 10.399h-.019zm0-26.036l-9.165 7.837-9.044 7.695.026.041 18.183-5.625 18.18 5.625a.356.356 0 00.03-.041l-9.045-7.695-9.165-7.837z"/><path d="M9.431 30.498a20.947 20.947 0 002.831 10.522l18.24-31.593a21.07 21.07 0 00-21.07 21.071zM30.502 9.427l9.165 15.874 9.082 15.72A21.049 21.049 0 0030.502 9.426zM8.55 44.774a1.125 1.125 0 112.25 0 1.125 1.125 0 01-2.25 0zm41.883-.274a1.125 1.125 0 112.25 0 1.125 1.125 0 01-2.25 0z"/><path fill-rule="evenodd" clip-rule="evenodd" d="M10.699 49.285l2.853-3.221 2.708 2.4c.15.134.292.275.427.424.113.123.213.258.3.4.074.123.13.256.165.395a1.2 1.2 0 01-.131.776 1.798 1.798 0 01-.266.375c-.1.114-.211.216-.334.304a.986.986 0 01-.75.157 1.441 1.441 0 01-.375-.135 5.953 5.953 0 01-.885-.638l-2.036-1.814-1.125 1.275-.649-.574.113-.124h-.015zm2.167-1.125l2.183 1.931c.104.094.198.173.285.237.068.053.14.1.217.142a.5.5 0 00.154.056.3.3 0 00.116 0 .427.427 0 00.127-.067.882.882 0 00.173-.165.968.968 0 00.195-.293.44.44 0 00.03-.225.671.671 0 00-.12-.255 1.875 1.875 0 00-.307-.33l-2.224-1.968-.833.94.004-.003zm9.427 5.415c.047-.104.085-.212.113-.322a.91.91 0 00.022-.233.42.42 0 00-.048-.165.547.547 0 00-.128-.157 2.158 2.158 0 00-.259-.18 4.359 4.359 0 00-.397-.2l-2.048-.944a3.131 3.131 0 00-.393-.15 1.712 1.712 0 00-.312-.071.64.64 0 00-.225 0 .517.517 0 00-.18.078.75.75 0 00-.168.162 1.644 1.644 0 00-.165.273l-.537 1.204a1.97 1.97 0 00-.082.233 1.022 1.022 0 00-.034.34.44.44 0 00.053.132.982.982 0 00.266.259c.072.06.148.116.229.165.09.049.19.097.307.15l2.048.911c.14.065.284.123.43.172.102.037.206.063.312.08.065.01.13.01.195 0a.3.3 0 00.139-.068.749.749 0 00.15-.169 2.72 2.72 0 00.169-.326l.536-1.204.007.03zm.255 1.56a3.444 3.444 0 01-.198.375 1.87 1.87 0 01-.218.285c-.074.081-.16.15-.255.206a1.126 1.126 0 01-.611.131 2.099 2.099 0 01-.349-.056 3.553 3.553 0 01-.375-.123 4.253 4.253 0 01-.461-.192l-2.048-.911a5.498 5.498 0 01-.446-.221 2.696 2.696 0 01-.375-.225 1.825 1.825 0 01-.281-.244 1.434 1.434 0 01-.203-.266 1.251 1.251 0 01-.116-.296 1.15 1.15 0 01-.026-.323 1.5 1.5 0 01.056-.345c.034-.128.078-.254.131-.375.113-.191.447-.96.525-1.181.056-.122.12-.24.192-.353.062-.099.134-.191.213-.277a1.217 1.217 0 01.551-.33c.111-.028.224-.041.338-.041.126 0 .252.012.375.037.143.03.283.069.42.116.146.05.304.113.476.188l2.048.915c.186.082.367.175.544.277.143.084.278.181.405.29.11.097.206.212.28.34.072.127.117.265.136.41.018.157.01.316-.023.472a3 3 0 01-.172.532 12.16 12.16 0 00-.533 1.174v.011zm5.115 2.494l-2.227-.263a4.936 4.936 0 01-.634-.116 2.171 2.171 0 01-.495-.176 1.365 1.365 0 01-.375-.259 1.098 1.098 0 01-.244-.356c-.06-.14-.096-.29-.108-.443a2.78 2.78 0 010-.529c0-.15.108-1.057.146-1.2.021-.177.06-.351.116-.52.05-.146.122-.284.21-.41a1.17 1.17 0 01.323-.296 1.5 1.5 0 01.423-.176c.174-.04.351-.06.529-.06a4.3 4.3 0 01.637.038l2.228.266c.514.028 1.01.2 1.432.495a1.124 1.124 0 01.417 1.084l-.023.165-.847-.124v-.165c.01-.06.01-.12 0-.18a.407.407 0 00-.15-.259.844.844 0 00-.203-.116 1.498 1.498 0 00-.303-.101 4.031 4.031 0 00-.413-.072l-2.227-.262a4.25 4.25 0 00-.45-.03 1.615 1.615 0 00-.327.03.61.61 0 00-.21.079.476.476 0 00-.139.135.902.902 0 00-.104.225 1.937 1.937 0 00-.068.344l-.143 1.197a1.691 1.691 0 000 .262c0 .068.007.136.023.203a.5.5 0 00.139.259.78.78 0 00.139.1c.06.034.125.062.19.083.088.029.177.051.267.068.098 0 .21.037.337.052l2.228.267c.195.026.392.034.589.026a.96.96 0 00.375-.072.405.405 0 00.183-.15.57.57 0 00.087-.258v-.169l.862.105v.165c-.016.136-.05.27-.101.398-.05.118-.118.229-.203.326a1.09 1.09 0 01-.318.236 1.62 1.62 0 01-.413.135c-.17.032-.344.047-.517.045-.207 0-.414-.014-.619-.041l-.019.015zm7.834-.278l-2.228.267a4.983 4.983 0 01-.64.04 2.678 2.678 0 01-.526-.056 1.35 1.35 0 01-.42-.164 1.19 1.19 0 01-.322-.29 1.469 1.469 0 01-.207-.404 2.65 2.65 0 01-.12-.514 13.002 13.002 0 01-.142-1.204 2.526 2.526 0 010-.529c.013-.154.049-.305.105-.45a1.236 1.236 0 01.619-.644c.16-.078.327-.14.498-.184a5.14 5.14 0 01.63-.116l2.228-.263a2.782 2.782 0 011.5.143 1.124 1.124 0 01.652.952v.165l-.862.105v-.169a.56.56 0 00-.124-.3.428.428 0 00-.127-.09.81.81 0 00-.222-.067 1.637 1.637 0 00-.318-.026 3.69 3.69 0 00-.42.03l-2.224.266c-.15.015-.3.04-.446.075-.108.024-.212.06-.312.105a.616.616 0 00-.183.127.522.522 0 00-.105.162.883.883 0 00-.045.243 1.892 1.892 0 000 .353l.142 1.196c.01.087.027.174.049.259.017.065.04.13.067.191a.569.569 0 00.087.131.658.658 0 00.112.09c.05.027.103.048.158.064a1.405 1.405 0 00.48.034c.1 0 .213 0 .34-.026l2.228-.267c.196-.021.389-.059.578-.112a1.06 1.06 0 00.33-.154.427.427 0 00.142-.188.588.588 0 00.023-.273v-.169l.858-.101.023.165a1.67 1.67 0 010 .412c-.02.13-.06.258-.12.375a1.02 1.02 0 01-.255.304c-.113.096-.24.174-.375.233-.157.07-.32.125-.488.164a5.098 5.098 0 01-.614.105l-.004.004zm7.346-7.248l1.781 3.896-.791.375-1.56-3.446-2.104 5.103-1.001.45-1.845-4.076.791-.375 1.5 3.315 2.01-4.89 1.148-.521.067.154.004.015zm7.271-.447l-.536.45-1.095-1.308-1.774 1.5-.157 2.358-.934.784.24-2.456a1.77 1.77 0 01-.859.322 1.173 1.173 0 01-.982-.472 1.879 1.879 0 01-.252-.375 1.051 1.051 0 01-.09-.795c.04-.133.097-.26.173-.375a2.7 2.7 0 01.307-.375 4.82 4.82 0 01.443-.413l2.771-2.328 2.873 3.423-.128.11v-.05zm-2.115-1.447l-.81-.96-2.272 1.905a2.73 2.73 0 00-.233.221c-.054.06-.103.124-.146.191a.524.524 0 00-.06.162c-.01.05-.01.1 0 .15.015.06.036.117.064.172.078.144.184.271.31.375a.374.374 0 00.132.071.24.24 0 00.116 0 .554.554 0 00.154-.048c.077-.042.15-.089.221-.14.09-.063.188-.138.293-.228l2.25-1.875-.019.004z"/><path d="M0 30.498a30.498 30.498 0 118.932 21.57A30.4 30.4 0 010 30.497zM9.375 9.375A29.883 29.883 0 1030.502.618 29.786 29.786 0 009.375 9.374z"/></g><defs><clipPath id="clip0_59_37"><path fill="#fff" d="M0 0h61v61H0z"/></clipPath></defs></svg>