<svg width="168" height="39" fill="none" xmlns="http://www.w3.org/2000/svg"><g opacity=".4" clip-path="url(#clip0_59_47)" fill="#fff"><path d="M54.454 11.154a1.95 1.95 0 01.441-1.277 1.587 1.587 0 011.164-.388h8.223c1.067 0 1.602.56 1.605 1.679v15.425c0 .184-.035.304-.103.353a.674.674 0 01-.377.074h-2.116a.667.667 0 01-.353-.074c-.078-.05-.113-.17-.113-.353V12.156h-5.538l-.155 2.183c-.13 1.881-.266 3.552-.41 5.013a18.249 18.249 0 01-.733 3.83 6.79 6.79 0 01-1.517 2.681 6.077 6.077 0 01-2.752 1.584.764.764 0 01-.416 0 .532.532 0 01-.26-.353l-.526-1.481a.754.754 0 010-.374c.02-.102.127-.194.31-.275a4.362 4.362 0 001.644-1.157 4.96 4.96 0 00.913-1.877 17.47 17.47 0 00.487-2.945c.11-1.176.228-2.634.353-4.374l.247-3.46m26.043 9.227c0 2.223-.512 3.931-1.538 5.126-1.025 1.194-2.553 1.791-4.585 1.791-2.02 0-3.529-.58-4.526-1.742-.997-1.162-1.498-2.86-1.503-5.094a8.717 8.717 0 01.452-2.931 6.165 6.165 0 011.252-2.155 5.321 5.321 0 011.915-1.34 6.351 6.351 0 012.47-.466c1.99 0 3.498.605 4.525 1.816 1.028 1.211 1.54 2.879 1.538 5.002v-.007zm-2.98.081a9.78 9.78 0 00-.141-1.71 4.403 4.403 0 00-.473-1.412 2.54 2.54 0 00-.928-.973 2.882 2.882 0 00-1.492-.353 2.822 2.822 0 00-1.411.353 3.01 3.01 0 00-1.002.92 4.047 4.047 0 00-.589 1.387 7.73 7.73 0 00-.187 1.739c0 1.392.225 2.488.674 3.288.455.8 1.256 1.199 2.41 1.199a2.682 2.682 0 002.44-1.337c.256-.436.434-.914.526-1.411a8.319 8.319 0 00.173-1.69zm30.431-.081c0 2.222-.512 3.93-1.538 5.125-1.025 1.195-2.554 1.793-4.585 1.793-2.023 0-3.532-.581-4.526-1.743-.995-1.162-1.496-2.86-1.503-5.094a8.898 8.898 0 01.448-2.931 6.225 6.225 0 011.256-2.155 5.347 5.347 0 011.915-1.34 6.375 6.375 0 012.469-.466c1.992 0 3.501.605 4.526 1.816 1.026 1.211 1.538 2.879 1.538 5.002v-.007zm-2.977.081a10.43 10.43 0 00-.138-1.71 4.58 4.58 0 00-.479-1.412 2.54 2.54 0 00-.928-.973 2.88 2.88 0 00-1.489-.353 2.823 2.823 0 00-1.411.353 2.97 2.97 0 00-.998.92c-.284.42-.485.891-.593 1.387a7.73 7.73 0 00-.186 1.739c0 1.392.225 2.488.677 3.288.451.799 1.253 1.199 2.406 1.199.517.022 1.03-.1 1.481-.353.396-.24.726-.573.963-.97a4.43 4.43 0 00.526-1.411c.115-.56.171-1.131.169-1.704zm7.309 6.561a1.47 1.47 0 01-1.104-.328 1.572 1.572 0 01-.3-1.058V11.18c0-1.136.532-1.704 1.605-1.704h9.446c.184 0 .3.039.353.113.061.12.087.254.074.388v1.707a.587.587 0 01-.074.353c-.049.067-.166.099-.353.099h-7.972v3.88h4.117a8.944 8.944 0 012.427.285 5.835 5.835 0 011.693.766c.427.286.8.644 1.104 1.058.266.373.476.783.624 1.217.137.39.23.793.279 1.203.039.384.06.727.06 1.03.01.754-.146 1.5-.459 2.187a5.363 5.363 0 01-1.262 1.732 5.865 5.865 0 01-1.881 1.129 6.614 6.614 0 01-2.306.398h-6.071zm8.797-5.643a2.822 2.822 0 00-.765-1.976 2.91 2.91 0 00-2.219-.811h-4.138v5.675h4.089a3.331 3.331 0 001.478-.289 2.81 2.81 0 00.927-.705c.23-.272.396-.591.487-.935a3.48 3.48 0 00.141-.945v-.014zm16.417 4.211a.837.837 0 01-.476.829 7.737 7.737 0 01-1.193.427c-.432.119-.871.21-1.315.275-.446.068-.894.114-1.344.137-.441.029-.861.04-1.263.04a9.54 9.54 0 01-2.744-.336 4.767 4.767 0 01-1.729-.903 2.984 2.984 0 01-.889-1.33 5.176 5.176 0 01.036-3.308 3.596 3.596 0 01.938-1.411 4.867 4.867 0 011.693-.992c.82-.27 1.68-.398 2.543-.377h2.822v-.423a3.614 3.614 0 00-.099-.879 1.51 1.51 0 00-.391-.705 1.842 1.842 0 00-.787-.462 4.293 4.293 0 00-1.301-.163c-.622.004-1.242.054-1.856.149-.553.074-1.099.192-1.633.352a.707.707 0 01-.399.025c-.084-.035-.141-.127-.172-.279l-.353-1.41c-.068-.269.006-.445.222-.53a10.324 10.324 0 012.307-.564 18.883 18.883 0 012.356-.162c1.738 0 3.012.384 3.821 1.153.809.77 1.215 1.889 1.22 3.358v7.489h-.014zm-2.945-4.734h-2.406c-.282 0-.589.018-.914.05-.324.035-.64.128-.931.275a1.917 1.917 0 00-.723.652 2.065 2.065 0 00-.289 1.178c0 .706.243 1.221.723 1.503a3.802 3.802 0 001.905.427h.486c.224-.007.446-.027.667-.06.233-.035.48-.078.737-.127a3.72 3.72 0 00.706-.197l.039-3.7zm8.984 6.078a.752.752 0 01-.423.088h-1.813a.706.706 0 01-.413-.102.492.492 0 01-.134-.399V14.34a.458.458 0 01.134-.377.706.706 0 01.413-.103h1.813c.146-.01.293.02.423.088.085.06.124.187.124.392v4.459h5.541V14.34a.436.436 0 01.138-.377.68.68 0 01.413-.103h1.827a.706.706 0 01.427.088.532.532 0 01.102.392v12.18c0 .219-.035.353-.102.413a.707.707 0 01-.427.088h-1.827a.682.682 0 01-.413-.102.463.463 0 01-.138-.399v-5.354h-5.541v5.354c0 .219-.039.353-.124.413zm23.877-.374l-4.232-6.515 3.827-5.683a.288.288 0 00-.058-.417.273.273 0 00-.15-.045h-2.6a.277.277 0 00-.208.095l-3.362 4.858h-2.37v-4.586c0-.183-.032-.296-.099-.353a.677.677 0 00-.353-.067h-2.007a.708.708 0 00-.353.067c-.074.039-.109.152-.109.353v12.346c0 .18.035.293.109.353a.768.768 0 00.353.06h2.007a.735.735 0 00.353-.06c.067-.046.099-.159.099-.353V21.13h2.208l3.859 5.785a.275.275 0 00.215.106h2.649a.274.274 0 00.275-.318.285.285 0 00-.063-.144m-72.345-.001l-4.25-6.515 3.823-5.683a.265.265 0 00.043-.296.268.268 0 00-.25-.166h-2.597a.28.28 0 00-.208.095l-3.365 4.858h-2.364v-4.586c0-.183-.035-.296-.106-.353a.67.67 0 00-.352-.067h-2.004a.706.706 0 00-.353.067c-.074.04-.112.152-.112.353v12.346c0 .18.038.293.112.353a.756.756 0 00.353.06h2.004a.71.71 0 00.352-.06c.071-.047.106-.165.106-.353V21.13h2.205l3.88 5.786a.265.265 0 00.212.105h2.677a.268.268 0 00.247-.162.297.297 0 00-.035-.3M30.341 38.16H7.836a7.842 7.842 0 01-7.831-7.824V7.831A7.842 7.842 0 017.835 0h22.506a7.842 7.842 0 017.83 7.83v22.506a7.841 7.841 0 01-7.83 7.824zM7.836.554A7.284 7.284 0 00.559 7.83v22.505a7.284 7.284 0 007.277 7.27H30.34a7.288 7.288 0 007.27-7.27V7.831A7.284 7.284 0 0030.34.554H7.836z"/><path d="M17.116 5.556a3.923 3.923 0 011.849-.53 3.951 3.951 0 00-3.305 1.976L4.238 26.762a3.948 3.948 0 106.836 3.951l8.01-13.855-3.41-5.923a3.944 3.944 0 011.442-5.39M33.92 26.763L22.51 7.009a3.954 3.954 0 00-3.306-1.975 3.947 3.947 0 013.291 5.901l-3.41 5.923 8 13.856a3.948 3.948 0 006.836-3.951z"/><path d="M21.053 5.556a3.947 3.947 0 00-1.848-.53h-.24a3.947 3.947 0 00-3.291 5.91l3.41 5.911 3.412-5.912a3.942 3.942 0 00-1.443-5.39m2.095 23.218a4.063 4.063 0 11-8.126-.014 4.063 4.063 0 018.126.014z"/></g><defs><clipPath id="clip0_59_47"><path fill="#fff" d="M0 0h167.5v38.16H0z"/></clipPath></defs></svg>