<?xml version="1.0" encoding="UTF-8"?>
<svg xmlns="http://www.w3.org/2000/svg" xmlns:xlink="http://www.w3.org/1999/xlink" width="27px" height="35px" viewBox="0 0 27 35" version="1.1">
<g id="surface1">
<path style=" stroke:none;fill-rule:nonzero;fill:rgb(100%,100%,100%);fill-opacity:1;" d="M 13.5 0 C 6.058594 0 0 5.929688 0 13.21875 C 0 23.578125 12.230469 34.273438 12.753906 34.722656 C 12.96875 34.910156 13.234375 35 13.5 35 C 13.765625 35 14.03125 34.910156 14.246094 34.726562 C 14.769531 34.273438 27 23.578125 27 13.21875 C 27 5.929688 20.941406 0 13.5 0 Z M 13.5 20.417969 C 9.363281 20.417969 5.996094 17.144531 5.996094 13.125 C 5.996094 9.105469 9.363281 5.832031 13.5 5.832031 C 17.636719 5.832031 21.003906 9.105469 21.003906 13.125 C 21.003906 17.144531 17.636719 20.417969 13.5 20.417969 Z M 13.5 20.417969 "/>
</g>
</svg>
