<svg width="36" height="37" viewBox="0 0 36 37" fill="none" xmlns="http://www.w3.org/2000/svg">
<path d="M30.6075 34.8815L16.4407 27.3805C16.0715 27.1846 15.6213 27.2117 15.2723 27.448L4.43958 34.949C4.03437 35.2304 3.85877 35.7414 4.00735 36.2119C4.15143 36.6779 4.58816 36.9999 5.07892 36.9999H30.0785C30.594 36.9999 31.0465 36.6487 31.1703 36.1444C31.2964 35.6424 31.0623 35.1224 30.6075 34.8815Z" fill="#FFC700"/>
<path d="M35.3499 32.7439L32.0182 17.7442C31.9371 17.3772 31.6782 17.0778 31.3293 16.9405C30.9781 16.8032 30.5842 16.8504 30.278 17.062L19.443 24.563C19.1188 24.7882 18.9365 25.1641 18.9612 25.5536C18.9837 25.9475 19.2111 26.2987 19.5578 26.4811L33.7223 33.9821C33.8889 34.0699 34.069 34.1149 34.2491 34.1149C34.49 34.1149 34.7309 34.0383 34.9312 33.883C35.2802 33.6174 35.4445 33.1739 35.3499 32.7439Z" fill="#FFC700"/>
<path d="M27.5098 15.278C27.3612 14.8075 26.9267 14.4878 26.4337 14.4878H16.1592C14.2907 17.8713 11.5263 21.1063 10.3894 22.3715C9.75007 23.0829 8.83383 23.4926 7.87707 23.4926C6.92031 23.4926 6.00407 23.0829 5.36473 22.3715C4.92575 21.883 4.24589 21.1018 3.46697 20.1338L0.743023 32.3938C0.643971 32.8463 0.83082 33.3123 1.21352 33.5712C1.40262 33.6995 1.62324 33.7626 1.84161 33.7626C2.06673 33.7626 2.2896 33.6973 2.4832 33.5622L27.073 16.5364C27.4805 16.2595 27.6538 15.7485 27.5098 15.278Z" fill="#FFC700"/>
<path d="M7.87919 0.981445C3.53438 0.981445 0 4.51583 0 8.86064C0 12.9038 6.32137 20.0649 7.04175 20.8685C7.25561 21.1049 7.55952 21.2422 7.87919 21.2422C8.19886 21.2422 8.50278 21.1049 8.71664 20.8685C9.43702 20.0649 15.7584 12.9038 15.7584 8.86064C15.7584 4.51583 12.224 0.981445 7.87919 0.981445ZM7.87919 12.2374C6.0152 12.2374 4.5024 10.7246 4.5024 8.86064C4.5024 6.99665 6.0152 5.48384 7.87919 5.48384C9.74319 5.48384 11.256 6.99665 11.256 8.86064C11.256 10.7246 9.74319 12.2374 7.87919 12.2374Z" fill="black"/>
</svg>
