<svg width="111" height="124" viewBox="0 0 111 124" fill="none" xmlns="http://www.w3.org/2000/svg">
<rect x="1" y="1" width="18" height="29" rx="9" stroke="white" stroke-width="2"/>
<rect x="8" y="8" width="4" height="7" rx="2" fill="#FFC700"/>
<path d="M40.184 20V10.944H36.12V20H33.928V8.976H42.408V20H40.184ZM50.9598 17.184C50.9598 17.6747 50.8584 18.1013 50.6558 18.464C50.4638 18.8267 50.2024 19.1307 49.8718 19.376C49.5518 19.6107 49.1838 19.7867 48.7678 19.904C48.3518 20.0213 47.9251 20.08 47.4878 20.08C47.0398 20.08 46.6078 20.0213 46.1918 19.904C45.7758 19.7867 45.4024 19.6107 45.0718 19.376C44.7518 19.1307 44.4958 18.8267 44.3038 18.464C44.1118 18.1013 44.0158 17.6747 44.0158 17.184V14.896C44.0158 14.4053 44.1118 13.9787 44.3038 13.616C44.5064 13.2533 44.7678 12.9547 45.0878 12.72C45.4184 12.4747 45.7918 12.2933 46.2078 12.176C46.6344 12.048 47.0664 11.984 47.5038 11.984C47.9731 11.984 48.4158 12.048 48.8318 12.176C49.2584 12.2933 49.6264 12.4747 49.9358 12.72C50.2558 12.9653 50.5064 13.2747 50.6878 13.648C50.8691 14.0107 50.9598 14.4373 50.9598 14.928V17.184ZM48.9278 15.248C48.9278 14.992 48.8851 14.7787 48.7998 14.608C48.7144 14.4373 48.6024 14.2987 48.4638 14.192C48.3251 14.0747 48.1704 13.9947 47.9998 13.952C47.8398 13.8987 47.6744 13.872 47.5038 13.872C47.3331 13.872 47.1571 13.8987 46.9758 13.952C46.8051 13.9947 46.6504 14.0747 46.5118 14.192C46.3731 14.2987 46.2611 14.4373 46.1758 14.608C46.0904 14.7787 46.0478 14.992 46.0478 15.248V16.816C46.0478 17.072 46.0851 17.2907 46.1598 17.472C46.2451 17.6427 46.3571 17.7867 46.4958 17.904C46.6344 18.0107 46.7891 18.0907 46.9598 18.144C47.1304 18.1867 47.3118 18.208 47.5038 18.208C47.6744 18.208 47.8398 18.1867 47.9998 18.144C48.1704 18.0907 48.3251 18.0107 48.4638 17.904C48.6024 17.7867 48.7144 17.6427 48.7998 17.472C48.8851 17.2907 48.9278 17.072 48.9278 16.816V15.248ZM55.4326 13.76L55.3366 15.312C55.3046 15.856 55.2513 16.3893 55.1766 16.912C55.102 17.4347 54.958 17.8827 54.7446 18.256H57.8166V13.76H55.4326ZM51.8166 18.272C51.9233 18.272 52.0246 18.272 52.1206 18.272C52.2273 18.272 52.3286 18.2667 52.4246 18.256C52.7126 18.0427 52.9313 17.7173 53.0806 17.28C53.2406 16.832 53.358 16.3253 53.4326 15.76C53.5073 15.184 53.5553 14.5813 53.5766 13.952C53.6086 13.312 53.6406 12.688 53.6726 12.08H59.7846V18.256H60.5366V22.064H58.7286V20H53.6246V22.064H51.8166V18.272ZM68.6971 17.232C68.6971 18.096 68.4625 18.7947 67.9931 19.328C67.5238 19.8507 66.8305 20.112 65.9131 20.112C65.6358 20.112 65.3051 20.0853 64.9211 20.032C64.5478 19.9787 64.1691 19.8507 63.7851 19.648V23.168H61.7531V12.096H63.6251L63.7851 12.816C64.2331 12.5387 64.6545 12.336 65.0491 12.208C65.4438 12.08 65.7798 12.016 66.0571 12.016C66.9105 12.016 67.5611 12.2507 68.0091 12.72C68.4678 13.1893 68.6971 13.92 68.6971 14.912V17.232ZM66.6331 15.088C66.6331 14.6293 66.5371 14.32 66.3451 14.16C66.1531 13.9893 65.9185 13.904 65.6411 13.904C65.5131 13.904 65.3691 13.9253 65.2091 13.968C65.0598 14 64.8998 14.048 64.7291 14.112C64.5585 14.176 64.3931 14.2507 64.2331 14.336C64.0731 14.4107 63.9238 14.496 63.7851 14.592V17.744C64.1478 17.9147 64.4625 18.032 64.7291 18.096C64.9958 18.1493 65.2518 18.176 65.4971 18.176C65.8065 18.1867 66.0731 18.1013 66.2971 17.92C66.5211 17.7387 66.6331 17.424 66.6331 16.976V15.088ZM76.9754 17.184C76.9754 17.6747 76.874 18.1013 76.6714 18.464C76.4794 18.8267 76.218 19.1307 75.8874 19.376C75.5674 19.6107 75.1994 19.7867 74.7834 19.904C74.3674 20.0213 73.9407 20.08 73.5034 20.08C73.0554 20.08 72.6234 20.0213 72.2074 19.904C71.7914 19.7867 71.418 19.6107 71.0874 19.376C70.7674 19.1307 70.5114 18.8267 70.3194 18.464C70.1274 18.1013 70.0314 17.6747 70.0314 17.184V14.896C70.0314 14.4053 70.1274 13.9787 70.3194 13.616C70.522 13.2533 70.7834 12.9547 71.1034 12.72C71.434 12.4747 71.8074 12.2933 72.2234 12.176C72.65 12.048 73.082 11.984 73.5194 11.984C73.9887 11.984 74.4314 12.048 74.8474 12.176C75.274 12.2933 75.642 12.4747 75.9514 12.72C76.2714 12.9653 76.522 13.2747 76.7034 13.648C76.8847 14.0107 76.9754 14.4373 76.9754 14.928V17.184ZM74.9434 15.248C74.9434 14.992 74.9007 14.7787 74.8154 14.608C74.73 14.4373 74.618 14.2987 74.4794 14.192C74.3407 14.0747 74.186 13.9947 74.0154 13.952C73.8554 13.8987 73.69 13.872 73.5194 13.872C73.3487 13.872 73.1727 13.8987 72.9914 13.952C72.8207 13.9947 72.666 14.0747 72.5274 14.192C72.3887 14.2987 72.2767 14.4373 72.1914 14.608C72.106 14.7787 72.0634 14.992 72.0634 15.248V16.816C72.0634 17.072 72.1007 17.2907 72.1754 17.472C72.2607 17.6427 72.3727 17.7867 72.5114 17.904C72.65 18.0107 72.8047 18.0907 72.9754 18.144C73.146 18.1867 73.3274 18.208 73.5194 18.208C73.69 18.208 73.8554 18.1867 74.0154 18.144C74.186 18.0907 74.3407 18.0107 74.4794 17.904C74.618 17.7867 74.73 17.6427 74.8154 17.472C74.9007 17.2907 74.9434 17.072 74.9434 16.816V15.248ZM80.5523 12.928C80.6589 12.8427 80.7816 12.768 80.9203 12.704C81.0589 12.64 81.2029 12.5867 81.3523 12.544C81.5016 12.4907 81.6509 12.4533 81.8003 12.432C81.9496 12.4107 82.0883 12.4 82.2163 12.4C82.6749 12.4 83.0909 12.464 83.4643 12.592C83.8483 12.7093 84.1736 12.8907 84.4403 13.136C84.7069 13.3813 84.9149 13.696 85.0643 14.08C85.2136 14.464 85.2883 14.912 85.2883 15.424V17.088C85.2883 17.5787 85.1923 18.0107 85.0003 18.384C84.8083 18.7573 84.5523 19.072 84.2323 19.328C83.9123 19.5733 83.5389 19.76 83.1123 19.888C82.6963 20.016 82.2536 20.08 81.7843 20.08C81.2723 20.08 80.8029 20.016 80.3763 19.888C79.9496 19.76 79.5816 19.5733 79.2723 19.328C78.9736 19.072 78.7389 18.7573 78.5683 18.384C78.4083 18.0107 78.3283 17.5787 78.3283 17.088V15.168C78.3283 14.6027 78.3496 14.0907 78.3923 13.632C78.4349 13.1733 78.5043 12.7573 78.6003 12.384C78.6963 12.0107 78.8243 11.6747 78.9843 11.376C79.1549 11.0667 79.3629 10.7787 79.6083 10.512C79.7789 10.32 79.9763 10.1493 80.2003 10C80.4243 9.85067 80.6589 9.712 80.9043 9.584C81.1496 9.456 81.4003 9.33867 81.6562 9.232C81.9229 9.12533 82.1843 9.024 82.4403 8.928C82.7603 8.8 83.0483 8.688 83.3043 8.592C83.5603 8.496 83.8429 8.37333 84.1523 8.224L84.8243 9.856C84.6216 9.94133 84.4456 10.016 84.2963 10.08C84.1469 10.144 84.0029 10.2027 83.8643 10.256C83.7363 10.3093 83.6083 10.3627 83.4803 10.416C83.3629 10.4587 83.2349 10.5067 83.0963 10.56C82.7763 10.688 82.4669 10.8213 82.1683 10.96C81.8803 11.088 81.6189 11.2427 81.3843 11.424C81.1496 11.5947 80.9523 11.7973 80.7923 12.032C80.6429 12.2667 80.5416 12.5493 80.4883 12.88L80.5523 12.928ZM83.2723 15.68C83.2723 15.1787 83.1283 14.8213 82.8403 14.608C82.5629 14.384 82.2269 14.272 81.8323 14.272C81.6616 14.272 81.4856 14.304 81.3043 14.368C81.1336 14.4213 80.9789 14.512 80.8403 14.64C80.7016 14.7573 80.5896 14.9067 80.5043 15.088C80.4189 15.2693 80.3763 15.488 80.3763 15.744V16.832C80.3763 17.088 80.4136 17.3013 80.4883 17.472C80.5736 17.6427 80.6803 17.7867 80.8083 17.904C80.9363 18.0107 81.0856 18.0907 81.2563 18.144C81.4269 18.1867 81.6083 18.208 81.8003 18.208C81.9816 18.208 82.1576 18.1867 82.3283 18.144C82.5096 18.0907 82.6696 18.0107 82.8083 17.904C82.9469 17.7867 83.0589 17.6427 83.1443 17.472C83.2296 17.3013 83.2723 17.088 83.2723 16.832V15.68ZM91.6808 20V16.832H88.7688V20H86.7688V12.08H88.7688V15.12H91.6808V12.08H93.7288V20H91.6808ZM97.2833 16.64V16.896C97.2833 17.1307 97.3206 17.3333 97.3953 17.504C97.4806 17.6747 97.5873 17.8133 97.7153 17.92C97.8539 18.0267 98.0086 18.1067 98.1793 18.16C98.3499 18.2133 98.5313 18.24 98.7233 18.24C98.9473 18.24 99.2246 18.208 99.5553 18.144C99.8859 18.0693 100.238 17.8827 100.611 17.584L101.731 18.976C101.486 19.2107 101.241 19.4027 100.995 19.552C100.75 19.6907 100.505 19.8027 100.259 19.888C100.014 19.9627 99.7633 20.0107 99.5073 20.032C99.2619 20.064 99.0113 20.08 98.7552 20.08C98.2859 20.08 97.8379 20.0213 97.4113 19.904C96.9953 19.7867 96.6273 19.6107 96.3073 19.376C95.9873 19.1307 95.7313 18.8267 95.5393 18.464C95.3473 18.1013 95.2513 17.6693 95.2513 17.168V15.12C95.2513 14.6293 95.3366 14.192 95.5073 13.808C95.6886 13.4133 95.9339 13.0827 96.2433 12.816C96.5526 12.5493 96.9099 12.3467 97.3153 12.208C97.7206 12.0693 98.1579 12 98.6273 12C99.1179 12 99.5713 12.0693 99.9873 12.208C100.403 12.3467 100.761 12.5493 101.059 12.816C101.358 13.072 101.593 13.392 101.763 13.776C101.934 14.16 102.019 14.5973 102.019 15.088V16.64H97.2833ZM99.9873 15.152C99.9873 14.704 99.8539 14.3787 99.5873 14.176C99.3206 13.9627 99.0059 13.856 98.6432 13.856C98.2699 13.856 97.9499 13.9733 97.6833 14.208C97.4166 14.4427 97.2833 14.7787 97.2833 15.216V15.312H99.9873V15.152ZM105.408 16.64V16.896C105.408 17.1307 105.446 17.3333 105.52 17.504C105.606 17.6747 105.712 17.8133 105.84 17.92C105.979 18.0267 106.134 18.1067 106.304 18.16C106.475 18.2133 106.656 18.24 106.848 18.24C107.072 18.24 107.35 18.208 107.68 18.144C108.011 18.0693 108.363 17.8827 108.736 17.584L109.856 18.976C109.611 19.2107 109.366 19.4027 109.12 19.552C108.875 19.6907 108.63 19.8027 108.384 19.888C108.139 19.9627 107.888 20.0107 107.632 20.032C107.387 20.064 107.136 20.08 106.88 20.08C106.411 20.08 105.963 20.0213 105.536 19.904C105.12 19.7867 104.752 19.6107 104.432 19.376C104.112 19.1307 103.856 18.8267 103.664 18.464C103.472 18.1013 103.376 17.6693 103.376 17.168V15.12C103.376 14.6293 103.462 14.192 103.632 13.808C103.814 13.4133 104.059 13.0827 104.368 12.816C104.678 12.5493 105.035 12.3467 105.44 12.208C105.846 12.0693 106.283 12 106.752 12C107.243 12 107.696 12.0693 108.112 12.208C108.528 12.3467 108.886 12.5493 109.184 12.816C109.483 13.072 109.718 13.392 109.888 13.776C110.059 14.16 110.144 14.5973 110.144 15.088V16.64H105.408ZM108.112 15.152C108.112 14.704 107.979 14.3787 107.712 14.176C107.446 13.9627 107.131 13.856 106.768 13.856C106.395 13.856 106.075 13.9733 105.808 14.208C105.542 14.4427 105.408 14.7787 105.408 15.216V15.312H108.112V15.152Z" fill="white"/>
<path d="M33 21.6H110.784V22.4H33V21.6Z" fill="white"/>
<path d="M10 124L15.7735 114L4.22649 114L10 124ZM9 60L9 115L11 115L11 60L9 60Z" fill="white"/>
</svg>
