<?xml version="1.0" encoding="UTF-8"?>
<svg xmlns="http://www.w3.org/2000/svg" xmlns:xlink="http://www.w3.org/1999/xlink" width="35px" height="35px" viewBox="0 0 35 35" version="1.1">
<g id="surface1">
<path style=" stroke:none;fill-rule:nonzero;fill:rgb(100%,100%,100%);fill-opacity:1;" d="M 26.609375 23.152344 C 25.464844 22.023438 24.039062 22.023438 22.902344 23.152344 C 22.035156 24.011719 21.167969 24.871094 20.316406 25.746094 C 20.082031 25.984375 19.886719 26.039062 19.601562 25.878906 C 19.042969 25.570312 18.445312 25.324219 17.90625 24.988281 C 15.394531 23.40625 13.289062 21.375 11.421875 19.089844 C 10.5 17.953125 9.675781 16.738281 9.101562 15.367188 C 8.984375 15.089844 9.003906 14.910156 9.230469 14.683594 C 10.097656 13.84375 10.941406 12.984375 11.796875 12.125 C 12.984375 10.933594 12.984375 9.535156 11.789062 8.332031 C 11.109375 7.648438 10.433594 6.976562 9.757812 6.292969 C 9.058594 5.59375 8.363281 4.886719 7.660156 4.195312 C 6.515625 3.082031 5.085938 3.082031 3.949219 4.203125 C 3.078125 5.0625 2.238281 5.941406 1.351562 6.789062 C 0.527344 7.566406 0.113281 8.519531 0.0234375 9.636719 C -0.113281 11.449219 0.332031 13.160156 0.957031 14.828125 C 2.238281 18.28125 4.191406 21.347656 6.558594 24.160156 C 9.757812 27.960938 13.574219 30.96875 18.035156 33.136719 C 20.046875 34.113281 22.128906 34.863281 24.394531 34.988281 C 25.953125 35.074219 27.308594 34.683594 28.394531 33.464844 C 29.136719 32.636719 29.972656 31.878906 30.761719 31.085938 C 31.925781 29.90625 31.933594 28.476562 30.777344 27.3125 C 29.390625 25.921875 28 24.535156 26.609375 23.152344 Z M 26.609375 23.152344 "/>
<path style=" stroke:none;fill-rule:nonzero;fill:rgb(100%,100%,100%);fill-opacity:1;" d="M 25.21875 17.347656 L 27.90625 16.890625 C 27.484375 14.421875 26.316406 12.183594 24.546875 10.40625 C 22.675781 8.535156 20.308594 7.355469 17.703125 6.992188 L 17.324219 9.695312 C 19.339844 9.976562 21.175781 10.886719 22.625 12.335938 C 23.996094 13.707031 24.890625 15.441406 25.21875 17.347656 Z M 25.21875 17.347656 "/>
<path style=" stroke:none;fill-rule:nonzero;fill:rgb(100%,100%,100%);fill-opacity:1;" d="M 29.421875 5.667969 C 26.316406 2.5625 22.390625 0.605469 18.058594 0 L 17.679688 2.703125 C 21.425781 3.226562 24.816406 4.921875 27.5 7.597656 C 30.039062 10.136719 31.707031 13.351562 32.3125 16.882812 L 35 16.421875 C 34.292969 12.332031 32.363281 8.617188 29.421875 5.667969 Z M 29.421875 5.667969 "/>
</g>
</svg>
