<svg width="31" height="31" viewBox="0 0 31 31" fill="none" xmlns="http://www.w3.org/2000/svg">
<path d="M30.4833 10.3333H27.9V6.71667C27.9 6.43134 27.6687 6.2 27.3833 6.2H25.8333V0.516667C25.8333 0.231337 25.602 0 25.3167 0H5.68333C5.398 0 5.16667 0.231337 5.16667 0.516667V6.2H3.61667C3.33134 6.2 3.1 6.43134 3.1 6.71667V10.3333H0.516667C0.231337 10.3333 0 10.5647 0 10.85V25.3167C0 25.602 0.231337 25.8333 0.516667 25.8333H5.16667V30.4833C5.16667 30.7687 5.398 31 5.68333 31H25.3167C25.602 31 25.8333 30.7687 25.8333 30.4833V25.8333H30.4833C30.7687 25.8333 31 25.602 31 25.3167V10.85C31 10.5647 30.7687 10.3333 30.4833 10.3333ZM25.8333 7.23333H26.8667V10.3333H25.8333V7.23333ZM6.2 1.03333H24.8V10.3333H6.2V1.03333ZM4.13333 7.23333H5.16667V10.3333H4.13333V7.23333ZM5.16667 22.7333H4.65V21.1833H5.16667V22.7333ZM24.8 29.9667H6.2V21.1833H24.8V29.9667ZM29.9667 24.8H25.8333V23.7667H26.8667C27.152 23.7667 27.3833 23.5353 27.3833 23.25V20.6667C27.3833 20.3813 27.152 20.15 26.8667 20.15H4.13333C3.848 20.15 3.61667 20.3813 3.61667 20.6667V23.25C3.61667 23.5353 3.848 23.7667 4.13333 23.7667H5.16667V24.8H1.03333V11.3667H29.9667V24.8ZM25.8333 22.7333V21.1833H26.35V22.7333H25.8333Z" fill="black"/>
<path d="M22.7329 22.7334H11.3662V23.7667H22.7329V22.7334Z" fill="black"/>
<path d="M22.7333 24.7998H8.2666V25.8331H22.7333V24.7998Z" fill="black"/>
<path d="M19.6333 26.8667H8.2666V27.9H19.6333V26.8667Z" fill="black"/>
<path d="M10.3333 22.7334H8.2666V23.7667H10.3333V22.7334Z" fill="black"/>
<path d="M6.71641 12.3999H2.58307C2.29774 12.3999 2.06641 12.6312 2.06641 12.9166V14.9832C2.06641 15.2686 2.29774 15.4999 2.58307 15.4999H6.71641C7.00174 15.4999 7.23307 15.2686 7.23307 14.9832V12.9166C7.23307 12.6312 7.00174 12.3999 6.71641 12.3999ZM6.19974 14.4666H3.09974V13.4332H6.19974V14.4666Z" fill="black"/>
<path d="M13.4333 14.4668H8.2666V15.5001H13.4333V14.4668Z" fill="black"/>
<path d="M15.5001 14.4668H14.4668V15.5001H15.5001V14.4668Z" fill="black"/>
</svg>
