<svg width="89" height="63" viewBox="0 0 89 63" fill="none" xmlns="http://www.w3.org/2000/svg">
<path d="M9.67453 44.56C9.24786 44.2 8.78786 43.9533 8.29453 43.82C7.8012 43.6733 7.3212 43.6 6.85453 43.6C6.54786 43.6 6.2412 43.6467 5.93453 43.74C5.62786 43.82 5.35453 43.96 5.11453 44.16C4.87453 44.36 4.67453 44.62 4.51453 44.94C4.36786 45.26 4.29453 45.6467 4.29453 46.1V50.12C4.29453 50.5733 4.36786 50.96 4.51453 51.28C4.67453 51.5867 4.87453 51.84 5.11453 52.04C5.36787 52.24 5.6412 52.3867 5.93453 52.48C6.2412 52.5733 6.54786 52.62 6.85453 52.62C7.3212 52.62 7.78786 52.5533 8.25453 52.42C8.73453 52.2867 9.21453 52.0333 9.69453 51.66L10.9945 53.78C10.4879 54.2067 9.86786 54.54 9.13453 54.78C8.4012 55.02 7.62787 55.14 6.81453 55.14C6.1612 55.14 5.5212 55.0467 4.89453 54.86C4.26786 54.6733 3.70786 54.4 3.21453 54.04C2.7212 53.6667 2.3212 53.2067 2.01453 52.66C1.70786 52.1 1.55453 51.4467 1.55453 50.7V45.54C1.55453 44.8067 1.7012 44.1667 1.99453 43.62C2.3012 43.06 2.69453 42.5933 3.17453 42.22C3.66786 41.8467 4.22786 41.5667 4.85453 41.38C5.4812 41.1933 6.1212 41.1 6.77453 41.1C7.57453 41.1 8.3412 41.2067 9.07453 41.42C9.8212 41.6333 10.4612 41.9733 10.9945 42.44L9.67453 44.56Z" fill="black"/>
<path d="M51.0571 6.31229C63.6175 1.28007 77.8791 7.38289 82.9114 19.9433C87.9436 32.5037 81.8408 46.7654 69.2803 51.7976C56.7199 56.8298 42.4583 50.727 37.4261 38.1666C32.3938 25.6062 38.4967 11.3445 51.0571 6.31229Z" stroke="#E4E4E4" stroke-width="8"/>
<path d="M18.5414 44.4271L25.8561 35.1206L30.2584 46.1086L18.5414 44.4271Z" fill="black"/>
</svg>
