<svg width="61" height="61" viewBox="0 0 61 61" fill="none" xmlns="http://www.w3.org/2000/svg">
<g opacity="0.4" clip-path="url(#clip0_59_37)">
<path d="M3.81344 36.6442L7.8746 35.1892L8.21585 36.1455L4.76592 37.3867L6.22464 41.4479L9.67832 40.2104L10.0196 41.1666L5.75215 42.7003L3.59594 36.723L3.81344 36.6442ZM55.1874 36.9854L54.1937 39.8841C54.0906 40.1108 54.0442 40.3592 54.0587 40.6079C54.0887 40.7279 54.1974 40.8179 54.4112 40.8891C54.4829 40.9288 54.5635 40.9497 54.6455 40.9497C54.7275 40.9497 54.8082 40.9288 54.8799 40.8891C55.0645 40.6955 55.194 40.4559 55.2549 40.1954L56.2336 37.3492L55.1836 36.9742L55.1874 36.9854ZM52.8437 35.9392L53.0987 35.1892L57.3736 36.6667L56.1174 40.3154C55.9788 40.8426 55.6956 41.3205 55.2999 41.6954C55.119 41.8314 54.905 41.9165 54.68 41.9415C54.4551 41.9666 54.2275 41.9308 54.0212 41.8378C53.8065 41.7915 53.6101 41.6834 53.4562 41.5268C53.3023 41.3702 53.1976 41.172 53.1549 40.9566C53.1158 40.4231 53.2059 39.888 53.4174 39.3966L54.3437 36.7005L52.7499 36.153L52.8249 35.9392H52.8437ZM57.0323 32.8268L57.1298 30.4718C57.175 30.141 57.1296 29.804 56.9986 29.4969C56.9296 29.4054 56.8381 29.3334 56.7329 29.288C56.6277 29.2427 56.5125 29.2255 56.3986 29.2381L55.0974 29.1819C54.7899 29.1819 54.5986 29.2269 54.4937 29.3769C54.3384 29.6787 54.2672 30.0168 54.2874 30.3556L54.1937 32.7105C54.1412 33.0446 54.1801 33.3867 54.3062 33.7005C54.3962 33.8393 54.5836 33.888 54.8986 33.8993L56.2074 33.9555C56.5299 33.9555 56.7248 33.9218 56.8336 33.783C56.9873 33.4889 57.0561 33.1578 57.0323 32.8268ZM53.3199 32.6843L53.4212 30.3256C53.3952 29.7448 53.5385 29.169 53.8337 28.6681C53.9875 28.4808 54.187 28.3362 54.4129 28.2482C54.6388 28.1602 54.8836 28.1318 55.1236 28.1656L56.3949 28.2181C56.6392 28.2018 56.8839 28.2455 57.1074 28.3456C57.331 28.4456 57.5266 28.5988 57.6773 28.7919C57.9248 29.1669 58.0223 29.7031 57.9886 30.5168L57.8911 32.868C57.9182 33.418 57.7881 33.9643 57.5161 34.443C57.2386 34.818 56.8073 34.9942 56.1286 34.968L54.8611 34.9155C54.1937 34.8892 53.7924 34.713 53.5562 34.323C53.3199 33.933 53.2899 33.4418 53.3199 32.6843ZM57.6436 26.9994L57.0248 27.1494L56.3911 24.5995L52.8324 25.4807L52.5887 24.4945L56.1474 23.6245L55.5211 21.0895L56.3649 20.8795C56.8648 22.9045 57.3648 24.9294 57.8648 26.9544L57.6398 27.0107L57.6436 26.9994ZM52.8437 19.7246L53.7924 17.8833L51.7487 17.6771L52.8737 19.7246H52.8437ZM49.3225 16.4434L54.3736 16.9646L54.8949 17.9283L52.3862 22.8032L51.79 21.7495L52.3637 20.6545L50.6762 17.5458L49.4463 17.4258L48.8913 16.3909L49.3225 16.4359V16.4434ZM47.8225 11.7935L49.9075 14.0434C50.0596 14.2434 50.2594 14.402 50.4887 14.5047C50.605 14.5347 50.7362 14.4784 50.9012 14.3247C51.0662 14.1709 51.1375 14.0434 51.1187 13.9084C51.037 13.6547 50.8879 13.4279 50.6875 13.2522L48.6325 11.0435L47.8225 11.7935ZM45.7938 13.3647L45.2576 12.7872L48.58 9.69726L51.205 12.5209C51.6103 12.8832 51.9054 13.3524 52.0562 13.8747C52.0921 14.0985 52.0668 14.3278 51.983 14.5384C51.8991 14.749 51.7599 14.933 51.58 15.0709C51.4381 15.2396 51.2499 15.363 51.0385 15.4257C50.8272 15.4884 50.6021 15.4876 50.3912 15.4234C49.8981 15.2128 49.4632 14.886 49.1238 14.4709L47.2001 12.3747L45.9663 13.5222L45.8088 13.3534L45.7938 13.3647ZM45.0176 8.19354L42.9889 6.99356C42.7176 6.79842 42.3991 6.67931 42.0664 6.64857C41.8714 6.64857 41.6914 6.78357 41.5527 7.05356L40.8889 8.17854C40.8192 8.26515 40.7724 8.36788 40.7528 8.4773C40.7331 8.58672 40.7412 8.69932 40.7764 8.80478C40.9677 9.07895 41.2259 9.29968 41.5264 9.44601L43.5589 10.6422C43.8298 10.8456 44.149 10.9748 44.4851 11.0172C44.6501 11.0172 44.7813 10.856 44.9426 10.586L45.6026 9.46101C45.7676 9.17977 45.8201 8.98477 45.7488 8.82728C45.6776 8.66978 45.4226 8.45228 44.9988 8.20104L45.0176 8.19354ZM43.1426 11.3922L41.1139 10.1997C40.5872 9.94789 40.1454 9.54779 39.8427 9.04852C39.75 8.82168 39.7175 8.57472 39.7483 8.3316C39.7792 8.08849 39.8724 7.8575 40.0189 7.66105L40.6602 6.56982C40.7625 6.34516 40.9188 6.14923 41.115 5.99943C41.3113 5.84963 41.5415 5.75059 41.7852 5.71109C42.2239 5.66234 42.7526 5.83859 43.4501 6.25108L45.4788 7.44355C45.9761 7.68132 46.3941 8.05764 46.6826 8.52728C46.8851 8.95102 46.8363 9.41601 46.4913 9.99725L45.8463 11.0922C45.5088 11.666 45.1676 11.936 44.7214 11.9622C44.2751 11.9885 43.8139 11.7785 43.1614 11.3922H43.1426ZM35.5528 6.89231L36.9328 7.15856C37.2559 7.25408 37.5982 7.26442 37.9265 7.18856C38.099 7.12106 38.1965 6.94856 38.2565 6.64482L38.3615 6.11608C38.398 6.00724 38.4061 5.89089 38.3851 5.77803C38.3641 5.66517 38.3147 5.55953 38.2415 5.47109C37.9739 5.27322 37.6577 5.15142 37.3265 5.1186L35.9465 4.85236L35.5715 6.89231H35.5528ZM34.9453 4.64236L33.5728 4.37612C33.2502 4.28324 32.9088 4.27678 32.5828 4.35737C32.4029 4.43237 32.2941 4.60861 32.2341 4.91236L32.1329 5.44109C32.0729 5.74484 32.1029 5.94358 32.2379 6.07108C32.515 6.2689 32.8399 6.38928 33.1791 6.41982L34.5516 6.68607L34.9265 4.64236H34.9453ZM36.1378 3.84738L36.1115 3.98237L37.484 4.24487C38.2827 4.40237 38.7927 4.61986 39.0852 4.99485C39.2335 5.18188 39.335 5.40159 39.3813 5.63573C39.4276 5.86987 39.4174 6.11169 39.3515 6.34108L39.2577 6.83607C39.2382 7.08043 39.1553 7.31547 39.0172 7.51802C38.8791 7.72056 38.6906 7.88359 38.4702 7.99104C37.9143 8.16436 37.3198 8.17088 36.7603 8.00979L35.384 7.7473L35.309 8.12229L34.3116 7.93104L34.3866 7.55605L33.0141 7.28981C32.4336 7.22845 31.8837 6.99908 31.4316 6.62982C31.2676 6.44481 31.155 6.22002 31.1049 5.97787C31.0549 5.73573 31.0693 5.4847 31.1466 5.24985L31.2404 4.75486C31.26 4.51184 31.3385 4.27726 31.4692 4.07144C31.5999 3.86561 31.7788 3.69475 31.9904 3.57363C32.3991 3.37489 32.9541 3.37489 33.7491 3.52113L35.1215 3.78738L35.1928 3.43114L36.1903 3.62613L36.149 3.84738H36.1378ZM25.3117 5.51984L28.3529 5.12235C28.6022 5.11392 28.8456 5.04439 29.0617 4.91986C29.1554 4.84111 29.1854 4.70611 29.1554 4.48111C29.1254 4.25612 29.0654 4.12487 28.9454 4.06487C28.6909 3.98215 28.4186 3.97048 28.1579 4.03112L25.158 4.40612L25.3005 5.50484L25.3117 5.51984ZM25.4167 8.08479L24.6368 8.18604L24.048 3.68613L27.8729 3.18739C28.4069 3.07379 28.9622 3.1141 29.4742 3.30364C29.6768 3.40495 29.8482 3.55916 29.9703 3.74994C30.0924 3.94071 30.1607 4.16096 30.1679 4.38737C30.2226 4.60026 30.2138 4.82452 30.1425 5.03244C30.0712 5.24037 29.9405 5.42285 29.7667 5.55734C29.3095 5.82497 28.7955 5.98046 28.2667 6.01108L25.4242 6.37483L25.6417 8.04729L25.4167 8.07729V8.08479ZM17.8269 6.06733L22.4468 4.15487L22.7768 4.9611L18.8881 6.56982L19.2256 7.39105L23.0168 5.82734L23.3505 6.62982L19.5556 8.19729L19.9531 9.15352L23.8455 7.5448L24.1755 8.35104L19.3456 10.3422L17.6244 6.15358L17.8344 6.06733H17.8269ZM16.3269 7.06856L18.9819 10.466L18.1794 11.0885L15.9294 8.20104L12.5208 10.8747L14.7707 13.7659L13.9682 14.3922L11.182 10.7997L16.1882 6.88857L16.3269 7.06856ZM6.12339 17.8758L10.2483 17.5008L8.83458 13.4997L9.66707 12.2097L13.477 14.6622L12.9295 15.5171L9.81331 13.4997L11.377 17.9171L11.1033 18.3746L6.42338 18.7496L9.54707 20.7633L8.99958 21.6295L5.17841 19.1771L5.99964 17.8871H6.11214L6.12339 17.8758ZM4.87466 23.272L4.34217 25.5669C4.23753 25.8839 4.21941 26.2231 4.28968 26.5494C4.35717 26.7332 4.52592 26.8494 4.82966 26.9244L6.10089 27.2206C6.40088 27.2919 6.59588 27.2694 6.73088 27.1382C6.93611 26.8711 7.06565 26.5538 7.10587 26.2194L7.64211 23.9207C7.75561 23.6035 7.78152 23.2615 7.71711 22.9307C7.65336 22.777 7.47711 22.6945 7.16587 22.6232L5.89464 22.327C5.57965 22.2558 5.37715 22.2633 5.24591 22.3795C5.04166 22.64 4.91204 22.951 4.87091 23.2795L4.87466 23.272ZM8.49334 24.1045L7.9571 26.3994C7.87597 26.9771 7.62691 27.5183 7.24087 27.9556C7.05319 28.1123 6.82799 28.2176 6.58737 28.261C6.34675 28.3043 6.09899 28.2844 5.86839 28.2031L4.63467 27.9181C4.39086 27.8886 4.15804 27.7996 3.95666 27.659C3.75528 27.5184 3.59149 27.3306 3.47969 27.1119C3.2997 26.7069 3.31095 26.1519 3.47969 25.3644L4.01218 23.0657C4.09111 22.521 4.32547 22.0106 4.68717 21.5958C5.02841 21.277 5.4859 21.1833 6.14589 21.337L7.38336 21.6258C8.0321 21.7758 8.39209 22.0233 8.55334 22.447C8.71459 22.8707 8.64709 23.3657 8.47459 24.1045H8.49334ZM5.22341 33.918L5.03966 30.8543C5.04554 30.6043 4.98882 30.3568 4.87466 30.1343C4.80342 30.0331 4.66842 29.9956 4.44342 30.0106C4.21843 30.0256 4.06843 30.0743 4.00843 30.1906C3.91031 30.4395 3.88053 30.7101 3.92218 30.9743L4.10218 33.9743L5.22716 33.9105L5.22341 33.918ZM7.78835 33.993L7.83335 34.7767L3.30345 35.0467L3.0747 31.1956C3.00262 30.6607 3.08187 30.1164 3.30345 29.6243C3.41888 29.4304 3.58402 29.2708 3.78179 29.162C3.97957 29.0532 4.2028 28.9992 4.42842 29.0056C4.643 28.9694 4.86348 28.9961 5.06316 29.0826C5.26283 29.1692 5.43313 29.3117 5.5534 29.4931C5.79079 29.9717 5.91036 30.5001 5.90214 31.0343L6.07089 33.8768L7.77335 33.7493V33.9818L7.78835 33.993Z" fill="white"/>
<path d="M30.5021 51.5726C34.1705 51.5702 37.7746 50.6095 40.9574 48.7856C44.1402 46.9617 46.7913 44.3379 48.648 41.1741H12.375C14.2312 44.3384 16.8821 46.9626 20.065 48.7866C23.248 50.6106 26.8524 51.571 30.5209 51.5726H30.5021Z" fill="white"/>
<path d="M30.5021 25.5369L21.3373 33.3742L12.2925 41.069L12.3187 41.1103L30.5021 35.4854L48.6817 41.1103C48.6927 41.0972 48.7027 41.0835 48.7117 41.069L39.6669 33.3742L30.5021 25.5369Z" fill="white"/>
<path d="M9.43115 30.4981C9.43012 34.1938 10.4069 37.8241 12.2623 41.0203L30.502 9.42725C24.9136 9.42725 19.5542 11.6472 15.6027 15.5987C11.6511 19.5503 9.43115 24.9097 9.43115 30.4981Z" fill="white"/>
<path d="M30.502 9.42727L39.6668 25.3007L48.7491 41.0204C50.6024 37.8187 51.5792 34.1852 51.581 30.4858C51.5828 26.7864 50.6095 23.1519 48.7593 19.9484C46.9091 16.745 44.2473 14.0858 41.042 12.2387C37.8368 10.3916 34.2013 9.42188 30.502 9.42727Z" fill="white"/>
<path d="M8.5498 44.7741C8.5498 44.5516 8.61578 44.3341 8.7394 44.1491C8.86301 43.9641 9.03871 43.82 9.24427 43.7348C9.44983 43.6497 9.67603 43.6274 9.89425 43.6708C10.1125 43.7142 10.3129 43.8213 10.4703 43.9787C10.6276 44.136 10.7347 44.3365 10.7781 44.5547C10.8215 44.7729 10.7993 44.9991 10.7141 45.2047C10.629 45.4102 10.4848 45.5859 10.2998 45.7095C10.1148 45.8331 9.89728 45.8991 9.67478 45.8991C9.37642 45.8991 9.09028 45.7806 8.8793 45.5696C8.66833 45.3587 8.5498 45.0725 8.5498 44.7741Z" fill="white"/>
<path d="M50.4326 44.5002C50.4326 44.2777 50.4986 44.0602 50.6222 43.8752C50.7458 43.6902 50.9215 43.546 51.1271 43.4609C51.3326 43.3757 51.5588 43.3535 51.7771 43.3969C51.9953 43.4403 52.1957 43.5474 52.3531 43.7047C52.5104 43.8621 52.6176 44.0625 52.661 44.2808C52.7044 44.499 52.6821 44.7252 52.5969 44.9307C52.5118 45.1363 52.3676 45.312 52.1826 45.4356C51.9976 45.5592 51.7801 45.6252 51.5576 45.6252C51.2592 45.6252 50.9731 45.5067 50.7621 45.2957C50.5511 45.0847 50.4326 44.7986 50.4326 44.5002Z" fill="white"/>
<path fill-rule="evenodd" clip-rule="evenodd" d="M10.6986 49.2851L13.5523 46.064L16.2597 48.4639C16.4095 48.5976 16.5522 48.739 16.6872 48.8877C16.7999 49.0114 16.9004 49.1458 16.9872 49.2889C17.0614 49.4113 17.117 49.544 17.1522 49.6826C17.1762 49.8153 17.1762 49.9512 17.1522 50.0839C17.1296 50.2153 17.0852 50.342 17.0209 50.4589C16.9486 50.5948 16.8591 50.7208 16.7547 50.8339C16.6559 50.948 16.5439 51.05 16.421 51.1376C16.3077 51.2146 16.1802 51.2681 16.046 51.2951C15.9221 51.3191 15.7948 51.3191 15.671 51.2951C15.5403 51.2677 15.4141 51.2222 15.296 51.1601C15.1538 51.0822 15.0172 50.9945 14.8872 50.8976C14.7222 50.7808 14.5633 50.6556 14.411 50.5226L12.3748 48.7077L11.2498 49.9826L10.6011 49.4089L10.7136 49.2851H10.6986ZM12.866 48.1602L15.0485 50.0914C15.1535 50.1851 15.2472 50.2639 15.3335 50.3276C15.402 50.3809 15.4747 50.4286 15.551 50.4701C15.5989 50.4969 15.6508 50.5159 15.7047 50.5264C15.7431 50.534 15.7826 50.534 15.821 50.5264C15.867 50.5113 15.9101 50.4885 15.9485 50.4589C16.0132 50.412 16.0712 50.3565 16.121 50.2939C16.2033 50.2091 16.2694 50.11 16.316 50.0014C16.3455 49.9303 16.3559 49.8527 16.346 49.7764C16.3245 49.6839 16.2836 49.5969 16.226 49.5214C16.1371 49.3994 16.0339 49.2886 15.9185 49.1914L13.6948 47.2227L12.8623 48.1639L12.866 48.1602ZM22.2933 53.5751C22.3401 53.471 22.3777 53.3631 22.4058 53.2526C22.4233 53.1764 22.4308 53.0982 22.4283 53.0201C22.4236 52.9623 22.407 52.9061 22.3796 52.8551C22.3473 52.7951 22.304 52.7417 22.2521 52.6976C22.1703 52.6314 22.0839 52.5712 21.9933 52.5176C21.8643 52.4446 21.7316 52.3783 21.5958 52.3188L19.5484 51.3739C19.4206 51.3151 19.2891 51.265 19.1546 51.2239C19.0533 51.1905 18.9491 51.1666 18.8434 51.1526C18.769 51.1393 18.6928 51.1393 18.6184 51.1526C18.5539 51.1671 18.4928 51.1939 18.4384 51.2314C18.3741 51.276 18.3172 51.3304 18.2697 51.3926C18.2059 51.4783 18.1507 51.57 18.1047 51.6664L17.5684 52.8701C17.5361 52.9458 17.5085 53.0234 17.4859 53.1026C17.4684 53.1663 17.4571 53.2316 17.4522 53.2976C17.4465 53.3462 17.4465 53.3952 17.4522 53.4438C17.4625 53.4901 17.4802 53.5344 17.5047 53.5751C17.5339 53.622 17.5692 53.6649 17.6097 53.7026C17.6586 53.7519 17.7127 53.7959 17.7709 53.8338C17.8429 53.8946 17.9193 53.9497 17.9997 53.9988C18.0897 54.0476 18.1909 54.0963 18.3072 54.1488L20.3546 55.06C20.4952 55.1253 20.6391 55.1829 20.7859 55.2325C20.8869 55.2685 20.9911 55.2948 21.0971 55.3113C21.1616 55.3228 21.2276 55.3228 21.2921 55.3113C21.3434 55.3013 21.3913 55.278 21.4309 55.2438C21.4891 55.1954 21.5397 55.1385 21.5808 55.075C21.6446 54.9704 21.701 54.8613 21.7496 54.7488L22.2858 53.5451L22.2933 53.5751ZM22.5483 55.135C22.4898 55.264 22.4235 55.3892 22.3496 55.51C22.2864 55.6118 22.2135 55.7072 22.1321 55.795C22.0581 55.8763 21.9721 55.9459 21.8771 56.0013C21.7868 56.0545 21.6877 56.0913 21.5846 56.11C21.48 56.1326 21.3726 56.1402 21.2659 56.1325C21.1482 56.1236 21.0316 56.1048 20.9171 56.0763C20.7899 56.042 20.6647 56.0007 20.5421 55.9525C20.4021 55.905 20.2484 55.8413 20.0809 55.7613L18.0334 54.85C17.8684 54.775 17.7184 54.7038 17.5872 54.6288C17.4563 54.5641 17.3309 54.4888 17.2122 54.4038C17.1104 54.3323 17.0161 54.2507 16.9309 54.16C16.8533 54.0795 16.7853 53.9902 16.7284 53.8938C16.6772 53.8004 16.6382 53.7009 16.6122 53.5976C16.5883 53.4918 16.5795 53.3833 16.586 53.2751C16.5912 53.1583 16.6101 53.0425 16.6422 52.9301C16.6758 52.8017 16.7197 52.6763 16.7734 52.5551C16.8859 52.3638 17.2197 51.5951 17.2984 51.3739C17.3537 51.2519 17.4176 51.1341 17.4897 51.0214C17.5521 50.9224 17.6237 50.8295 17.7034 50.7439C17.7795 50.6658 17.8652 50.5978 17.9584 50.5414C18.0511 50.4859 18.1507 50.4431 18.2547 50.4139C18.365 50.3863 18.4784 50.3725 18.5922 50.3726C18.7181 50.3725 18.8437 50.3851 18.9672 50.4101C19.1095 50.44 19.2497 50.4788 19.3871 50.5264C19.5334 50.5751 19.6909 50.6389 19.8634 50.7139L21.9108 51.6289C22.097 51.7114 22.2785 51.804 22.4546 51.9063C22.5978 51.9905 22.7333 52.0871 22.8596 52.1951C22.9707 52.2933 23.0657 52.4085 23.1408 52.5363C23.2117 52.6626 23.2575 52.8014 23.2758 52.9451C23.2941 53.1027 23.2865 53.2623 23.2533 53.4176C23.2125 53.6001 23.1548 53.7783 23.0808 53.9501C22.8825 54.3315 22.7047 54.7233 22.5483 55.1238V55.135ZM27.6632 57.6287L25.4358 57.3662C25.2222 57.3413 25.0105 57.3025 24.802 57.25C24.6305 57.2115 24.4643 57.1523 24.307 57.0737C24.1684 57.0091 24.0417 56.9216 23.9321 56.815C23.828 56.7135 23.7452 56.5925 23.6883 56.4588C23.6284 56.3181 23.5917 56.1687 23.5796 56.0163C23.5628 55.8404 23.5628 55.6634 23.5796 55.4875C23.5796 55.3375 23.6883 54.43 23.7258 54.2876C23.7475 54.1104 23.7865 53.9359 23.8421 53.7663C23.8929 53.6211 23.9636 53.4835 24.052 53.3576C24.1398 53.2393 24.2492 53.1388 24.3745 53.0613C24.5059 52.9812 24.6488 52.9217 24.7983 52.8851C24.9718 52.8459 25.1491 52.8258 25.327 52.8251C25.5402 52.8218 25.7532 52.8343 25.9645 52.8626L28.192 53.1288C28.7063 53.1567 29.2026 53.3282 29.6244 53.6238C29.7858 53.7495 29.9098 53.9169 29.9831 54.1078C30.0565 54.2988 30.0764 54.5061 30.0407 54.7075L30.0182 54.8725L29.1707 54.7488V54.5838C29.1802 54.5242 29.1802 54.4634 29.1707 54.4038C29.1642 54.3535 29.1477 54.305 29.1219 54.2613C29.0959 54.2165 29.0615 54.177 29.0207 54.1451C28.9589 54.0971 28.8907 54.058 28.8182 54.0288C28.7209 53.9843 28.619 53.9504 28.5145 53.9276C28.3783 53.8967 28.2406 53.8729 28.102 53.8563L25.8745 53.5938C25.7251 53.5759 25.5749 53.5659 25.4245 53.5638C25.315 53.5627 25.2057 53.5728 25.0983 53.5938C25.024 53.6069 24.9528 53.6336 24.8883 53.6726C24.8333 53.7076 24.7861 53.7535 24.7495 53.8076C24.7043 53.8773 24.669 53.9531 24.6445 54.0326C24.6116 54.1453 24.589 54.2607 24.577 54.3775L24.4345 55.5738C24.4277 55.6611 24.4277 55.7489 24.4345 55.8363C24.4338 55.9044 24.4413 55.9724 24.457 56.0388C24.4671 56.0899 24.4848 56.1392 24.5095 56.185C24.5328 56.2264 24.5618 56.2643 24.5958 56.2975C24.6381 56.3363 24.6847 56.3702 24.7345 56.3988C24.7956 56.4321 24.8596 56.4597 24.9258 56.4813C25.013 56.5095 25.1019 56.532 25.192 56.5488C25.2895 56.5488 25.402 56.5863 25.5295 56.6013L27.757 56.8675C27.9521 56.8936 28.1491 56.9024 28.3457 56.8937C28.4742 56.8953 28.6017 56.8711 28.7207 56.8225C28.7955 56.792 28.8595 56.7397 28.9044 56.6725C28.9537 56.5945 28.9833 56.5057 28.9907 56.4138V56.245L29.8532 56.35V56.515C29.8368 56.6513 29.8028 56.785 29.7519 56.9125C29.7024 57.0314 29.6341 57.1416 29.5494 57.2387C29.4586 57.3364 29.3505 57.4164 29.2307 57.475C29.0999 57.5383 28.9611 57.5837 28.8182 57.61C28.6476 57.6417 28.4743 57.6567 28.3007 57.655C28.0938 57.6551 27.8871 57.6413 27.682 57.6137L27.6632 57.6287ZM35.4968 57.3512L33.2694 57.6175C33.0567 57.645 32.8425 57.6588 32.6281 57.6587C32.4517 57.6573 32.2759 57.6385 32.1031 57.6025C31.9549 57.5715 31.8129 57.5157 31.6831 57.4375C31.5589 57.3618 31.4496 57.2639 31.3606 57.1487C31.2713 57.0253 31.2017 56.8886 31.1544 56.7438C31.0974 56.5769 31.0572 56.4048 31.0344 56.23C30.9969 56.0838 30.8919 55.1763 30.8919 55.0263C30.8734 54.8505 30.8734 54.6733 30.8919 54.4975C30.9052 54.3433 30.9405 54.1917 30.9969 54.0476C31.0547 53.9088 31.1373 53.7817 31.2407 53.6726C31.3497 53.5623 31.4765 53.471 31.6156 53.4026C31.7755 53.3253 31.9426 53.2637 32.1144 53.2188C32.3218 53.167 32.5322 53.1282 32.7444 53.1026L34.9718 52.8401C35.4754 52.7487 35.9944 52.798 36.4718 52.9826C36.6565 53.0676 36.8147 53.201 36.9295 53.3687C37.0444 53.5364 37.1117 53.7322 37.1243 53.9351V54.1001L36.2618 54.2051V54.0363C36.2553 53.9769 36.2401 53.9188 36.2168 53.8638C36.1964 53.8179 36.1699 53.7751 36.1381 53.7363C36.1014 53.6987 36.0582 53.6682 36.0106 53.6463C35.9404 53.6133 35.8659 53.5906 35.7893 53.5788C35.6842 53.5597 35.5774 53.5509 35.4706 53.5526C35.3301 53.5545 35.1899 53.5645 35.0506 53.5826L32.8269 53.8488C32.6767 53.8643 32.5276 53.8893 32.3806 53.9238C32.2735 53.9479 32.1692 53.9831 32.0694 54.0288C32.0009 54.0597 31.9386 54.1029 31.8856 54.1563C31.8409 54.2031 31.8053 54.2578 31.7806 54.3176C31.7542 54.3963 31.7391 54.4783 31.7356 54.5613C31.7248 54.6785 31.7248 54.7965 31.7356 54.9138L31.8781 56.11C31.8887 56.1972 31.905 56.2837 31.9269 56.3688C31.9436 56.4344 31.9662 56.4984 31.9944 56.56C32.0169 56.6075 32.046 56.6517 32.0806 56.6912C32.1147 56.7253 32.1525 56.7554 32.1931 56.7812C32.2434 56.8076 32.2962 56.829 32.3506 56.845C32.4184 56.8614 32.4874 56.8727 32.5569 56.8787C32.648 56.8845 32.7395 56.8845 32.8306 56.8787C32.9319 56.8787 33.0444 56.8787 33.1719 56.8525L35.3993 56.5863C35.5946 56.565 35.7878 56.5274 35.9768 56.4738C36.095 56.4423 36.2067 56.3902 36.3068 56.32C36.3709 56.2721 36.4203 56.2071 36.4493 56.1325C36.4783 56.0443 36.486 55.9505 36.4718 55.8588V55.69L37.3305 55.5888L37.353 55.7538C37.37 55.8907 37.37 56.0293 37.353 56.1663C37.3334 56.2969 37.2928 56.4235 37.233 56.5413C37.1687 56.6582 37.0821 56.7614 36.978 56.845C36.8652 56.9406 36.7388 57.0189 36.603 57.0775C36.4461 57.1477 36.2829 57.2029 36.1155 57.2425C35.9129 57.29 35.7075 57.3251 35.5006 57.3475L35.4968 57.3512ZM42.8429 50.1026L44.6241 53.9988L43.8329 54.3738L42.2729 50.9276L40.1692 56.0313L39.168 56.4813L37.323 52.4051L38.1143 52.0301L39.6142 55.345L41.6242 50.4551L42.7717 49.9339L42.8392 50.0876L42.8429 50.1026ZM50.114 49.6564L49.5778 50.1064L48.4828 48.7977L46.7091 50.2976L46.5516 52.6563L45.6179 53.4401L45.8579 50.9839C45.6049 51.165 45.3087 51.2762 44.9991 51.3064C44.8093 51.313 44.6208 51.2734 44.4497 51.1911C44.2786 51.1088 44.13 50.9862 44.0166 50.8339C43.9181 50.7194 43.8337 50.5935 43.7654 50.4589C43.7002 50.3364 43.6583 50.2029 43.6416 50.0651C43.6269 49.9305 43.6384 49.7942 43.6754 49.6639C43.7142 49.5311 43.7724 49.4048 43.8479 49.2889C43.9391 49.155 44.042 49.0296 44.1554 48.9139C44.2941 48.7673 44.4419 48.6295 44.5979 48.5014L47.3691 46.1727L50.2415 49.5964L50.114 49.7051V49.6564ZM47.9991 48.2089L47.1891 47.2489L44.9166 49.1539C44.8348 49.223 44.7572 49.2969 44.6841 49.3751C44.6301 49.4347 44.5812 49.4987 44.5379 49.5664C44.5091 49.6165 44.4889 49.671 44.4779 49.7276C44.4685 49.7772 44.4685 49.8281 44.4779 49.8776C44.4926 49.9373 44.514 49.9952 44.5416 50.0501C44.6201 50.1941 44.7258 50.3214 44.8529 50.4251C44.8914 50.4574 44.936 50.4817 44.9841 50.4964C45.0223 50.5059 45.0622 50.5059 45.1004 50.4964C45.1537 50.4877 45.2055 50.4713 45.2541 50.4476C45.3306 50.4058 45.4044 50.3595 45.4754 50.3089C45.5654 50.2451 45.6629 50.1701 45.7679 50.0801L48.0178 48.2052L47.9991 48.2089Z" fill="white"/>
<path d="M3.31499e-05 30.4978C0.00107508 23.4421 2.4485 16.605 6.92533 11.1514C11.4022 5.69785 17.6314 1.96524 24.5517 0.589527C31.472 -0.786182 38.6553 0.280136 44.8775 3.6068C51.0998 6.93346 55.9761 12.3147 58.6757 18.8335C61.3753 25.3524 61.7311 32.6056 59.6825 39.3574C57.6338 46.1092 53.3076 51.9418 47.4407 55.8614C41.5739 59.7811 34.5295 61.5453 27.5078 60.8535C20.4861 60.1617 13.9214 57.0566 8.93235 52.0674C6.09559 49.2381 3.84608 45.8759 2.31315 42.1742C0.780222 38.4725 -0.00588333 34.5044 3.31499e-05 30.4978ZM9.37484 9.3745C4.48692 14.264 1.44562 20.6972 0.76916 27.5777C0.0926979 34.4582 1.82293 41.3605 5.66503 47.1083C9.50713 52.8561 15.2234 57.0939 21.8398 59.0996C28.4562 61.1053 35.5633 60.7547 41.9502 58.1077C48.3371 55.4607 53.6086 50.6809 56.8664 44.5829C60.1243 38.4849 61.1669 31.4459 59.8166 24.6653C58.4663 17.8847 54.8067 11.7821 49.4614 7.39731C44.116 3.01251 37.4156 0.616812 30.5019 0.618432C26.5772 0.61403 22.6902 1.38533 19.0645 2.88799C15.4388 4.39066 12.1458 6.59506 9.37484 9.3745Z" fill="white"/>
</g>
<defs>
<clipPath id="clip0_59_37">
<rect width="61" height="61" fill="white"/>
</clipPath>
</defs>
</svg>
