<svg width="168" height="39" viewBox="0 0 168 39" fill="none" xmlns="http://www.w3.org/2000/svg">
<g opacity="0.4" clip-path="url(#clip0_59_47)">
<path d="M54.4543 11.1538C54.4442 10.6892 54.6006 10.2363 54.8952 9.87687C55.0538 9.73818 55.2384 9.63245 55.4383 9.56583C55.6381 9.49922 55.8492 9.47304 56.0593 9.48885H64.2818C65.3494 9.48885 65.8844 10.0485 65.8868 11.1679V26.5935C65.8868 26.7769 65.8515 26.8968 65.7845 26.9462C65.6685 27.0071 65.5374 27.0328 65.407 27.0203H63.2906C63.1684 27.0285 63.0464 27.0028 62.9378 26.9462C62.8602 26.8968 62.8249 26.7769 62.8249 26.5935V12.1556H57.2868L57.1316 14.3391C57.0023 16.2204 56.8659 17.8912 56.7224 19.3516C56.6154 20.6511 56.3694 21.9354 55.9887 23.1824C55.6952 24.1804 55.1762 25.0977 54.4719 25.8633C53.7113 26.6257 52.7618 27.1723 51.7205 27.4471C51.5844 27.4856 51.4404 27.4856 51.3043 27.4471C51.2382 27.4102 51.1808 27.3597 51.1358 27.2989C51.0907 27.2381 51.0592 27.1683 51.0433 27.0944L50.5177 25.6128C50.4863 25.4902 50.4863 25.3616 50.5177 25.2389C50.5388 25.1366 50.6446 25.0449 50.8281 24.9638C51.4586 24.7114 52.0215 24.3152 52.4719 23.8068C52.9061 23.2531 53.2175 22.6134 53.3855 21.9302C53.6309 20.9639 53.7937 19.9786 53.8723 18.9848C53.9828 17.8089 54.1004 16.3509 54.225 14.6107L54.4719 11.1503" fill="white"/>
<path d="M80.5153 20.3782C80.5153 22.6005 80.0027 24.309 78.9774 25.5036C77.952 26.6982 76.4235 27.2955 74.3917 27.2955C72.3716 27.2955 70.863 26.7147 69.8659 25.553C68.8689 24.3913 68.368 22.6934 68.3632 20.4593C68.3452 19.4636 68.4979 18.4721 68.8148 17.528C69.0811 16.7318 69.5072 15.9984 70.067 15.3727C70.5982 14.7894 71.2525 14.3316 71.9824 14.0323C72.7663 13.7142 73.6058 13.5559 74.4516 13.5667C76.4411 13.5667 77.9497 14.1722 78.9774 15.3833C80.005 16.5944 80.5177 18.2617 80.5153 20.3853V20.3782ZM77.5346 20.4593C77.5378 19.886 77.4906 19.3136 77.3935 18.7485C77.3172 18.2548 77.1573 17.7776 76.9209 17.3375C76.7047 16.9355 76.3842 16.5992 75.9931 16.364C75.5367 16.1138 75.0211 15.9919 74.501 16.0112C74.008 16.0035 73.5215 16.1251 73.09 16.364C72.6902 16.5903 72.3475 16.9053 72.0882 17.2846C71.8064 17.7055 71.6065 18.1759 71.4992 18.6709C71.3713 19.2417 71.3085 19.8251 71.3122 20.4099C71.3122 21.8021 71.5368 22.898 71.9859 23.6975C72.441 24.4983 73.2417 24.8969 74.3952 24.8969C74.8855 24.9188 75.3723 24.8057 75.8028 24.57C76.2332 24.3342 76.5907 23.9849 76.8362 23.56C77.0923 23.1239 77.2702 22.6463 77.3618 22.149C77.4769 21.5931 77.5348 21.027 77.5346 20.4593Z" fill="white"/>
<path d="M107.966 20.3781C107.966 22.6004 107.454 24.3089 106.428 25.5035C105.403 26.6982 103.874 27.2955 101.843 27.2955C99.8201 27.2955 98.3115 26.7146 97.3168 25.5529C96.322 24.3912 95.8211 22.6933 95.8141 20.4593C95.7984 19.464 95.9499 18.4731 96.2621 17.528C96.531 16.7322 96.9582 15.999 97.5179 15.3727C98.0496 14.7901 98.7037 14.3323 99.4333 14.0322C100.217 13.7147 101.057 13.5565 101.902 13.5666C103.894 13.5666 105.403 14.1722 106.428 15.3833C107.454 16.5944 107.966 18.2617 107.966 20.3852V20.3781ZM104.989 20.4593C104.99 19.8862 104.944 19.314 104.851 18.7485C104.77 18.2551 104.607 17.7785 104.372 17.3375C104.156 16.9355 103.835 16.5992 103.444 16.3639C102.989 16.1142 102.474 15.9923 101.955 16.0111C101.462 16.0034 100.976 16.125 100.544 16.3639C100.145 16.5894 99.8031 16.9045 99.5461 17.2846C99.2618 17.7045 99.0606 18.1751 98.9535 18.6708C98.8256 19.2416 98.7629 19.825 98.7666 20.4099C98.7666 21.8021 98.9923 22.8979 99.4438 23.6975C99.8954 24.497 100.697 24.8968 101.85 24.8968C102.367 24.9194 102.88 24.7973 103.331 24.5441C103.727 24.3045 104.057 23.9714 104.294 23.574C104.549 23.1372 104.726 22.6599 104.82 22.163C104.935 21.6024 104.991 21.0315 104.989 20.4593Z" fill="white"/>
<path d="M112.298 27.0204C112.101 27.043 111.902 27.0256 111.712 26.9692C111.522 26.9129 111.346 26.8187 111.194 26.6924C110.97 26.3872 110.863 26.0115 110.894 25.6341V11.1786C110.894 10.0428 111.426 9.47485 112.499 9.47485H121.945C122.129 9.47485 122.245 9.51366 122.298 9.58773C122.359 9.70738 122.385 9.842 122.372 9.97575V11.683C122.385 11.8055 122.359 11.929 122.298 12.0358C122.249 12.1028 122.132 12.1346 121.945 12.1346H113.973V16.0148H118.09C118.908 15.9985 119.725 16.0947 120.517 16.3005C121.118 16.4634 121.69 16.7218 122.21 17.0659C122.637 17.352 123.01 17.7101 123.314 18.1242C123.58 18.4975 123.79 18.9074 123.938 19.3411C124.075 19.7308 124.168 20.1341 124.217 20.544C124.256 20.9285 124.277 21.2707 124.277 21.574C124.287 22.3279 124.131 23.0748 123.818 23.761C123.518 24.4174 123.089 25.0065 122.556 25.493C122.005 25.9842 121.368 26.3672 120.675 26.6218C119.936 26.8907 119.155 27.0257 118.369 27.0204H112.298ZM121.095 21.3765C121.106 20.6436 120.832 19.9352 120.33 19.4011C120.037 19.1183 119.689 18.8999 119.306 18.7602C118.924 18.6204 118.517 18.5624 118.111 18.5898H113.973V24.2655H118.062C118.57 24.2832 119.076 24.1842 119.54 23.9762C119.895 23.8082 120.211 23.5679 120.467 23.2707C120.697 22.999 120.863 22.6797 120.954 22.336C121.044 22.0288 121.092 21.7107 121.095 21.3906V21.3765Z" fill="white"/>
<path d="M137.512 25.588C137.527 25.7584 137.49 25.9294 137.405 26.0777C137.32 26.226 137.191 26.3445 137.036 26.417C136.651 26.5915 136.252 26.7343 135.843 26.8438C135.411 26.9629 134.972 27.0548 134.528 27.119C134.082 27.1873 133.634 27.2332 133.184 27.2565C132.743 27.2847 132.323 27.2953 131.921 27.2953C130.995 27.3174 130.07 27.2045 129.177 26.9602C128.544 26.7815 127.956 26.474 127.448 26.0572C127.036 25.7032 126.729 25.2433 126.559 24.7273C126.209 23.6503 126.221 22.488 126.595 21.4186C126.791 20.8804 127.112 20.3967 127.533 20.0076C128.024 19.5658 128.6 19.2286 129.226 19.0164C130.046 18.7458 130.906 18.6181 131.769 18.639H134.591V18.2157C134.594 17.92 134.561 17.625 134.492 17.3373C134.428 17.0711 134.293 16.8272 134.101 16.6318C133.882 16.4143 133.611 16.2554 133.314 16.1697C132.891 16.0493 132.452 15.9946 132.013 16.0075C131.391 16.0114 130.771 16.0609 130.157 16.1556C129.604 16.2299 129.058 16.3478 128.524 16.5084C128.396 16.5548 128.258 16.5634 128.125 16.5331C128.041 16.4978 127.984 16.4061 127.953 16.2544L127.6 14.8434C127.532 14.5753 127.606 14.399 127.822 14.3143C128.567 14.038 129.341 13.8486 130.129 13.7499C130.91 13.6467 131.697 13.5925 132.485 13.5876C134.223 13.5876 135.497 13.9721 136.306 14.7411C137.115 15.5101 137.521 16.6295 137.526 18.0993V25.588H137.512ZM134.567 20.8542H132.161C131.879 20.8542 131.572 20.8718 131.247 20.9036C130.923 20.9388 130.607 21.032 130.316 21.1787C130.023 21.3302 129.774 21.555 129.593 21.8313C129.381 22.1863 129.28 22.5967 129.304 23.0095C129.304 23.715 129.547 24.23 130.027 24.5122C130.614 24.8178 131.27 24.9649 131.932 24.939C132.048 24.939 132.21 24.939 132.418 24.939C132.642 24.9319 132.864 24.9119 133.085 24.879C133.318 24.8438 133.565 24.8014 133.822 24.752C134.063 24.7096 134.3 24.6434 134.528 24.5545L134.567 20.8542Z" fill="white"/>
<path d="M143.551 26.932C143.422 27.0021 143.275 27.0327 143.128 27.0202H141.315C141.17 27.0294 141.026 26.9936 140.902 26.9179C140.851 26.8659 140.813 26.803 140.789 26.7339C140.766 26.6649 140.759 26.5915 140.768 26.5193V14.339C140.76 14.27 140.768 14.2001 140.791 14.1346C140.814 14.0691 140.852 14.0099 140.902 13.9616C141.026 13.8858 141.17 13.8501 141.315 13.8593H143.128C143.274 13.8485 143.421 13.8791 143.551 13.9475C143.636 14.0074 143.675 14.1344 143.675 14.339V18.7977H149.216V14.339C149.207 14.2697 149.215 14.1991 149.239 14.1334C149.263 14.0677 149.302 14.0087 149.354 13.9616C149.477 13.8843 149.622 13.8484 149.767 13.8593H151.594C151.742 13.8429 151.891 13.8737 152.021 13.9475C152.105 14.0594 152.142 14.2001 152.123 14.339V26.5193C152.123 26.738 152.088 26.872 152.021 26.932C151.891 27.0057 151.742 27.0366 151.594 27.0202H149.767C149.622 27.031 149.477 26.9952 149.354 26.9179C149.301 26.8671 149.261 26.8045 149.237 26.7352C149.213 26.6659 149.206 26.5919 149.216 26.5193V21.1646H143.675V26.5193C143.675 26.738 143.636 26.872 143.551 26.932Z" fill="white"/>
<path d="M167.428 26.5582L163.196 20.0429L167.023 14.3602C167.056 14.3194 167.078 14.2702 167.085 14.218C167.093 14.1657 167.086 14.1125 167.065 14.0639C167.044 14.0147 167.009 13.9727 166.965 13.9433C166.92 13.9138 166.868 13.8981 166.815 13.8981H164.215C164.175 13.8981 164.136 13.9066 164.101 13.9231C164.065 13.9395 164.033 13.9635 164.007 13.9934L160.645 18.8507H158.275V14.265C158.275 14.0816 158.243 13.9687 158.176 13.9122C158.067 13.8586 157.945 13.8354 157.823 13.8452H155.816C155.695 13.8368 155.573 13.8598 155.463 13.9122C155.389 13.951 155.354 14.0639 155.354 14.265V26.6111C155.354 26.791 155.389 26.9038 155.463 26.9638C155.575 27.0114 155.695 27.0319 155.816 27.0238H157.823C157.944 27.0332 158.065 27.0126 158.176 26.9638C158.243 26.918 158.275 26.8051 158.275 26.6111V21.1294H160.483L164.342 26.9144C164.368 26.947 164.4 26.9734 164.438 26.9917C164.475 27.01 164.516 27.0197 164.557 27.0203H167.206C167.26 27.0208 167.312 27.0058 167.357 26.977C167.403 26.9482 167.438 26.9068 167.46 26.858C167.482 26.809 167.489 26.755 167.481 26.7021C167.474 26.6492 167.452 26.5993 167.418 26.5582" fill="white"/>
<path d="M95.0732 26.5583L90.8226 20.0431L94.6464 14.3604C94.6825 14.321 94.7059 14.2717 94.7135 14.2188C94.721 14.1659 94.7124 14.1119 94.6887 14.0641C94.6683 14.0146 94.6335 13.9723 94.5889 13.9428C94.5442 13.9132 94.4918 13.8977 94.4382 13.8983H91.842C91.8026 13.8987 91.7637 13.9074 91.7279 13.9238C91.692 13.9402 91.66 13.964 91.6339 13.9935L88.2687 18.8508H85.9053V14.2651C85.9053 14.0817 85.8701 13.9688 85.7995 13.9124C85.6902 13.8584 85.5682 13.8352 85.4468 13.8453H83.4432C83.3218 13.8369 83.2002 13.86 83.0904 13.9124C83.0163 13.9512 82.9775 14.064 82.9775 14.2651V26.6112C82.9775 26.7911 83.0163 26.904 83.0904 26.964C83.2015 27.0119 83.3225 27.0325 83.4432 27.0239H85.4468C85.5675 27.0338 85.6888 27.0132 85.7995 26.964C85.8701 26.9169 85.9053 26.7993 85.9053 26.6112V21.1295H88.11L91.9902 26.9146C92.0148 26.9474 92.0468 26.9741 92.0835 26.9925C92.1202 27.0108 92.1608 27.0204 92.2018 27.0204H94.8792C94.9317 27.0205 94.9831 27.0052 95.027 26.9763C95.0709 26.9475 95.1054 26.9064 95.1261 26.8581C95.1476 26.8096 95.1557 26.7561 95.1495 26.7034C95.1433 26.6506 95.123 26.6005 95.0908 26.5583" fill="white"/>
<path d="M30.341 38.16H7.83583C5.76101 38.1572 3.77187 37.3322 2.30409 35.8658C0.836314 34.3993 0.00954764 32.4109 0.00488281 30.3361L0.00488281 7.83095C0.0076826 5.75491 0.833626 3.76471 2.30161 2.29672C3.76959 0.828743 5.75979 0.00279978 7.83583 0L30.341 0C32.417 0.00279978 34.4072 0.828743 35.8752 2.29672C37.3432 3.76471 38.1691 5.75491 38.1719 7.83095V30.3361C38.1673 32.4109 37.3405 34.3993 35.8727 35.8658C34.4049 37.3322 32.4158 38.1572 30.341 38.16ZM7.83583 0.55381C5.90639 0.555678 4.0565 1.32297 2.69218 2.6873C1.32786 4.05162 0.560561 5.9015 0.558693 7.83095V30.3361C0.562427 32.2643 1.33055 34.1124 2.69467 35.4752C4.05879 36.838 5.90761 37.6043 7.83583 37.6062H30.341C32.2677 37.6015 34.1142 36.8341 35.4766 35.4717C36.839 34.1093 37.6064 32.2628 37.6111 30.3361V7.83095C37.6092 5.90273 36.8429 4.05391 35.4801 2.68979C34.1173 1.32566 32.2692 0.557544 30.341 0.55381H7.83583Z" fill="white"/>
<path d="M17.1165 5.55573C17.6792 5.22875 18.3144 5.04692 18.9649 5.02661C18.2912 5.04661 17.6339 5.23862 17.0553 5.58437C16.4768 5.93013 15.9964 6.41814 15.6597 7.00199L4.23777 26.7628C3.71386 27.6693 3.57154 28.7468 3.84211 29.7583C4.11267 30.7698 4.77396 31.6324 5.6805 32.1563C6.58703 32.6802 7.66456 32.8225 8.67603 32.5519C9.68751 32.2814 10.5501 31.6201 11.074 30.7135L19.0848 16.8577L15.6738 10.9351C15.4144 10.4865 15.2459 9.99121 15.178 9.47749C15.1101 8.96377 15.1442 8.4417 15.2781 7.94114C15.4121 7.44057 15.6435 6.97132 15.9589 6.5602C16.2743 6.14908 16.6677 5.80416 17.1165 5.54515" fill="white"/>
<path d="M33.9209 26.7628L22.5096 7.00907C22.1727 6.42544 21.6922 5.93762 21.1137 5.59189C20.5352 5.24617 19.878 5.05402 19.2044 5.03369C19.8836 5.05729 20.5452 5.25584 21.1251 5.61014C21.7051 5.96443 22.1837 6.46245 22.5147 7.056C22.8457 7.64954 23.0179 8.31849 23.0145 8.99808C23.0112 9.67768 22.8324 10.3449 22.4955 10.9351L19.0845 16.8577L27.0847 30.7136C27.6086 31.6201 28.4712 32.2814 29.4827 32.5519C30.4942 32.8225 31.5717 32.6802 32.4782 32.1563C33.3848 31.6324 34.046 30.7698 34.3166 29.7583C34.5872 28.7469 34.4448 27.6693 33.9209 26.7628Z" fill="white"/>
<path d="M21.0533 5.55573C20.4902 5.22971 19.8552 5.04794 19.2049 5.02661H18.965C18.2848 5.04956 17.622 5.24801 17.0412 5.60268C16.4603 5.95736 15.9809 6.45621 15.6497 7.0508C15.3185 7.6454 15.1467 8.31553 15.151 8.99613C15.1552 9.67673 15.3353 10.3447 15.6739 10.9351L19.0849 16.8471L22.496 10.9351C22.7554 10.4865 22.9239 9.99121 22.9917 9.47749C23.0596 8.96377 23.0256 8.4417 22.8916 7.94114C22.7576 7.44057 22.5263 6.97132 22.2109 6.5602C21.8954 6.14908 21.5021 5.80416 21.0533 5.54515" fill="white"/>
<path d="M23.1482 28.7628C23.1469 29.5662 22.9073 30.3512 22.46 31.0185C22.0126 31.6859 21.3775 32.2056 20.6348 32.5121C19.8922 32.8186 19.0753 32.898 18.2875 32.7404C17.4997 32.5829 16.7763 32.1953 16.2087 31.6267C15.6411 31.0581 15.2548 30.334 15.0986 29.546C14.9423 28.7579 15.0232 27.9412 15.331 27.1991C15.6388 26.4569 16.1596 25.8227 16.8277 25.3765C17.4958 24.9303 18.2812 24.6921 19.0846 24.6921C19.619 24.6917 20.1482 24.7967 20.6419 25.0012C21.1356 25.2057 21.584 25.5056 21.9616 25.8838C22.3391 26.262 22.6383 26.711 22.8419 27.205C23.0455 27.6991 23.1496 28.2285 23.1482 28.7628Z" fill="white"/>
</g>
<defs>
<clipPath id="clip0_59_47">
<rect width="167.5" height="38.16" fill="white"/>
</clipPath>
</defs>
</svg>
